%TF.GenerationSoftware,KiCad,Pcbnew,9.0.2*%
%TF.CreationDate,2025-07-17T21:10:21+02:00*%
%TF.ProjectId,Ligther,4c696774-6865-4722-9e6b-696361645f70,rev?*%
%TF.SameCoordinates,Original*%
%TF.FileFunction,Legend,Top*%
%TF.FilePolarity,Positive*%
%FSLAX46Y46*%
G04 Gerber Fmt 4.6, Leading zero omitted, Abs format (unit mm)*
G04 Created by KiCad (PCBNEW 9.0.2) date 2025-07-17 21:10:21*
%MOMM*%
%LPD*%
G01*
G04 APERTURE LIST*
%ADD10C,0.100000*%
%ADD11C,0.150000*%
%ADD12C,0.125000*%
%ADD13C,0.254000*%
%ADD14C,0.120000*%
G04 APERTURE END LIST*
D10*
X120522106Y-76920000D02*
G75*
G02*
X118522106Y-76920000I-1000000J0D01*
G01*
X118522106Y-76920000D02*
G75*
G02*
X120522106Y-76920000I1000000J0D01*
G01*
X122100000Y-43510000D02*
G75*
G02*
X120100000Y-43510000I-1000000J0D01*
G01*
X120100000Y-43510000D02*
G75*
G02*
X122100000Y-43510000I1000000J0D01*
G01*
X120050000Y-38970000D02*
X122290000Y-38970000D01*
X122290000Y-40950000D01*
X120050000Y-40950000D01*
X120050000Y-38970000D01*
X120863884Y-39271466D02*
X121625789Y-39271466D01*
X120253884Y-45091466D02*
X121015789Y-45091466D01*
X120634836Y-45472419D02*
X120634836Y-44710514D01*
X121920550Y-44472419D02*
X121730074Y-44472419D01*
X121730074Y-44472419D02*
X121634836Y-44520038D01*
X121634836Y-44520038D02*
X121587217Y-44567657D01*
X121587217Y-44567657D02*
X121491979Y-44710514D01*
X121491979Y-44710514D02*
X121444360Y-44900990D01*
X121444360Y-44900990D02*
X121444360Y-45281942D01*
X121444360Y-45281942D02*
X121491979Y-45377180D01*
X121491979Y-45377180D02*
X121539598Y-45424800D01*
X121539598Y-45424800D02*
X121634836Y-45472419D01*
X121634836Y-45472419D02*
X121825312Y-45472419D01*
X121825312Y-45472419D02*
X121920550Y-45424800D01*
X121920550Y-45424800D02*
X121968169Y-45377180D01*
X121968169Y-45377180D02*
X122015788Y-45281942D01*
X122015788Y-45281942D02*
X122015788Y-45043847D01*
X122015788Y-45043847D02*
X121968169Y-44948609D01*
X121968169Y-44948609D02*
X121920550Y-44900990D01*
X121920550Y-44900990D02*
X121825312Y-44853371D01*
X121825312Y-44853371D02*
X121634836Y-44853371D01*
X121634836Y-44853371D02*
X121539598Y-44900990D01*
X121539598Y-44900990D02*
X121491979Y-44948609D01*
X121491979Y-44948609D02*
X121444360Y-45043847D01*
X115113884Y-77081466D02*
X115875789Y-77081466D01*
X115494836Y-77462419D02*
X115494836Y-76700514D01*
X116780550Y-76795752D02*
X116780550Y-77462419D01*
X116542455Y-76414800D02*
X116304360Y-77129085D01*
X116304360Y-77129085D02*
X116923407Y-77129085D01*
X117304360Y-77367180D02*
X117351979Y-77414800D01*
X117351979Y-77414800D02*
X117304360Y-77462419D01*
X117304360Y-77462419D02*
X117256741Y-77414800D01*
X117256741Y-77414800D02*
X117304360Y-77367180D01*
X117304360Y-77367180D02*
X117304360Y-77462419D01*
X118256740Y-76462419D02*
X117780550Y-76462419D01*
X117780550Y-76462419D02*
X117732931Y-76938609D01*
X117732931Y-76938609D02*
X117780550Y-76890990D01*
X117780550Y-76890990D02*
X117875788Y-76843371D01*
X117875788Y-76843371D02*
X118113883Y-76843371D01*
X118113883Y-76843371D02*
X118209121Y-76890990D01*
X118209121Y-76890990D02*
X118256740Y-76938609D01*
X118256740Y-76938609D02*
X118304359Y-77033847D01*
X118304359Y-77033847D02*
X118304359Y-77271942D01*
X118304359Y-77271942D02*
X118256740Y-77367180D01*
X118256740Y-77367180D02*
X118209121Y-77414800D01*
X118209121Y-77414800D02*
X118113883Y-77462419D01*
X118113883Y-77462419D02*
X117875788Y-77462419D01*
X117875788Y-77462419D02*
X117780550Y-77414800D01*
X117780550Y-77414800D02*
X117732931Y-77367180D01*
X77721027Y-34105752D02*
X78101979Y-34105752D01*
X77863884Y-34772419D02*
X77863884Y-33915276D01*
X77863884Y-33915276D02*
X77911503Y-33820038D01*
X77911503Y-33820038D02*
X78006741Y-33772419D01*
X78006741Y-33772419D02*
X78101979Y-33772419D01*
X78435313Y-34772419D02*
X78435313Y-34105752D01*
X78435313Y-34296228D02*
X78482932Y-34200990D01*
X78482932Y-34200990D02*
X78530551Y-34153371D01*
X78530551Y-34153371D02*
X78625789Y-34105752D01*
X78625789Y-34105752D02*
X78721027Y-34105752D01*
X79197218Y-34772419D02*
X79101980Y-34724800D01*
X79101980Y-34724800D02*
X79054361Y-34677180D01*
X79054361Y-34677180D02*
X79006742Y-34581942D01*
X79006742Y-34581942D02*
X79006742Y-34296228D01*
X79006742Y-34296228D02*
X79054361Y-34200990D01*
X79054361Y-34200990D02*
X79101980Y-34153371D01*
X79101980Y-34153371D02*
X79197218Y-34105752D01*
X79197218Y-34105752D02*
X79340075Y-34105752D01*
X79340075Y-34105752D02*
X79435313Y-34153371D01*
X79435313Y-34153371D02*
X79482932Y-34200990D01*
X79482932Y-34200990D02*
X79530551Y-34296228D01*
X79530551Y-34296228D02*
X79530551Y-34581942D01*
X79530551Y-34581942D02*
X79482932Y-34677180D01*
X79482932Y-34677180D02*
X79435313Y-34724800D01*
X79435313Y-34724800D02*
X79340075Y-34772419D01*
X79340075Y-34772419D02*
X79197218Y-34772419D01*
X79959123Y-34105752D02*
X79959123Y-34772419D01*
X79959123Y-34200990D02*
X80006742Y-34153371D01*
X80006742Y-34153371D02*
X80101980Y-34105752D01*
X80101980Y-34105752D02*
X80244837Y-34105752D01*
X80244837Y-34105752D02*
X80340075Y-34153371D01*
X80340075Y-34153371D02*
X80387694Y-34248609D01*
X80387694Y-34248609D02*
X80387694Y-34772419D01*
X80721028Y-34105752D02*
X81101980Y-34105752D01*
X80863885Y-33772419D02*
X80863885Y-34629561D01*
X80863885Y-34629561D02*
X80911504Y-34724800D01*
X80911504Y-34724800D02*
X81006742Y-34772419D01*
X81006742Y-34772419D02*
X81101980Y-34772419D01*
D11*
X104587142Y-65514819D02*
X104253809Y-65038628D01*
X104015714Y-65514819D02*
X104015714Y-64514819D01*
X104015714Y-64514819D02*
X104396666Y-64514819D01*
X104396666Y-64514819D02*
X104491904Y-64562438D01*
X104491904Y-64562438D02*
X104539523Y-64610057D01*
X104539523Y-64610057D02*
X104587142Y-64705295D01*
X104587142Y-64705295D02*
X104587142Y-64848152D01*
X104587142Y-64848152D02*
X104539523Y-64943390D01*
X104539523Y-64943390D02*
X104491904Y-64991009D01*
X104491904Y-64991009D02*
X104396666Y-65038628D01*
X104396666Y-65038628D02*
X104015714Y-65038628D01*
X105539523Y-65514819D02*
X104968095Y-65514819D01*
X105253809Y-65514819D02*
X105253809Y-64514819D01*
X105253809Y-64514819D02*
X105158571Y-64657676D01*
X105158571Y-64657676D02*
X105063333Y-64752914D01*
X105063333Y-64752914D02*
X104968095Y-64800533D01*
X106396666Y-64514819D02*
X106206190Y-64514819D01*
X106206190Y-64514819D02*
X106110952Y-64562438D01*
X106110952Y-64562438D02*
X106063333Y-64610057D01*
X106063333Y-64610057D02*
X105968095Y-64752914D01*
X105968095Y-64752914D02*
X105920476Y-64943390D01*
X105920476Y-64943390D02*
X105920476Y-65324342D01*
X105920476Y-65324342D02*
X105968095Y-65419580D01*
X105968095Y-65419580D02*
X106015714Y-65467200D01*
X106015714Y-65467200D02*
X106110952Y-65514819D01*
X106110952Y-65514819D02*
X106301428Y-65514819D01*
X106301428Y-65514819D02*
X106396666Y-65467200D01*
X106396666Y-65467200D02*
X106444285Y-65419580D01*
X106444285Y-65419580D02*
X106491904Y-65324342D01*
X106491904Y-65324342D02*
X106491904Y-65086247D01*
X106491904Y-65086247D02*
X106444285Y-64991009D01*
X106444285Y-64991009D02*
X106396666Y-64943390D01*
X106396666Y-64943390D02*
X106301428Y-64895771D01*
X106301428Y-64895771D02*
X106110952Y-64895771D01*
X106110952Y-64895771D02*
X106015714Y-64943390D01*
X106015714Y-64943390D02*
X105968095Y-64991009D01*
X105968095Y-64991009D02*
X105920476Y-65086247D01*
X101547142Y-65504819D02*
X101213809Y-65028628D01*
X100975714Y-65504819D02*
X100975714Y-64504819D01*
X100975714Y-64504819D02*
X101356666Y-64504819D01*
X101356666Y-64504819D02*
X101451904Y-64552438D01*
X101451904Y-64552438D02*
X101499523Y-64600057D01*
X101499523Y-64600057D02*
X101547142Y-64695295D01*
X101547142Y-64695295D02*
X101547142Y-64838152D01*
X101547142Y-64838152D02*
X101499523Y-64933390D01*
X101499523Y-64933390D02*
X101451904Y-64981009D01*
X101451904Y-64981009D02*
X101356666Y-65028628D01*
X101356666Y-65028628D02*
X100975714Y-65028628D01*
X102499523Y-65504819D02*
X101928095Y-65504819D01*
X102213809Y-65504819D02*
X102213809Y-64504819D01*
X102213809Y-64504819D02*
X102118571Y-64647676D01*
X102118571Y-64647676D02*
X102023333Y-64742914D01*
X102023333Y-64742914D02*
X101928095Y-64790533D01*
X103404285Y-64504819D02*
X102928095Y-64504819D01*
X102928095Y-64504819D02*
X102880476Y-64981009D01*
X102880476Y-64981009D02*
X102928095Y-64933390D01*
X102928095Y-64933390D02*
X103023333Y-64885771D01*
X103023333Y-64885771D02*
X103261428Y-64885771D01*
X103261428Y-64885771D02*
X103356666Y-64933390D01*
X103356666Y-64933390D02*
X103404285Y-64981009D01*
X103404285Y-64981009D02*
X103451904Y-65076247D01*
X103451904Y-65076247D02*
X103451904Y-65314342D01*
X103451904Y-65314342D02*
X103404285Y-65409580D01*
X103404285Y-65409580D02*
X103356666Y-65457200D01*
X103356666Y-65457200D02*
X103261428Y-65504819D01*
X103261428Y-65504819D02*
X103023333Y-65504819D01*
X103023333Y-65504819D02*
X102928095Y-65457200D01*
X102928095Y-65457200D02*
X102880476Y-65409580D01*
X98417142Y-65524819D02*
X98083809Y-65048628D01*
X97845714Y-65524819D02*
X97845714Y-64524819D01*
X97845714Y-64524819D02*
X98226666Y-64524819D01*
X98226666Y-64524819D02*
X98321904Y-64572438D01*
X98321904Y-64572438D02*
X98369523Y-64620057D01*
X98369523Y-64620057D02*
X98417142Y-64715295D01*
X98417142Y-64715295D02*
X98417142Y-64858152D01*
X98417142Y-64858152D02*
X98369523Y-64953390D01*
X98369523Y-64953390D02*
X98321904Y-65001009D01*
X98321904Y-65001009D02*
X98226666Y-65048628D01*
X98226666Y-65048628D02*
X97845714Y-65048628D01*
X99369523Y-65524819D02*
X98798095Y-65524819D01*
X99083809Y-65524819D02*
X99083809Y-64524819D01*
X99083809Y-64524819D02*
X98988571Y-64667676D01*
X98988571Y-64667676D02*
X98893333Y-64762914D01*
X98893333Y-64762914D02*
X98798095Y-64810533D01*
X100226666Y-64858152D02*
X100226666Y-65524819D01*
X99988571Y-64477200D02*
X99750476Y-65191485D01*
X99750476Y-65191485D02*
X100369523Y-65191485D01*
X95387142Y-65524819D02*
X95053809Y-65048628D01*
X94815714Y-65524819D02*
X94815714Y-64524819D01*
X94815714Y-64524819D02*
X95196666Y-64524819D01*
X95196666Y-64524819D02*
X95291904Y-64572438D01*
X95291904Y-64572438D02*
X95339523Y-64620057D01*
X95339523Y-64620057D02*
X95387142Y-64715295D01*
X95387142Y-64715295D02*
X95387142Y-64858152D01*
X95387142Y-64858152D02*
X95339523Y-64953390D01*
X95339523Y-64953390D02*
X95291904Y-65001009D01*
X95291904Y-65001009D02*
X95196666Y-65048628D01*
X95196666Y-65048628D02*
X94815714Y-65048628D01*
X96339523Y-65524819D02*
X95768095Y-65524819D01*
X96053809Y-65524819D02*
X96053809Y-64524819D01*
X96053809Y-64524819D02*
X95958571Y-64667676D01*
X95958571Y-64667676D02*
X95863333Y-64762914D01*
X95863333Y-64762914D02*
X95768095Y-64810533D01*
X96672857Y-64524819D02*
X97291904Y-64524819D01*
X97291904Y-64524819D02*
X96958571Y-64905771D01*
X96958571Y-64905771D02*
X97101428Y-64905771D01*
X97101428Y-64905771D02*
X97196666Y-64953390D01*
X97196666Y-64953390D02*
X97244285Y-65001009D01*
X97244285Y-65001009D02*
X97291904Y-65096247D01*
X97291904Y-65096247D02*
X97291904Y-65334342D01*
X97291904Y-65334342D02*
X97244285Y-65429580D01*
X97244285Y-65429580D02*
X97196666Y-65477200D01*
X97196666Y-65477200D02*
X97101428Y-65524819D01*
X97101428Y-65524819D02*
X96815714Y-65524819D01*
X96815714Y-65524819D02*
X96720476Y-65477200D01*
X96720476Y-65477200D02*
X96672857Y-65429580D01*
X94218095Y-50754819D02*
X94218095Y-51564342D01*
X94218095Y-51564342D02*
X94265714Y-51659580D01*
X94265714Y-51659580D02*
X94313333Y-51707200D01*
X94313333Y-51707200D02*
X94408571Y-51754819D01*
X94408571Y-51754819D02*
X94599047Y-51754819D01*
X94599047Y-51754819D02*
X94694285Y-51707200D01*
X94694285Y-51707200D02*
X94741904Y-51659580D01*
X94741904Y-51659580D02*
X94789523Y-51564342D01*
X94789523Y-51564342D02*
X94789523Y-50754819D01*
X95218095Y-50850057D02*
X95265714Y-50802438D01*
X95265714Y-50802438D02*
X95360952Y-50754819D01*
X95360952Y-50754819D02*
X95599047Y-50754819D01*
X95599047Y-50754819D02*
X95694285Y-50802438D01*
X95694285Y-50802438D02*
X95741904Y-50850057D01*
X95741904Y-50850057D02*
X95789523Y-50945295D01*
X95789523Y-50945295D02*
X95789523Y-51040533D01*
X95789523Y-51040533D02*
X95741904Y-51183390D01*
X95741904Y-51183390D02*
X95170476Y-51754819D01*
X95170476Y-51754819D02*
X95789523Y-51754819D01*
X90576667Y-36027200D02*
X90719524Y-36074819D01*
X90719524Y-36074819D02*
X90957619Y-36074819D01*
X90957619Y-36074819D02*
X91052857Y-36027200D01*
X91052857Y-36027200D02*
X91100476Y-35979580D01*
X91100476Y-35979580D02*
X91148095Y-35884342D01*
X91148095Y-35884342D02*
X91148095Y-35789104D01*
X91148095Y-35789104D02*
X91100476Y-35693866D01*
X91100476Y-35693866D02*
X91052857Y-35646247D01*
X91052857Y-35646247D02*
X90957619Y-35598628D01*
X90957619Y-35598628D02*
X90767143Y-35551009D01*
X90767143Y-35551009D02*
X90671905Y-35503390D01*
X90671905Y-35503390D02*
X90624286Y-35455771D01*
X90624286Y-35455771D02*
X90576667Y-35360533D01*
X90576667Y-35360533D02*
X90576667Y-35265295D01*
X90576667Y-35265295D02*
X90624286Y-35170057D01*
X90624286Y-35170057D02*
X90671905Y-35122438D01*
X90671905Y-35122438D02*
X90767143Y-35074819D01*
X90767143Y-35074819D02*
X91005238Y-35074819D01*
X91005238Y-35074819D02*
X91148095Y-35122438D01*
X91481429Y-35074819D02*
X91719524Y-36074819D01*
X91719524Y-36074819D02*
X91910000Y-35360533D01*
X91910000Y-35360533D02*
X92100476Y-36074819D01*
X92100476Y-36074819D02*
X92338572Y-35074819D01*
X93243333Y-36074819D02*
X92671905Y-36074819D01*
X92957619Y-36074819D02*
X92957619Y-35074819D01*
X92957619Y-35074819D02*
X92862381Y-35217676D01*
X92862381Y-35217676D02*
X92767143Y-35312914D01*
X92767143Y-35312914D02*
X92671905Y-35360533D01*
X92327142Y-65524819D02*
X91993809Y-65048628D01*
X91755714Y-65524819D02*
X91755714Y-64524819D01*
X91755714Y-64524819D02*
X92136666Y-64524819D01*
X92136666Y-64524819D02*
X92231904Y-64572438D01*
X92231904Y-64572438D02*
X92279523Y-64620057D01*
X92279523Y-64620057D02*
X92327142Y-64715295D01*
X92327142Y-64715295D02*
X92327142Y-64858152D01*
X92327142Y-64858152D02*
X92279523Y-64953390D01*
X92279523Y-64953390D02*
X92231904Y-65001009D01*
X92231904Y-65001009D02*
X92136666Y-65048628D01*
X92136666Y-65048628D02*
X91755714Y-65048628D01*
X93279523Y-65524819D02*
X92708095Y-65524819D01*
X92993809Y-65524819D02*
X92993809Y-64524819D01*
X92993809Y-64524819D02*
X92898571Y-64667676D01*
X92898571Y-64667676D02*
X92803333Y-64762914D01*
X92803333Y-64762914D02*
X92708095Y-64810533D01*
X93660476Y-64620057D02*
X93708095Y-64572438D01*
X93708095Y-64572438D02*
X93803333Y-64524819D01*
X93803333Y-64524819D02*
X94041428Y-64524819D01*
X94041428Y-64524819D02*
X94136666Y-64572438D01*
X94136666Y-64572438D02*
X94184285Y-64620057D01*
X94184285Y-64620057D02*
X94231904Y-64715295D01*
X94231904Y-64715295D02*
X94231904Y-64810533D01*
X94231904Y-64810533D02*
X94184285Y-64953390D01*
X94184285Y-64953390D02*
X93612857Y-65524819D01*
X93612857Y-65524819D02*
X94231904Y-65524819D01*
D12*
X89217142Y-65526119D02*
X88883809Y-65049928D01*
X88645714Y-65526119D02*
X88645714Y-64526119D01*
X88645714Y-64526119D02*
X89026666Y-64526119D01*
X89026666Y-64526119D02*
X89121904Y-64573738D01*
X89121904Y-64573738D02*
X89169523Y-64621357D01*
X89169523Y-64621357D02*
X89217142Y-64716595D01*
X89217142Y-64716595D02*
X89217142Y-64859452D01*
X89217142Y-64859452D02*
X89169523Y-64954690D01*
X89169523Y-64954690D02*
X89121904Y-65002309D01*
X89121904Y-65002309D02*
X89026666Y-65049928D01*
X89026666Y-65049928D02*
X88645714Y-65049928D01*
X90169523Y-65526119D02*
X89598095Y-65526119D01*
X89883809Y-65526119D02*
X89883809Y-64526119D01*
X89883809Y-64526119D02*
X89788571Y-64668976D01*
X89788571Y-64668976D02*
X89693333Y-64764214D01*
X89693333Y-64764214D02*
X89598095Y-64811833D01*
X91121904Y-65526119D02*
X90550476Y-65526119D01*
X90836190Y-65526119D02*
X90836190Y-64526119D01*
X90836190Y-64526119D02*
X90740952Y-64668976D01*
X90740952Y-64668976D02*
X90645714Y-64764214D01*
X90645714Y-64764214D02*
X90550476Y-64811833D01*
D11*
X86453333Y-65524819D02*
X86120000Y-65048628D01*
X85881905Y-65524819D02*
X85881905Y-64524819D01*
X85881905Y-64524819D02*
X86262857Y-64524819D01*
X86262857Y-64524819D02*
X86358095Y-64572438D01*
X86358095Y-64572438D02*
X86405714Y-64620057D01*
X86405714Y-64620057D02*
X86453333Y-64715295D01*
X86453333Y-64715295D02*
X86453333Y-64858152D01*
X86453333Y-64858152D02*
X86405714Y-64953390D01*
X86405714Y-64953390D02*
X86358095Y-65001009D01*
X86358095Y-65001009D02*
X86262857Y-65048628D01*
X86262857Y-65048628D02*
X85881905Y-65048628D01*
X86929524Y-65524819D02*
X87120000Y-65524819D01*
X87120000Y-65524819D02*
X87215238Y-65477200D01*
X87215238Y-65477200D02*
X87262857Y-65429580D01*
X87262857Y-65429580D02*
X87358095Y-65286723D01*
X87358095Y-65286723D02*
X87405714Y-65096247D01*
X87405714Y-65096247D02*
X87405714Y-64715295D01*
X87405714Y-64715295D02*
X87358095Y-64620057D01*
X87358095Y-64620057D02*
X87310476Y-64572438D01*
X87310476Y-64572438D02*
X87215238Y-64524819D01*
X87215238Y-64524819D02*
X87024762Y-64524819D01*
X87024762Y-64524819D02*
X86929524Y-64572438D01*
X86929524Y-64572438D02*
X86881905Y-64620057D01*
X86881905Y-64620057D02*
X86834286Y-64715295D01*
X86834286Y-64715295D02*
X86834286Y-64953390D01*
X86834286Y-64953390D02*
X86881905Y-65048628D01*
X86881905Y-65048628D02*
X86929524Y-65096247D01*
X86929524Y-65096247D02*
X87024762Y-65143866D01*
X87024762Y-65143866D02*
X87215238Y-65143866D01*
X87215238Y-65143866D02*
X87310476Y-65096247D01*
X87310476Y-65096247D02*
X87358095Y-65048628D01*
X87358095Y-65048628D02*
X87405714Y-64953390D01*
X83363333Y-65524819D02*
X83030000Y-65048628D01*
X82791905Y-65524819D02*
X82791905Y-64524819D01*
X82791905Y-64524819D02*
X83172857Y-64524819D01*
X83172857Y-64524819D02*
X83268095Y-64572438D01*
X83268095Y-64572438D02*
X83315714Y-64620057D01*
X83315714Y-64620057D02*
X83363333Y-64715295D01*
X83363333Y-64715295D02*
X83363333Y-64858152D01*
X83363333Y-64858152D02*
X83315714Y-64953390D01*
X83315714Y-64953390D02*
X83268095Y-65001009D01*
X83268095Y-65001009D02*
X83172857Y-65048628D01*
X83172857Y-65048628D02*
X82791905Y-65048628D01*
X83934762Y-64953390D02*
X83839524Y-64905771D01*
X83839524Y-64905771D02*
X83791905Y-64858152D01*
X83791905Y-64858152D02*
X83744286Y-64762914D01*
X83744286Y-64762914D02*
X83744286Y-64715295D01*
X83744286Y-64715295D02*
X83791905Y-64620057D01*
X83791905Y-64620057D02*
X83839524Y-64572438D01*
X83839524Y-64572438D02*
X83934762Y-64524819D01*
X83934762Y-64524819D02*
X84125238Y-64524819D01*
X84125238Y-64524819D02*
X84220476Y-64572438D01*
X84220476Y-64572438D02*
X84268095Y-64620057D01*
X84268095Y-64620057D02*
X84315714Y-64715295D01*
X84315714Y-64715295D02*
X84315714Y-64762914D01*
X84315714Y-64762914D02*
X84268095Y-64858152D01*
X84268095Y-64858152D02*
X84220476Y-64905771D01*
X84220476Y-64905771D02*
X84125238Y-64953390D01*
X84125238Y-64953390D02*
X83934762Y-64953390D01*
X83934762Y-64953390D02*
X83839524Y-65001009D01*
X83839524Y-65001009D02*
X83791905Y-65048628D01*
X83791905Y-65048628D02*
X83744286Y-65143866D01*
X83744286Y-65143866D02*
X83744286Y-65334342D01*
X83744286Y-65334342D02*
X83791905Y-65429580D01*
X83791905Y-65429580D02*
X83839524Y-65477200D01*
X83839524Y-65477200D02*
X83934762Y-65524819D01*
X83934762Y-65524819D02*
X84125238Y-65524819D01*
X84125238Y-65524819D02*
X84220476Y-65477200D01*
X84220476Y-65477200D02*
X84268095Y-65429580D01*
X84268095Y-65429580D02*
X84315714Y-65334342D01*
X84315714Y-65334342D02*
X84315714Y-65143866D01*
X84315714Y-65143866D02*
X84268095Y-65048628D01*
X84268095Y-65048628D02*
X84220476Y-65001009D01*
X84220476Y-65001009D02*
X84125238Y-64953390D01*
X80333333Y-65534819D02*
X80000000Y-65058628D01*
X79761905Y-65534819D02*
X79761905Y-64534819D01*
X79761905Y-64534819D02*
X80142857Y-64534819D01*
X80142857Y-64534819D02*
X80238095Y-64582438D01*
X80238095Y-64582438D02*
X80285714Y-64630057D01*
X80285714Y-64630057D02*
X80333333Y-64725295D01*
X80333333Y-64725295D02*
X80333333Y-64868152D01*
X80333333Y-64868152D02*
X80285714Y-64963390D01*
X80285714Y-64963390D02*
X80238095Y-65011009D01*
X80238095Y-65011009D02*
X80142857Y-65058628D01*
X80142857Y-65058628D02*
X79761905Y-65058628D01*
X80666667Y-64534819D02*
X81333333Y-64534819D01*
X81333333Y-64534819D02*
X80904762Y-65534819D01*
X109510476Y-68374819D02*
X109510476Y-69089104D01*
X109510476Y-69089104D02*
X109462857Y-69231961D01*
X109462857Y-69231961D02*
X109367619Y-69327200D01*
X109367619Y-69327200D02*
X109224762Y-69374819D01*
X109224762Y-69374819D02*
X109129524Y-69374819D01*
X109986667Y-69374819D02*
X109986667Y-68374819D01*
X109986667Y-68374819D02*
X110367619Y-68374819D01*
X110367619Y-68374819D02*
X110462857Y-68422438D01*
X110462857Y-68422438D02*
X110510476Y-68470057D01*
X110510476Y-68470057D02*
X110558095Y-68565295D01*
X110558095Y-68565295D02*
X110558095Y-68708152D01*
X110558095Y-68708152D02*
X110510476Y-68803390D01*
X110510476Y-68803390D02*
X110462857Y-68851009D01*
X110462857Y-68851009D02*
X110367619Y-68898628D01*
X110367619Y-68898628D02*
X109986667Y-68898628D01*
X111510476Y-69374819D02*
X110939048Y-69374819D01*
X111224762Y-69374819D02*
X111224762Y-68374819D01*
X111224762Y-68374819D02*
X111129524Y-68517676D01*
X111129524Y-68517676D02*
X111034286Y-68612914D01*
X111034286Y-68612914D02*
X110939048Y-68660533D01*
X112367619Y-68708152D02*
X112367619Y-69374819D01*
X112129524Y-68327200D02*
X111891429Y-69041485D01*
X111891429Y-69041485D02*
X112510476Y-69041485D01*
X109665476Y-61319819D02*
X109665476Y-62034104D01*
X109665476Y-62034104D02*
X109617857Y-62176961D01*
X109617857Y-62176961D02*
X109522619Y-62272200D01*
X109522619Y-62272200D02*
X109379762Y-62319819D01*
X109379762Y-62319819D02*
X109284524Y-62319819D01*
X110141667Y-62319819D02*
X110141667Y-61319819D01*
X110141667Y-61319819D02*
X110522619Y-61319819D01*
X110522619Y-61319819D02*
X110617857Y-61367438D01*
X110617857Y-61367438D02*
X110665476Y-61415057D01*
X110665476Y-61415057D02*
X110713095Y-61510295D01*
X110713095Y-61510295D02*
X110713095Y-61653152D01*
X110713095Y-61653152D02*
X110665476Y-61748390D01*
X110665476Y-61748390D02*
X110617857Y-61796009D01*
X110617857Y-61796009D02*
X110522619Y-61843628D01*
X110522619Y-61843628D02*
X110141667Y-61843628D01*
X111665476Y-62319819D02*
X111094048Y-62319819D01*
X111379762Y-62319819D02*
X111379762Y-61319819D01*
X111379762Y-61319819D02*
X111284524Y-61462676D01*
X111284524Y-61462676D02*
X111189286Y-61557914D01*
X111189286Y-61557914D02*
X111094048Y-61605533D01*
X111998810Y-61319819D02*
X112617857Y-61319819D01*
X112617857Y-61319819D02*
X112284524Y-61700771D01*
X112284524Y-61700771D02*
X112427381Y-61700771D01*
X112427381Y-61700771D02*
X112522619Y-61748390D01*
X112522619Y-61748390D02*
X112570238Y-61796009D01*
X112570238Y-61796009D02*
X112617857Y-61891247D01*
X112617857Y-61891247D02*
X112617857Y-62129342D01*
X112617857Y-62129342D02*
X112570238Y-62224580D01*
X112570238Y-62224580D02*
X112522619Y-62272200D01*
X112522619Y-62272200D02*
X112427381Y-62319819D01*
X112427381Y-62319819D02*
X112141667Y-62319819D01*
X112141667Y-62319819D02*
X112046429Y-62272200D01*
X112046429Y-62272200D02*
X111998810Y-62224580D01*
X83430476Y-37904819D02*
X83430476Y-38619104D01*
X83430476Y-38619104D02*
X83382857Y-38761961D01*
X83382857Y-38761961D02*
X83287619Y-38857200D01*
X83287619Y-38857200D02*
X83144762Y-38904819D01*
X83144762Y-38904819D02*
X83049524Y-38904819D01*
X83906667Y-38904819D02*
X83906667Y-37904819D01*
X83906667Y-37904819D02*
X84287619Y-37904819D01*
X84287619Y-37904819D02*
X84382857Y-37952438D01*
X84382857Y-37952438D02*
X84430476Y-38000057D01*
X84430476Y-38000057D02*
X84478095Y-38095295D01*
X84478095Y-38095295D02*
X84478095Y-38238152D01*
X84478095Y-38238152D02*
X84430476Y-38333390D01*
X84430476Y-38333390D02*
X84382857Y-38381009D01*
X84382857Y-38381009D02*
X84287619Y-38428628D01*
X84287619Y-38428628D02*
X83906667Y-38428628D01*
X85430476Y-38904819D02*
X84859048Y-38904819D01*
X85144762Y-38904819D02*
X85144762Y-37904819D01*
X85144762Y-37904819D02*
X85049524Y-38047676D01*
X85049524Y-38047676D02*
X84954286Y-38142914D01*
X84954286Y-38142914D02*
X84859048Y-38190533D01*
X85811429Y-38000057D02*
X85859048Y-37952438D01*
X85859048Y-37952438D02*
X85954286Y-37904819D01*
X85954286Y-37904819D02*
X86192381Y-37904819D01*
X86192381Y-37904819D02*
X86287619Y-37952438D01*
X86287619Y-37952438D02*
X86335238Y-38000057D01*
X86335238Y-38000057D02*
X86382857Y-38095295D01*
X86382857Y-38095295D02*
X86382857Y-38190533D01*
X86382857Y-38190533D02*
X86335238Y-38333390D01*
X86335238Y-38333390D02*
X85763810Y-38904819D01*
X85763810Y-38904819D02*
X86382857Y-38904819D01*
X83430476Y-40624819D02*
X83430476Y-41339104D01*
X83430476Y-41339104D02*
X83382857Y-41481961D01*
X83382857Y-41481961D02*
X83287619Y-41577200D01*
X83287619Y-41577200D02*
X83144762Y-41624819D01*
X83144762Y-41624819D02*
X83049524Y-41624819D01*
X83906667Y-41624819D02*
X83906667Y-40624819D01*
X83906667Y-40624819D02*
X84287619Y-40624819D01*
X84287619Y-40624819D02*
X84382857Y-40672438D01*
X84382857Y-40672438D02*
X84430476Y-40720057D01*
X84430476Y-40720057D02*
X84478095Y-40815295D01*
X84478095Y-40815295D02*
X84478095Y-40958152D01*
X84478095Y-40958152D02*
X84430476Y-41053390D01*
X84430476Y-41053390D02*
X84382857Y-41101009D01*
X84382857Y-41101009D02*
X84287619Y-41148628D01*
X84287619Y-41148628D02*
X83906667Y-41148628D01*
X85430476Y-41624819D02*
X84859048Y-41624819D01*
X85144762Y-41624819D02*
X85144762Y-40624819D01*
X85144762Y-40624819D02*
X85049524Y-40767676D01*
X85049524Y-40767676D02*
X84954286Y-40862914D01*
X84954286Y-40862914D02*
X84859048Y-40910533D01*
X86382857Y-41624819D02*
X85811429Y-41624819D01*
X86097143Y-41624819D02*
X86097143Y-40624819D01*
X86097143Y-40624819D02*
X86001905Y-40767676D01*
X86001905Y-40767676D02*
X85906667Y-40862914D01*
X85906667Y-40862914D02*
X85811429Y-40910533D01*
X106594819Y-76889523D02*
X107309104Y-76889523D01*
X107309104Y-76889523D02*
X107451961Y-76937142D01*
X107451961Y-76937142D02*
X107547200Y-77032380D01*
X107547200Y-77032380D02*
X107594819Y-77175237D01*
X107594819Y-77175237D02*
X107594819Y-77270475D01*
X107594819Y-76413332D02*
X106594819Y-76413332D01*
X106594819Y-76413332D02*
X106594819Y-76032380D01*
X106594819Y-76032380D02*
X106642438Y-75937142D01*
X106642438Y-75937142D02*
X106690057Y-75889523D01*
X106690057Y-75889523D02*
X106785295Y-75841904D01*
X106785295Y-75841904D02*
X106928152Y-75841904D01*
X106928152Y-75841904D02*
X107023390Y-75889523D01*
X107023390Y-75889523D02*
X107071009Y-75937142D01*
X107071009Y-75937142D02*
X107118628Y-76032380D01*
X107118628Y-76032380D02*
X107118628Y-76413332D01*
X107594819Y-74889523D02*
X107594819Y-75460951D01*
X107594819Y-75175237D02*
X106594819Y-75175237D01*
X106594819Y-75175237D02*
X106737676Y-75270475D01*
X106737676Y-75270475D02*
X106832914Y-75365713D01*
X106832914Y-75365713D02*
X106880533Y-75460951D01*
X106594819Y-74270475D02*
X106594819Y-74175237D01*
X106594819Y-74175237D02*
X106642438Y-74079999D01*
X106642438Y-74079999D02*
X106690057Y-74032380D01*
X106690057Y-74032380D02*
X106785295Y-73984761D01*
X106785295Y-73984761D02*
X106975771Y-73937142D01*
X106975771Y-73937142D02*
X107213866Y-73937142D01*
X107213866Y-73937142D02*
X107404342Y-73984761D01*
X107404342Y-73984761D02*
X107499580Y-74032380D01*
X107499580Y-74032380D02*
X107547200Y-74079999D01*
X107547200Y-74079999D02*
X107594819Y-74175237D01*
X107594819Y-74175237D02*
X107594819Y-74270475D01*
X107594819Y-74270475D02*
X107547200Y-74365713D01*
X107547200Y-74365713D02*
X107499580Y-74413332D01*
X107499580Y-74413332D02*
X107404342Y-74460951D01*
X107404342Y-74460951D02*
X107213866Y-74508570D01*
X107213866Y-74508570D02*
X106975771Y-74508570D01*
X106975771Y-74508570D02*
X106785295Y-74460951D01*
X106785295Y-74460951D02*
X106690057Y-74413332D01*
X106690057Y-74413332D02*
X106642438Y-74365713D01*
X106642438Y-74365713D02*
X106594819Y-74270475D01*
X101624819Y-69733333D02*
X102339104Y-69733333D01*
X102339104Y-69733333D02*
X102481961Y-69780952D01*
X102481961Y-69780952D02*
X102577200Y-69876190D01*
X102577200Y-69876190D02*
X102624819Y-70019047D01*
X102624819Y-70019047D02*
X102624819Y-70114285D01*
X102624819Y-69257142D02*
X101624819Y-69257142D01*
X101624819Y-69257142D02*
X101624819Y-68876190D01*
X101624819Y-68876190D02*
X101672438Y-68780952D01*
X101672438Y-68780952D02*
X101720057Y-68733333D01*
X101720057Y-68733333D02*
X101815295Y-68685714D01*
X101815295Y-68685714D02*
X101958152Y-68685714D01*
X101958152Y-68685714D02*
X102053390Y-68733333D01*
X102053390Y-68733333D02*
X102101009Y-68780952D01*
X102101009Y-68780952D02*
X102148628Y-68876190D01*
X102148628Y-68876190D02*
X102148628Y-69257142D01*
X102624819Y-68209523D02*
X102624819Y-68019047D01*
X102624819Y-68019047D02*
X102577200Y-67923809D01*
X102577200Y-67923809D02*
X102529580Y-67876190D01*
X102529580Y-67876190D02*
X102386723Y-67780952D01*
X102386723Y-67780952D02*
X102196247Y-67733333D01*
X102196247Y-67733333D02*
X101815295Y-67733333D01*
X101815295Y-67733333D02*
X101720057Y-67780952D01*
X101720057Y-67780952D02*
X101672438Y-67828571D01*
X101672438Y-67828571D02*
X101624819Y-67923809D01*
X101624819Y-67923809D02*
X101624819Y-68114285D01*
X101624819Y-68114285D02*
X101672438Y-68209523D01*
X101672438Y-68209523D02*
X101720057Y-68257142D01*
X101720057Y-68257142D02*
X101815295Y-68304761D01*
X101815295Y-68304761D02*
X102053390Y-68304761D01*
X102053390Y-68304761D02*
X102148628Y-68257142D01*
X102148628Y-68257142D02*
X102196247Y-68209523D01*
X102196247Y-68209523D02*
X102243866Y-68114285D01*
X102243866Y-68114285D02*
X102243866Y-67923809D01*
X102243866Y-67923809D02*
X102196247Y-67828571D01*
X102196247Y-67828571D02*
X102148628Y-67780952D01*
X102148628Y-67780952D02*
X102053390Y-67733333D01*
X98554819Y-69733333D02*
X99269104Y-69733333D01*
X99269104Y-69733333D02*
X99411961Y-69780952D01*
X99411961Y-69780952D02*
X99507200Y-69876190D01*
X99507200Y-69876190D02*
X99554819Y-70019047D01*
X99554819Y-70019047D02*
X99554819Y-70114285D01*
X99554819Y-69257142D02*
X98554819Y-69257142D01*
X98554819Y-69257142D02*
X98554819Y-68876190D01*
X98554819Y-68876190D02*
X98602438Y-68780952D01*
X98602438Y-68780952D02*
X98650057Y-68733333D01*
X98650057Y-68733333D02*
X98745295Y-68685714D01*
X98745295Y-68685714D02*
X98888152Y-68685714D01*
X98888152Y-68685714D02*
X98983390Y-68733333D01*
X98983390Y-68733333D02*
X99031009Y-68780952D01*
X99031009Y-68780952D02*
X99078628Y-68876190D01*
X99078628Y-68876190D02*
X99078628Y-69257142D01*
X98983390Y-68114285D02*
X98935771Y-68209523D01*
X98935771Y-68209523D02*
X98888152Y-68257142D01*
X98888152Y-68257142D02*
X98792914Y-68304761D01*
X98792914Y-68304761D02*
X98745295Y-68304761D01*
X98745295Y-68304761D02*
X98650057Y-68257142D01*
X98650057Y-68257142D02*
X98602438Y-68209523D01*
X98602438Y-68209523D02*
X98554819Y-68114285D01*
X98554819Y-68114285D02*
X98554819Y-67923809D01*
X98554819Y-67923809D02*
X98602438Y-67828571D01*
X98602438Y-67828571D02*
X98650057Y-67780952D01*
X98650057Y-67780952D02*
X98745295Y-67733333D01*
X98745295Y-67733333D02*
X98792914Y-67733333D01*
X98792914Y-67733333D02*
X98888152Y-67780952D01*
X98888152Y-67780952D02*
X98935771Y-67828571D01*
X98935771Y-67828571D02*
X98983390Y-67923809D01*
X98983390Y-67923809D02*
X98983390Y-68114285D01*
X98983390Y-68114285D02*
X99031009Y-68209523D01*
X99031009Y-68209523D02*
X99078628Y-68257142D01*
X99078628Y-68257142D02*
X99173866Y-68304761D01*
X99173866Y-68304761D02*
X99364342Y-68304761D01*
X99364342Y-68304761D02*
X99459580Y-68257142D01*
X99459580Y-68257142D02*
X99507200Y-68209523D01*
X99507200Y-68209523D02*
X99554819Y-68114285D01*
X99554819Y-68114285D02*
X99554819Y-67923809D01*
X99554819Y-67923809D02*
X99507200Y-67828571D01*
X99507200Y-67828571D02*
X99459580Y-67780952D01*
X99459580Y-67780952D02*
X99364342Y-67733333D01*
X99364342Y-67733333D02*
X99173866Y-67733333D01*
X99173866Y-67733333D02*
X99078628Y-67780952D01*
X99078628Y-67780952D02*
X99031009Y-67828571D01*
X99031009Y-67828571D02*
X98983390Y-67923809D01*
X95484819Y-69733333D02*
X96199104Y-69733333D01*
X96199104Y-69733333D02*
X96341961Y-69780952D01*
X96341961Y-69780952D02*
X96437200Y-69876190D01*
X96437200Y-69876190D02*
X96484819Y-70019047D01*
X96484819Y-70019047D02*
X96484819Y-70114285D01*
X96484819Y-69257142D02*
X95484819Y-69257142D01*
X95484819Y-69257142D02*
X95484819Y-68876190D01*
X95484819Y-68876190D02*
X95532438Y-68780952D01*
X95532438Y-68780952D02*
X95580057Y-68733333D01*
X95580057Y-68733333D02*
X95675295Y-68685714D01*
X95675295Y-68685714D02*
X95818152Y-68685714D01*
X95818152Y-68685714D02*
X95913390Y-68733333D01*
X95913390Y-68733333D02*
X95961009Y-68780952D01*
X95961009Y-68780952D02*
X96008628Y-68876190D01*
X96008628Y-68876190D02*
X96008628Y-69257142D01*
X95484819Y-68352380D02*
X95484819Y-67685714D01*
X95484819Y-67685714D02*
X96484819Y-68114285D01*
X92364819Y-69713333D02*
X93079104Y-69713333D01*
X93079104Y-69713333D02*
X93221961Y-69760952D01*
X93221961Y-69760952D02*
X93317200Y-69856190D01*
X93317200Y-69856190D02*
X93364819Y-69999047D01*
X93364819Y-69999047D02*
X93364819Y-70094285D01*
X93364819Y-69237142D02*
X92364819Y-69237142D01*
X92364819Y-69237142D02*
X92364819Y-68856190D01*
X92364819Y-68856190D02*
X92412438Y-68760952D01*
X92412438Y-68760952D02*
X92460057Y-68713333D01*
X92460057Y-68713333D02*
X92555295Y-68665714D01*
X92555295Y-68665714D02*
X92698152Y-68665714D01*
X92698152Y-68665714D02*
X92793390Y-68713333D01*
X92793390Y-68713333D02*
X92841009Y-68760952D01*
X92841009Y-68760952D02*
X92888628Y-68856190D01*
X92888628Y-68856190D02*
X92888628Y-69237142D01*
X92364819Y-67808571D02*
X92364819Y-67999047D01*
X92364819Y-67999047D02*
X92412438Y-68094285D01*
X92412438Y-68094285D02*
X92460057Y-68141904D01*
X92460057Y-68141904D02*
X92602914Y-68237142D01*
X92602914Y-68237142D02*
X92793390Y-68284761D01*
X92793390Y-68284761D02*
X93174342Y-68284761D01*
X93174342Y-68284761D02*
X93269580Y-68237142D01*
X93269580Y-68237142D02*
X93317200Y-68189523D01*
X93317200Y-68189523D02*
X93364819Y-68094285D01*
X93364819Y-68094285D02*
X93364819Y-67903809D01*
X93364819Y-67903809D02*
X93317200Y-67808571D01*
X93317200Y-67808571D02*
X93269580Y-67760952D01*
X93269580Y-67760952D02*
X93174342Y-67713333D01*
X93174342Y-67713333D02*
X92936247Y-67713333D01*
X92936247Y-67713333D02*
X92841009Y-67760952D01*
X92841009Y-67760952D02*
X92793390Y-67808571D01*
X92793390Y-67808571D02*
X92745771Y-67903809D01*
X92745771Y-67903809D02*
X92745771Y-68094285D01*
X92745771Y-68094285D02*
X92793390Y-68189523D01*
X92793390Y-68189523D02*
X92841009Y-68237142D01*
X92841009Y-68237142D02*
X92936247Y-68284761D01*
X89144819Y-69703333D02*
X89859104Y-69703333D01*
X89859104Y-69703333D02*
X90001961Y-69750952D01*
X90001961Y-69750952D02*
X90097200Y-69846190D01*
X90097200Y-69846190D02*
X90144819Y-69989047D01*
X90144819Y-69989047D02*
X90144819Y-70084285D01*
X90144819Y-69227142D02*
X89144819Y-69227142D01*
X89144819Y-69227142D02*
X89144819Y-68846190D01*
X89144819Y-68846190D02*
X89192438Y-68750952D01*
X89192438Y-68750952D02*
X89240057Y-68703333D01*
X89240057Y-68703333D02*
X89335295Y-68655714D01*
X89335295Y-68655714D02*
X89478152Y-68655714D01*
X89478152Y-68655714D02*
X89573390Y-68703333D01*
X89573390Y-68703333D02*
X89621009Y-68750952D01*
X89621009Y-68750952D02*
X89668628Y-68846190D01*
X89668628Y-68846190D02*
X89668628Y-69227142D01*
X89144819Y-67750952D02*
X89144819Y-68227142D01*
X89144819Y-68227142D02*
X89621009Y-68274761D01*
X89621009Y-68274761D02*
X89573390Y-68227142D01*
X89573390Y-68227142D02*
X89525771Y-68131904D01*
X89525771Y-68131904D02*
X89525771Y-67893809D01*
X89525771Y-67893809D02*
X89573390Y-67798571D01*
X89573390Y-67798571D02*
X89621009Y-67750952D01*
X89621009Y-67750952D02*
X89716247Y-67703333D01*
X89716247Y-67703333D02*
X89954342Y-67703333D01*
X89954342Y-67703333D02*
X90049580Y-67750952D01*
X90049580Y-67750952D02*
X90097200Y-67798571D01*
X90097200Y-67798571D02*
X90144819Y-67893809D01*
X90144819Y-67893809D02*
X90144819Y-68131904D01*
X90144819Y-68131904D02*
X90097200Y-68227142D01*
X90097200Y-68227142D02*
X90049580Y-68274761D01*
X86074819Y-69693333D02*
X86789104Y-69693333D01*
X86789104Y-69693333D02*
X86931961Y-69740952D01*
X86931961Y-69740952D02*
X87027200Y-69836190D01*
X87027200Y-69836190D02*
X87074819Y-69979047D01*
X87074819Y-69979047D02*
X87074819Y-70074285D01*
X87074819Y-69217142D02*
X86074819Y-69217142D01*
X86074819Y-69217142D02*
X86074819Y-68836190D01*
X86074819Y-68836190D02*
X86122438Y-68740952D01*
X86122438Y-68740952D02*
X86170057Y-68693333D01*
X86170057Y-68693333D02*
X86265295Y-68645714D01*
X86265295Y-68645714D02*
X86408152Y-68645714D01*
X86408152Y-68645714D02*
X86503390Y-68693333D01*
X86503390Y-68693333D02*
X86551009Y-68740952D01*
X86551009Y-68740952D02*
X86598628Y-68836190D01*
X86598628Y-68836190D02*
X86598628Y-69217142D01*
X86408152Y-67788571D02*
X87074819Y-67788571D01*
X86027200Y-68026666D02*
X86741485Y-68264761D01*
X86741485Y-68264761D02*
X86741485Y-67645714D01*
X82954819Y-69713333D02*
X83669104Y-69713333D01*
X83669104Y-69713333D02*
X83811961Y-69760952D01*
X83811961Y-69760952D02*
X83907200Y-69856190D01*
X83907200Y-69856190D02*
X83954819Y-69999047D01*
X83954819Y-69999047D02*
X83954819Y-70094285D01*
X83954819Y-69237142D02*
X82954819Y-69237142D01*
X82954819Y-69237142D02*
X82954819Y-68856190D01*
X82954819Y-68856190D02*
X83002438Y-68760952D01*
X83002438Y-68760952D02*
X83050057Y-68713333D01*
X83050057Y-68713333D02*
X83145295Y-68665714D01*
X83145295Y-68665714D02*
X83288152Y-68665714D01*
X83288152Y-68665714D02*
X83383390Y-68713333D01*
X83383390Y-68713333D02*
X83431009Y-68760952D01*
X83431009Y-68760952D02*
X83478628Y-68856190D01*
X83478628Y-68856190D02*
X83478628Y-69237142D01*
X82954819Y-68332380D02*
X82954819Y-67713333D01*
X82954819Y-67713333D02*
X83335771Y-68046666D01*
X83335771Y-68046666D02*
X83335771Y-67903809D01*
X83335771Y-67903809D02*
X83383390Y-67808571D01*
X83383390Y-67808571D02*
X83431009Y-67760952D01*
X83431009Y-67760952D02*
X83526247Y-67713333D01*
X83526247Y-67713333D02*
X83764342Y-67713333D01*
X83764342Y-67713333D02*
X83859580Y-67760952D01*
X83859580Y-67760952D02*
X83907200Y-67808571D01*
X83907200Y-67808571D02*
X83954819Y-67903809D01*
X83954819Y-67903809D02*
X83954819Y-68189523D01*
X83954819Y-68189523D02*
X83907200Y-68284761D01*
X83907200Y-68284761D02*
X83859580Y-68332380D01*
X78074819Y-76453333D02*
X78789104Y-76453333D01*
X78789104Y-76453333D02*
X78931961Y-76500952D01*
X78931961Y-76500952D02*
X79027200Y-76596190D01*
X79027200Y-76596190D02*
X79074819Y-76739047D01*
X79074819Y-76739047D02*
X79074819Y-76834285D01*
X79074819Y-75977142D02*
X78074819Y-75977142D01*
X78074819Y-75977142D02*
X78074819Y-75596190D01*
X78074819Y-75596190D02*
X78122438Y-75500952D01*
X78122438Y-75500952D02*
X78170057Y-75453333D01*
X78170057Y-75453333D02*
X78265295Y-75405714D01*
X78265295Y-75405714D02*
X78408152Y-75405714D01*
X78408152Y-75405714D02*
X78503390Y-75453333D01*
X78503390Y-75453333D02*
X78551009Y-75500952D01*
X78551009Y-75500952D02*
X78598628Y-75596190D01*
X78598628Y-75596190D02*
X78598628Y-75977142D01*
X78170057Y-75024761D02*
X78122438Y-74977142D01*
X78122438Y-74977142D02*
X78074819Y-74881904D01*
X78074819Y-74881904D02*
X78074819Y-74643809D01*
X78074819Y-74643809D02*
X78122438Y-74548571D01*
X78122438Y-74548571D02*
X78170057Y-74500952D01*
X78170057Y-74500952D02*
X78265295Y-74453333D01*
X78265295Y-74453333D02*
X78360533Y-74453333D01*
X78360533Y-74453333D02*
X78503390Y-74500952D01*
X78503390Y-74500952D02*
X79074819Y-75072380D01*
X79074819Y-75072380D02*
X79074819Y-74453333D01*
X111276666Y-57634819D02*
X111276666Y-58349104D01*
X111276666Y-58349104D02*
X111229047Y-58491961D01*
X111229047Y-58491961D02*
X111133809Y-58587200D01*
X111133809Y-58587200D02*
X110990952Y-58634819D01*
X110990952Y-58634819D02*
X110895714Y-58634819D01*
X111752857Y-58634819D02*
X111752857Y-57634819D01*
X111752857Y-57634819D02*
X112133809Y-57634819D01*
X112133809Y-57634819D02*
X112229047Y-57682438D01*
X112229047Y-57682438D02*
X112276666Y-57730057D01*
X112276666Y-57730057D02*
X112324285Y-57825295D01*
X112324285Y-57825295D02*
X112324285Y-57968152D01*
X112324285Y-57968152D02*
X112276666Y-58063390D01*
X112276666Y-58063390D02*
X112229047Y-58111009D01*
X112229047Y-58111009D02*
X112133809Y-58158628D01*
X112133809Y-58158628D02*
X111752857Y-58158628D01*
X113276666Y-58634819D02*
X112705238Y-58634819D01*
X112990952Y-58634819D02*
X112990952Y-57634819D01*
X112990952Y-57634819D02*
X112895714Y-57777676D01*
X112895714Y-57777676D02*
X112800476Y-57872914D01*
X112800476Y-57872914D02*
X112705238Y-57920533D01*
D13*
X93562618Y-60704318D02*
X93562618Y-59434318D01*
X93562618Y-59434318D02*
X93864999Y-59434318D01*
X93864999Y-59434318D02*
X94046428Y-59494794D01*
X94046428Y-59494794D02*
X94167380Y-59615746D01*
X94167380Y-59615746D02*
X94227857Y-59736699D01*
X94227857Y-59736699D02*
X94288333Y-59978603D01*
X94288333Y-59978603D02*
X94288333Y-60160032D01*
X94288333Y-60160032D02*
X94227857Y-60401937D01*
X94227857Y-60401937D02*
X94167380Y-60522889D01*
X94167380Y-60522889D02*
X94046428Y-60643842D01*
X94046428Y-60643842D02*
X93864999Y-60704318D01*
X93864999Y-60704318D02*
X93562618Y-60704318D01*
X94711666Y-59434318D02*
X95497857Y-59434318D01*
X95497857Y-59434318D02*
X95074523Y-59918127D01*
X95074523Y-59918127D02*
X95255952Y-59918127D01*
X95255952Y-59918127D02*
X95376904Y-59978603D01*
X95376904Y-59978603D02*
X95437380Y-60039080D01*
X95437380Y-60039080D02*
X95497857Y-60160032D01*
X95497857Y-60160032D02*
X95497857Y-60462413D01*
X95497857Y-60462413D02*
X95437380Y-60583365D01*
X95437380Y-60583365D02*
X95376904Y-60643842D01*
X95376904Y-60643842D02*
X95255952Y-60704318D01*
X95255952Y-60704318D02*
X94893095Y-60704318D01*
X94893095Y-60704318D02*
X94772142Y-60643842D01*
X94772142Y-60643842D02*
X94711666Y-60583365D01*
X104032618Y-60624318D02*
X104032618Y-59354318D01*
X104032618Y-59354318D02*
X104334999Y-59354318D01*
X104334999Y-59354318D02*
X104516428Y-59414794D01*
X104516428Y-59414794D02*
X104637380Y-59535746D01*
X104637380Y-59535746D02*
X104697857Y-59656699D01*
X104697857Y-59656699D02*
X104758333Y-59898603D01*
X104758333Y-59898603D02*
X104758333Y-60080032D01*
X104758333Y-60080032D02*
X104697857Y-60321937D01*
X104697857Y-60321937D02*
X104637380Y-60442889D01*
X104637380Y-60442889D02*
X104516428Y-60563842D01*
X104516428Y-60563842D02*
X104334999Y-60624318D01*
X104334999Y-60624318D02*
X104032618Y-60624318D01*
X105242142Y-59475270D02*
X105302618Y-59414794D01*
X105302618Y-59414794D02*
X105423571Y-59354318D01*
X105423571Y-59354318D02*
X105725952Y-59354318D01*
X105725952Y-59354318D02*
X105846904Y-59414794D01*
X105846904Y-59414794D02*
X105907380Y-59475270D01*
X105907380Y-59475270D02*
X105967857Y-59596222D01*
X105967857Y-59596222D02*
X105967857Y-59717175D01*
X105967857Y-59717175D02*
X105907380Y-59898603D01*
X105907380Y-59898603D02*
X105181666Y-60624318D01*
X105181666Y-60624318D02*
X105967857Y-60624318D01*
X99092618Y-60604318D02*
X99092618Y-59334318D01*
X99092618Y-59334318D02*
X99394999Y-59334318D01*
X99394999Y-59334318D02*
X99576428Y-59394794D01*
X99576428Y-59394794D02*
X99697380Y-59515746D01*
X99697380Y-59515746D02*
X99757857Y-59636699D01*
X99757857Y-59636699D02*
X99818333Y-59878603D01*
X99818333Y-59878603D02*
X99818333Y-60060032D01*
X99818333Y-60060032D02*
X99757857Y-60301937D01*
X99757857Y-60301937D02*
X99697380Y-60422889D01*
X99697380Y-60422889D02*
X99576428Y-60543842D01*
X99576428Y-60543842D02*
X99394999Y-60604318D01*
X99394999Y-60604318D02*
X99092618Y-60604318D01*
X101027857Y-60604318D02*
X100302142Y-60604318D01*
X100664999Y-60604318D02*
X100664999Y-59334318D01*
X100664999Y-59334318D02*
X100544047Y-59515746D01*
X100544047Y-59515746D02*
X100423095Y-59636699D01*
X100423095Y-59636699D02*
X100302142Y-59697175D01*
D14*
%TO.C,R16*%
X105230000Y-71350000D02*
X105230000Y-70580000D01*
X105230000Y-63270000D02*
X105230000Y-64040000D01*
X103860000Y-70580000D02*
X106600000Y-70580000D01*
X106600000Y-64040000D01*
X103860000Y-64040000D01*
X103860000Y-70580000D01*
%TO.C,R15*%
X102170000Y-71350000D02*
X102170000Y-70580000D01*
X102170000Y-63270000D02*
X102170000Y-64040000D01*
X100800000Y-70580000D02*
X103540000Y-70580000D01*
X103540000Y-64040000D01*
X100800000Y-64040000D01*
X100800000Y-70580000D01*
%TO.C,R14*%
X99100000Y-71350000D02*
X99100000Y-70580000D01*
X99100000Y-63270000D02*
X99100000Y-64040000D01*
X97730000Y-70580000D02*
X100470000Y-70580000D01*
X100470000Y-64040000D01*
X97730000Y-64040000D01*
X97730000Y-70580000D01*
%TO.C,R13*%
X96030000Y-71350000D02*
X96030000Y-70580000D01*
X96030000Y-63270000D02*
X96030000Y-64040000D01*
X94660000Y-70580000D02*
X97400000Y-70580000D01*
X97400000Y-64040000D01*
X94660000Y-64040000D01*
X94660000Y-70580000D01*
%TO.C,U2*%
X96582500Y-50740000D02*
X96102500Y-50740000D01*
X96342500Y-50410000D01*
X96582500Y-50740000D01*
G36*
X96582500Y-50740000D02*
G01*
X96102500Y-50740000D01*
X96342500Y-50410000D01*
X96582500Y-50740000D01*
G37*
X94980000Y-47340000D02*
X94205000Y-47340000D01*
X94980000Y-47340000D02*
X95755000Y-47340000D01*
X94980000Y-50460000D02*
X94205000Y-50460000D01*
X94980000Y-50460000D02*
X95755000Y-50460000D01*
%TO.C,SW1*%
X88610000Y-34250000D02*
X95150000Y-34250000D01*
X95150000Y-36990000D01*
X88610000Y-36990000D01*
X88610000Y-34250000D01*
X95920000Y-35620000D02*
X95150000Y-35620000D01*
X87840000Y-35620000D02*
X88610000Y-35620000D01*
%TO.C,R12*%
X91580000Y-70580000D02*
X94320000Y-70580000D01*
X94320000Y-64040000D01*
X91580000Y-64040000D01*
X91580000Y-70580000D01*
X92950000Y-63270000D02*
X92950000Y-64040000D01*
X92950000Y-71350000D02*
X92950000Y-70580000D01*
%TO.C,R11*%
X88380000Y-70580000D02*
X91120000Y-70580000D01*
X91120000Y-64040000D01*
X88380000Y-64040000D01*
X88380000Y-70580000D01*
X89750000Y-63270000D02*
X89750000Y-64040000D01*
X89750000Y-71350000D02*
X89750000Y-70580000D01*
%TO.C,R9*%
X85270000Y-70580000D02*
X88010000Y-70580000D01*
X88010000Y-64040000D01*
X85270000Y-64040000D01*
X85270000Y-70580000D01*
X86640000Y-63270000D02*
X86640000Y-64040000D01*
X86640000Y-71350000D02*
X86640000Y-70580000D01*
%TO.C,R8*%
X82130000Y-70580000D02*
X84870000Y-70580000D01*
X84870000Y-64040000D01*
X82130000Y-64040000D01*
X82130000Y-70580000D01*
X83500000Y-63270000D02*
X83500000Y-64040000D01*
X83500000Y-71350000D02*
X83500000Y-70580000D01*
%TO.C,R7*%
X79060000Y-70580000D02*
X81800000Y-70580000D01*
X81800000Y-64040000D01*
X79060000Y-64040000D01*
X79060000Y-70580000D01*
X80430000Y-63270000D02*
X80430000Y-64040000D01*
X80430000Y-71350000D02*
X80430000Y-70580000D01*
%TO.C,JP14*%
X112790000Y-66465000D02*
X112790000Y-67955000D01*
X111927923Y-66465000D02*
X112790000Y-66465000D01*
X109160000Y-68020000D02*
X112790000Y-68020000D01*
X109160000Y-68020000D02*
X109673292Y-68020000D01*
X109160000Y-68020000D02*
X109160000Y-67955000D01*
X109160000Y-67210000D02*
X109160000Y-66400000D01*
X109160000Y-66400000D02*
X110340000Y-66400000D01*
%TO.C,JP13*%
X112790000Y-62865000D02*
X112790000Y-64355000D01*
X111927923Y-62865000D02*
X112790000Y-62865000D01*
X109160000Y-64420000D02*
X112790000Y-64420000D01*
X109160000Y-64420000D02*
X109673292Y-64420000D01*
X109160000Y-64420000D02*
X109160000Y-64355000D01*
X109160000Y-63610000D02*
X109160000Y-62800000D01*
X109160000Y-62800000D02*
X110340000Y-62800000D01*
%TO.C,JP12*%
X86650000Y-39225000D02*
X86650000Y-37735000D01*
X87512077Y-39225000D02*
X86650000Y-39225000D01*
X90280000Y-37670000D02*
X86650000Y-37670000D01*
X90280000Y-37670000D02*
X89766708Y-37670000D01*
X90280000Y-37670000D02*
X90280000Y-37735000D01*
X90280000Y-38480000D02*
X90280000Y-39290000D01*
X90280000Y-39290000D02*
X89100000Y-39290000D01*
%TO.C,JP11*%
X86630000Y-41865000D02*
X86630000Y-40375000D01*
X87492077Y-41865000D02*
X86630000Y-41865000D01*
X90260000Y-40310000D02*
X86630000Y-40310000D01*
X90260000Y-40310000D02*
X89746708Y-40310000D01*
X90260000Y-40310000D02*
X90260000Y-40375000D01*
X90260000Y-41120000D02*
X90260000Y-41930000D01*
X90260000Y-41930000D02*
X89080000Y-41930000D01*
%TO.C,JP10*%
X104445000Y-73920000D02*
X105935000Y-73920000D01*
X104445000Y-74782077D02*
X104445000Y-73920000D01*
X106000000Y-77550000D02*
X106000000Y-73920000D01*
X106000000Y-77550000D02*
X106000000Y-77036708D01*
X106000000Y-77550000D02*
X105935000Y-77550000D01*
X105190000Y-77550000D02*
X104380000Y-77550000D01*
X104380000Y-77550000D02*
X104380000Y-76370000D01*
%TO.C,JP9*%
X101425000Y-73920000D02*
X102915000Y-73920000D01*
X101425000Y-74782077D02*
X101425000Y-73920000D01*
X102980000Y-77550000D02*
X102980000Y-73920000D01*
X102980000Y-77550000D02*
X102980000Y-77036708D01*
X102980000Y-77550000D02*
X102915000Y-77550000D01*
X102170000Y-77550000D02*
X101360000Y-77550000D01*
X101360000Y-77550000D02*
X101360000Y-76370000D01*
%TO.C,JP8*%
X98315000Y-73920000D02*
X99805000Y-73920000D01*
X98315000Y-74782077D02*
X98315000Y-73920000D01*
X99870000Y-77550000D02*
X99870000Y-73920000D01*
X99870000Y-77550000D02*
X99870000Y-77036708D01*
X99870000Y-77550000D02*
X99805000Y-77550000D01*
X99060000Y-77550000D02*
X98250000Y-77550000D01*
X98250000Y-77550000D02*
X98250000Y-76370000D01*
%TO.C,JP7*%
X95225000Y-73920000D02*
X96715000Y-73920000D01*
X95225000Y-74782077D02*
X95225000Y-73920000D01*
X96780000Y-77550000D02*
X96780000Y-73920000D01*
X96780000Y-77550000D02*
X96780000Y-77036708D01*
X96780000Y-77550000D02*
X96715000Y-77550000D01*
X95970000Y-77550000D02*
X95160000Y-77550000D01*
X95160000Y-77550000D02*
X95160000Y-76370000D01*
%TO.C,JP6*%
X92165000Y-73920000D02*
X93655000Y-73920000D01*
X92165000Y-74782077D02*
X92165000Y-73920000D01*
X93720000Y-77550000D02*
X93720000Y-73920000D01*
X93720000Y-77550000D02*
X93720000Y-77036708D01*
X93720000Y-77550000D02*
X93655000Y-77550000D01*
X92910000Y-77550000D02*
X92100000Y-77550000D01*
X92100000Y-77550000D02*
X92100000Y-76370000D01*
%TO.C,JP5*%
X88945000Y-73920000D02*
X90435000Y-73920000D01*
X88945000Y-74782077D02*
X88945000Y-73920000D01*
X90500000Y-77550000D02*
X90500000Y-73920000D01*
X90500000Y-77550000D02*
X90500000Y-77036708D01*
X90500000Y-77550000D02*
X90435000Y-77550000D01*
X89690000Y-77550000D02*
X88880000Y-77550000D01*
X88880000Y-77550000D02*
X88880000Y-76370000D01*
%TO.C,JP4*%
X85875000Y-73920000D02*
X87365000Y-73920000D01*
X85875000Y-74782077D02*
X85875000Y-73920000D01*
X87430000Y-77550000D02*
X87430000Y-73920000D01*
X87430000Y-77550000D02*
X87430000Y-77036708D01*
X87430000Y-77550000D02*
X87365000Y-77550000D01*
X86620000Y-77550000D02*
X85810000Y-77550000D01*
X85810000Y-77550000D02*
X85810000Y-76370000D01*
%TO.C,JP3*%
X82745000Y-73920000D02*
X84235000Y-73920000D01*
X82745000Y-74782077D02*
X82745000Y-73920000D01*
X84300000Y-77550000D02*
X84300000Y-73920000D01*
X84300000Y-77550000D02*
X84300000Y-77036708D01*
X84300000Y-77550000D02*
X84235000Y-77550000D01*
X83490000Y-77550000D02*
X82680000Y-77550000D01*
X82680000Y-77550000D02*
X82680000Y-76370000D01*
%TO.C,JP2*%
X79705000Y-73920000D02*
X81195000Y-73920000D01*
X79705000Y-74782077D02*
X79705000Y-73920000D01*
X81260000Y-77550000D02*
X81260000Y-73920000D01*
X81260000Y-77550000D02*
X81260000Y-77036708D01*
X81260000Y-77550000D02*
X81195000Y-77550000D01*
X80450000Y-77550000D02*
X79640000Y-77550000D01*
X79640000Y-77550000D02*
X79640000Y-76370000D01*
%TO.C,JP1*%
X117155000Y-57505000D02*
X117155000Y-58995000D01*
X116292923Y-57505000D02*
X117155000Y-57505000D01*
X113525000Y-59060000D02*
X117155000Y-59060000D01*
X113525000Y-59060000D02*
X114038292Y-59060000D01*
X113525000Y-59060000D02*
X113525000Y-58995000D01*
X113525000Y-58250000D02*
X113525000Y-57440000D01*
X113525000Y-57440000D02*
X114705000Y-57440000D01*
D10*
%TO.C,D3*%
X96764000Y-57536000D02*
X96727000Y-57573000D01*
X96298000Y-57573000D01*
X96763000Y-57108000D01*
X96764000Y-57108000D01*
X96764000Y-57536000D01*
G36*
X96764000Y-57536000D02*
G01*
X96727000Y-57573000D01*
X96298000Y-57573000D01*
X96763000Y-57108000D01*
X96764000Y-57108000D01*
X96764000Y-57536000D01*
G37*
%TO.C,D2*%
X107544000Y-57536000D02*
X107507000Y-57573000D01*
X107078000Y-57573000D01*
X107543000Y-57108000D01*
X107544000Y-57108000D01*
X107544000Y-57536000D01*
G36*
X107544000Y-57536000D02*
G01*
X107507000Y-57573000D01*
X107078000Y-57573000D01*
X107543000Y-57108000D01*
X107544000Y-57108000D01*
X107544000Y-57536000D01*
G37*
%TO.C,D1*%
X102164000Y-57536000D02*
X102127000Y-57573000D01*
X101698000Y-57573000D01*
X102163000Y-57108000D01*
X102164000Y-57108000D01*
X102164000Y-57536000D01*
G36*
X102164000Y-57536000D02*
G01*
X102127000Y-57573000D01*
X101698000Y-57573000D01*
X102163000Y-57108000D01*
X102164000Y-57108000D01*
X102164000Y-57536000D01*
G37*
%TD*%
M02*
