%TF.GenerationSoftware,KiCad,Pcbnew,9.0.2*%
%TF.CreationDate,2025-07-17T21:10:21+02:00*%
%TF.ProjectId,Ligther,4c696774-6865-4722-9e6b-696361645f70,rev?*%
%TF.SameCoordinates,Original*%
%TF.FileFunction,Soldermask,Top*%
%TF.FilePolarity,Negative*%
%FSLAX46Y46*%
G04 Gerber Fmt 4.6, Leading zero omitted, Abs format (unit mm)*
G04 Created by KiCad (PCBNEW 9.0.2) date 2025-07-17 21:10:21*
%MOMM*%
%LPD*%
G01*
G04 APERTURE LIST*
G04 Aperture macros list*
%AMRoundRect*
0 Rectangle with rounded corners*
0 $1 Rounding radius*
0 $2 $3 $4 $5 $6 $7 $8 $9 X,Y pos of 4 corners*
0 Add a 4 corners polygon primitive as box body*
4,1,4,$2,$3,$4,$5,$6,$7,$8,$9,$2,$3,0*
0 Add four circle primitives for the rounded corners*
1,1,$1+$1,$2,$3*
1,1,$1+$1,$4,$5*
1,1,$1+$1,$6,$7*
1,1,$1+$1,$8,$9*
0 Add four rect primitives between the rounded corners*
20,1,$1+$1,$2,$3,$4,$5,0*
20,1,$1+$1,$4,$5,$6,$7,0*
20,1,$1+$1,$6,$7,$8,$9,0*
20,1,$1+$1,$8,$9,$2,$3,0*%
%AMFreePoly0*
4,1,17,0.300000,0.325000,1.250000,0.325000,1.250000,-1.125000,0.650000,-1.125000,0.650000,-0.325000,0.250000,-0.325000,0.250000,-1.125000,-0.250000,-1.125000,-0.250000,-0.325000,-0.650000,-0.325000,-0.650000,-1.125000,-1.250000,-1.125000,-1.250000,0.325000,-0.300000,0.325000,-0.300000,0.575000,0.300000,0.575000,0.300000,0.325000,0.300000,0.325000,$1*%
G04 Aperture macros list end*
%ADD10C,1.600000*%
%ADD11RoundRect,0.150000X0.650000X0.150000X-0.650000X0.150000X-0.650000X-0.150000X0.650000X-0.150000X0*%
%ADD12RoundRect,0.250000X0.550000X-0.550000X0.550000X0.550000X-0.550000X0.550000X-0.550000X-0.550000X0*%
%ADD13O,2.000000X1.905000*%
%ADD14R,2.000000X1.905000*%
%ADD15O,1.050000X1.500000*%
%ADD16R,1.050000X1.500000*%
%ADD17O,1.905000X2.000000*%
%ADD18R,1.905000X2.000000*%
%ADD19C,1.000000*%
%ADD20R,1.000000X1.000000*%
%ADD21FreePoly0,0.000000*%
%ADD22R,0.900000X1.350000*%
%ADD23R,0.500000X1.050000*%
G04 APERTURE END LIST*
D10*
%TO.C,C2*%
X118120000Y-45560000D03*
X118120000Y-40560000D03*
%TD*%
%TO.C,R16*%
X105230000Y-72390000D03*
X105230000Y-62230000D03*
%TD*%
%TO.C,R15*%
X102170000Y-72390000D03*
X102170000Y-62230000D03*
%TD*%
%TO.C,R14*%
X99100000Y-72390000D03*
X99100000Y-62230000D03*
%TD*%
%TO.C,R13*%
X96030000Y-72390000D03*
X96030000Y-62230000D03*
%TD*%
D11*
%TO.C,U2*%
X93830000Y-49850000D03*
X93830000Y-48900000D03*
X93830000Y-47950000D03*
X96130000Y-47950000D03*
X96130000Y-48900000D03*
X96130000Y-49850000D03*
%TD*%
D10*
%TO.C,U1*%
X120580000Y-48120000D03*
X118040000Y-48120000D03*
X115500000Y-48120000D03*
X112960000Y-48120000D03*
X112960000Y-55740000D03*
X115500000Y-55740000D03*
X118040000Y-55740000D03*
D12*
X120580000Y-55740000D03*
%TD*%
D10*
%TO.C,SW1*%
X96960000Y-35620000D03*
X86800000Y-35620000D03*
%TD*%
%TO.C,R12*%
X92950000Y-62230000D03*
X92950000Y-72390000D03*
%TD*%
%TO.C,R11*%
X89750000Y-62230000D03*
X89750000Y-72390000D03*
%TD*%
%TO.C,R10*%
X121790000Y-74160000D03*
X111630000Y-74160000D03*
%TD*%
%TO.C,R9*%
X86640000Y-62230000D03*
X86640000Y-72390000D03*
%TD*%
%TO.C,R8*%
X83500000Y-62230000D03*
X83500000Y-72390000D03*
%TD*%
%TO.C,R7*%
X80430000Y-62230000D03*
X80430000Y-72390000D03*
%TD*%
%TO.C,R6*%
X110130000Y-51480000D03*
X99970000Y-51480000D03*
%TD*%
%TO.C,R5*%
X98500000Y-43990000D03*
X88340000Y-43990000D03*
%TD*%
%TO.C,R4*%
X110010000Y-48070000D03*
X99850000Y-48070000D03*
%TD*%
%TO.C,R3*%
X99280000Y-35610000D03*
X109440000Y-35610000D03*
%TD*%
%TO.C,R2*%
X115540000Y-61050000D03*
X115540000Y-71210000D03*
%TD*%
%TO.C,R1*%
X102320000Y-39220000D03*
X92160000Y-39220000D03*
%TD*%
D13*
%TO.C,Q4*%
X119170000Y-64590000D03*
X119170000Y-67130000D03*
D14*
X119170000Y-69670000D03*
%TD*%
D15*
%TO.C,Q3*%
X114760000Y-41360000D03*
X113490000Y-41360000D03*
D16*
X112220000Y-41360000D03*
%TD*%
D17*
%TO.C,Q2*%
X118540000Y-35570000D03*
X116000000Y-35570000D03*
D18*
X113460000Y-35570000D03*
%TD*%
D17*
%TO.C,Q1*%
X107400000Y-42420000D03*
X104860000Y-42420000D03*
D18*
X102320000Y-42420000D03*
%TD*%
D19*
%TO.C,JP14*%
X111610000Y-67210000D03*
D20*
X110340000Y-67210000D03*
%TD*%
D19*
%TO.C,JP13*%
X111610000Y-63610000D03*
D20*
X110340000Y-63610000D03*
%TD*%
D19*
%TO.C,JP12*%
X87830000Y-38480000D03*
D20*
X89100000Y-38480000D03*
%TD*%
D19*
%TO.C,JP11*%
X87810000Y-41120000D03*
D20*
X89080000Y-41120000D03*
%TD*%
D19*
%TO.C,JP10*%
X105190000Y-75100000D03*
D20*
X105190000Y-76370000D03*
%TD*%
D19*
%TO.C,JP9*%
X102170000Y-75100000D03*
D20*
X102170000Y-76370000D03*
%TD*%
D19*
%TO.C,JP8*%
X99060000Y-75100000D03*
D20*
X99060000Y-76370000D03*
%TD*%
D19*
%TO.C,JP7*%
X95970000Y-75100000D03*
D20*
X95970000Y-76370000D03*
%TD*%
D19*
%TO.C,JP6*%
X92910000Y-75100000D03*
D20*
X92910000Y-76370000D03*
%TD*%
D19*
%TO.C,JP5*%
X89690000Y-75100000D03*
D20*
X89690000Y-76370000D03*
%TD*%
D19*
%TO.C,JP4*%
X86620000Y-75100000D03*
D20*
X86620000Y-76370000D03*
%TD*%
D19*
%TO.C,JP3*%
X83490000Y-75100000D03*
D20*
X83490000Y-76370000D03*
%TD*%
D19*
%TO.C,JP2*%
X80450000Y-75100000D03*
D20*
X80450000Y-76370000D03*
%TD*%
D19*
%TO.C,JP1*%
X115975000Y-58250000D03*
D20*
X114705000Y-58250000D03*
%TD*%
D21*
%TO.C,D3*%
X94600000Y-56450000D03*
D22*
X95550000Y-55000000D03*
D23*
X94600000Y-54850000D03*
D22*
X93650000Y-55000000D03*
%TD*%
D21*
%TO.C,D2*%
X105380000Y-56450000D03*
D22*
X106330000Y-55000000D03*
D23*
X105380000Y-54850000D03*
D22*
X104430000Y-55000000D03*
%TD*%
D21*
%TO.C,D1*%
X100000000Y-56450000D03*
D22*
X100950000Y-55000000D03*
D23*
X100000000Y-54850000D03*
D22*
X99050000Y-55000000D03*
%TD*%
D10*
%TO.C,C1*%
X121020000Y-58270000D03*
X118520000Y-58270000D03*
%TD*%
M02*
