%TF.GenerationSoftware,KiCad,Pcbnew,9.0.2*%
%TF.CreationDate,2025-07-17T21:10:21+02:00*%
%TF.ProjectId,Ligther,4c696774-6865-4722-9e6b-696361645f70,rev?*%
%TF.SameCoordinates,Original*%
%TF.FileFunction,Legend,Bot*%
%TF.FilePolarity,Positive*%
%FSLAX46Y46*%
G04 Gerber Fmt 4.6, Leading zero omitted, Abs format (unit mm)*
G04 Created by KiCad (PCBNEW 9.0.2) date 2025-07-17 21:10:21*
%MOMM*%
%LPD*%
G01*
G04 APERTURE LIST*
%ADD10C,0.150000*%
%ADD11C,0.120000*%
G04 APERTURE END LIST*
D10*
X118539580Y-42853333D02*
X118587200Y-42805714D01*
X118587200Y-42805714D02*
X118634819Y-42662857D01*
X118634819Y-42662857D02*
X118634819Y-42567619D01*
X118634819Y-42567619D02*
X118587200Y-42424762D01*
X118587200Y-42424762D02*
X118491961Y-42329524D01*
X118491961Y-42329524D02*
X118396723Y-42281905D01*
X118396723Y-42281905D02*
X118206247Y-42234286D01*
X118206247Y-42234286D02*
X118063390Y-42234286D01*
X118063390Y-42234286D02*
X117872914Y-42281905D01*
X117872914Y-42281905D02*
X117777676Y-42329524D01*
X117777676Y-42329524D02*
X117682438Y-42424762D01*
X117682438Y-42424762D02*
X117634819Y-42567619D01*
X117634819Y-42567619D02*
X117634819Y-42662857D01*
X117634819Y-42662857D02*
X117682438Y-42805714D01*
X117682438Y-42805714D02*
X117730057Y-42853333D01*
X117730057Y-43234286D02*
X117682438Y-43281905D01*
X117682438Y-43281905D02*
X117634819Y-43377143D01*
X117634819Y-43377143D02*
X117634819Y-43615238D01*
X117634819Y-43615238D02*
X117682438Y-43710476D01*
X117682438Y-43710476D02*
X117730057Y-43758095D01*
X117730057Y-43758095D02*
X117825295Y-43805714D01*
X117825295Y-43805714D02*
X117920533Y-43805714D01*
X117920533Y-43805714D02*
X118063390Y-43758095D01*
X118063390Y-43758095D02*
X118634819Y-43186667D01*
X118634819Y-43186667D02*
X118634819Y-43805714D01*
X118854819Y-51188095D02*
X119664342Y-51188095D01*
X119664342Y-51188095D02*
X119759580Y-51235714D01*
X119759580Y-51235714D02*
X119807200Y-51283333D01*
X119807200Y-51283333D02*
X119854819Y-51378571D01*
X119854819Y-51378571D02*
X119854819Y-51569047D01*
X119854819Y-51569047D02*
X119807200Y-51664285D01*
X119807200Y-51664285D02*
X119759580Y-51711904D01*
X119759580Y-51711904D02*
X119664342Y-51759523D01*
X119664342Y-51759523D02*
X118854819Y-51759523D01*
X119854819Y-52759523D02*
X119854819Y-52188095D01*
X119854819Y-52473809D02*
X118854819Y-52473809D01*
X118854819Y-52473809D02*
X118997676Y-52378571D01*
X118997676Y-52378571D02*
X119092914Y-52283333D01*
X119092914Y-52283333D02*
X119140533Y-52188095D01*
X117352857Y-74614819D02*
X117686190Y-74138628D01*
X117924285Y-74614819D02*
X117924285Y-73614819D01*
X117924285Y-73614819D02*
X117543333Y-73614819D01*
X117543333Y-73614819D02*
X117448095Y-73662438D01*
X117448095Y-73662438D02*
X117400476Y-73710057D01*
X117400476Y-73710057D02*
X117352857Y-73805295D01*
X117352857Y-73805295D02*
X117352857Y-73948152D01*
X117352857Y-73948152D02*
X117400476Y-74043390D01*
X117400476Y-74043390D02*
X117448095Y-74091009D01*
X117448095Y-74091009D02*
X117543333Y-74138628D01*
X117543333Y-74138628D02*
X117924285Y-74138628D01*
X116400476Y-74614819D02*
X116971904Y-74614819D01*
X116686190Y-74614819D02*
X116686190Y-73614819D01*
X116686190Y-73614819D02*
X116781428Y-73757676D01*
X116781428Y-73757676D02*
X116876666Y-73852914D01*
X116876666Y-73852914D02*
X116971904Y-73900533D01*
X115781428Y-73614819D02*
X115686190Y-73614819D01*
X115686190Y-73614819D02*
X115590952Y-73662438D01*
X115590952Y-73662438D02*
X115543333Y-73710057D01*
X115543333Y-73710057D02*
X115495714Y-73805295D01*
X115495714Y-73805295D02*
X115448095Y-73995771D01*
X115448095Y-73995771D02*
X115448095Y-74233866D01*
X115448095Y-74233866D02*
X115495714Y-74424342D01*
X115495714Y-74424342D02*
X115543333Y-74519580D01*
X115543333Y-74519580D02*
X115590952Y-74567200D01*
X115590952Y-74567200D02*
X115686190Y-74614819D01*
X115686190Y-74614819D02*
X115781428Y-74614819D01*
X115781428Y-74614819D02*
X115876666Y-74567200D01*
X115876666Y-74567200D02*
X115924285Y-74519580D01*
X115924285Y-74519580D02*
X115971904Y-74424342D01*
X115971904Y-74424342D02*
X116019523Y-74233866D01*
X116019523Y-74233866D02*
X116019523Y-73995771D01*
X116019523Y-73995771D02*
X115971904Y-73805295D01*
X115971904Y-73805295D02*
X115924285Y-73710057D01*
X115924285Y-73710057D02*
X115876666Y-73662438D01*
X115876666Y-73662438D02*
X115781428Y-73614819D01*
X105216666Y-51954819D02*
X105549999Y-51478628D01*
X105788094Y-51954819D02*
X105788094Y-50954819D01*
X105788094Y-50954819D02*
X105407142Y-50954819D01*
X105407142Y-50954819D02*
X105311904Y-51002438D01*
X105311904Y-51002438D02*
X105264285Y-51050057D01*
X105264285Y-51050057D02*
X105216666Y-51145295D01*
X105216666Y-51145295D02*
X105216666Y-51288152D01*
X105216666Y-51288152D02*
X105264285Y-51383390D01*
X105264285Y-51383390D02*
X105311904Y-51431009D01*
X105311904Y-51431009D02*
X105407142Y-51478628D01*
X105407142Y-51478628D02*
X105788094Y-51478628D01*
X104359523Y-50954819D02*
X104549999Y-50954819D01*
X104549999Y-50954819D02*
X104645237Y-51002438D01*
X104645237Y-51002438D02*
X104692856Y-51050057D01*
X104692856Y-51050057D02*
X104788094Y-51192914D01*
X104788094Y-51192914D02*
X104835713Y-51383390D01*
X104835713Y-51383390D02*
X104835713Y-51764342D01*
X104835713Y-51764342D02*
X104788094Y-51859580D01*
X104788094Y-51859580D02*
X104740475Y-51907200D01*
X104740475Y-51907200D02*
X104645237Y-51954819D01*
X104645237Y-51954819D02*
X104454761Y-51954819D01*
X104454761Y-51954819D02*
X104359523Y-51907200D01*
X104359523Y-51907200D02*
X104311904Y-51859580D01*
X104311904Y-51859580D02*
X104264285Y-51764342D01*
X104264285Y-51764342D02*
X104264285Y-51526247D01*
X104264285Y-51526247D02*
X104311904Y-51431009D01*
X104311904Y-51431009D02*
X104359523Y-51383390D01*
X104359523Y-51383390D02*
X104454761Y-51335771D01*
X104454761Y-51335771D02*
X104645237Y-51335771D01*
X104645237Y-51335771D02*
X104740475Y-51383390D01*
X104740475Y-51383390D02*
X104788094Y-51431009D01*
X104788094Y-51431009D02*
X104835713Y-51526247D01*
X93586666Y-44444819D02*
X93919999Y-43968628D01*
X94158094Y-44444819D02*
X94158094Y-43444819D01*
X94158094Y-43444819D02*
X93777142Y-43444819D01*
X93777142Y-43444819D02*
X93681904Y-43492438D01*
X93681904Y-43492438D02*
X93634285Y-43540057D01*
X93634285Y-43540057D02*
X93586666Y-43635295D01*
X93586666Y-43635295D02*
X93586666Y-43778152D01*
X93586666Y-43778152D02*
X93634285Y-43873390D01*
X93634285Y-43873390D02*
X93681904Y-43921009D01*
X93681904Y-43921009D02*
X93777142Y-43968628D01*
X93777142Y-43968628D02*
X94158094Y-43968628D01*
X92681904Y-43444819D02*
X93158094Y-43444819D01*
X93158094Y-43444819D02*
X93205713Y-43921009D01*
X93205713Y-43921009D02*
X93158094Y-43873390D01*
X93158094Y-43873390D02*
X93062856Y-43825771D01*
X93062856Y-43825771D02*
X92824761Y-43825771D01*
X92824761Y-43825771D02*
X92729523Y-43873390D01*
X92729523Y-43873390D02*
X92681904Y-43921009D01*
X92681904Y-43921009D02*
X92634285Y-44016247D01*
X92634285Y-44016247D02*
X92634285Y-44254342D01*
X92634285Y-44254342D02*
X92681904Y-44349580D01*
X92681904Y-44349580D02*
X92729523Y-44397200D01*
X92729523Y-44397200D02*
X92824761Y-44444819D01*
X92824761Y-44444819D02*
X93062856Y-44444819D01*
X93062856Y-44444819D02*
X93158094Y-44397200D01*
X93158094Y-44397200D02*
X93205713Y-44349580D01*
X105106666Y-48484819D02*
X105439999Y-48008628D01*
X105678094Y-48484819D02*
X105678094Y-47484819D01*
X105678094Y-47484819D02*
X105297142Y-47484819D01*
X105297142Y-47484819D02*
X105201904Y-47532438D01*
X105201904Y-47532438D02*
X105154285Y-47580057D01*
X105154285Y-47580057D02*
X105106666Y-47675295D01*
X105106666Y-47675295D02*
X105106666Y-47818152D01*
X105106666Y-47818152D02*
X105154285Y-47913390D01*
X105154285Y-47913390D02*
X105201904Y-47961009D01*
X105201904Y-47961009D02*
X105297142Y-48008628D01*
X105297142Y-48008628D02*
X105678094Y-48008628D01*
X104249523Y-47818152D02*
X104249523Y-48484819D01*
X104487618Y-47437200D02*
X104725713Y-48151485D01*
X104725713Y-48151485D02*
X104106666Y-48151485D01*
X104526666Y-36064819D02*
X104859999Y-35588628D01*
X105098094Y-36064819D02*
X105098094Y-35064819D01*
X105098094Y-35064819D02*
X104717142Y-35064819D01*
X104717142Y-35064819D02*
X104621904Y-35112438D01*
X104621904Y-35112438D02*
X104574285Y-35160057D01*
X104574285Y-35160057D02*
X104526666Y-35255295D01*
X104526666Y-35255295D02*
X104526666Y-35398152D01*
X104526666Y-35398152D02*
X104574285Y-35493390D01*
X104574285Y-35493390D02*
X104621904Y-35541009D01*
X104621904Y-35541009D02*
X104717142Y-35588628D01*
X104717142Y-35588628D02*
X105098094Y-35588628D01*
X104193332Y-35064819D02*
X103574285Y-35064819D01*
X103574285Y-35064819D02*
X103907618Y-35445771D01*
X103907618Y-35445771D02*
X103764761Y-35445771D01*
X103764761Y-35445771D02*
X103669523Y-35493390D01*
X103669523Y-35493390D02*
X103621904Y-35541009D01*
X103621904Y-35541009D02*
X103574285Y-35636247D01*
X103574285Y-35636247D02*
X103574285Y-35874342D01*
X103574285Y-35874342D02*
X103621904Y-35969580D01*
X103621904Y-35969580D02*
X103669523Y-36017200D01*
X103669523Y-36017200D02*
X103764761Y-36064819D01*
X103764761Y-36064819D02*
X104050475Y-36064819D01*
X104050475Y-36064819D02*
X104145713Y-36017200D01*
X104145713Y-36017200D02*
X104193332Y-35969580D01*
X116004819Y-65953333D02*
X115528628Y-65620000D01*
X116004819Y-65381905D02*
X115004819Y-65381905D01*
X115004819Y-65381905D02*
X115004819Y-65762857D01*
X115004819Y-65762857D02*
X115052438Y-65858095D01*
X115052438Y-65858095D02*
X115100057Y-65905714D01*
X115100057Y-65905714D02*
X115195295Y-65953333D01*
X115195295Y-65953333D02*
X115338152Y-65953333D01*
X115338152Y-65953333D02*
X115433390Y-65905714D01*
X115433390Y-65905714D02*
X115481009Y-65858095D01*
X115481009Y-65858095D02*
X115528628Y-65762857D01*
X115528628Y-65762857D02*
X115528628Y-65381905D01*
X115100057Y-66334286D02*
X115052438Y-66381905D01*
X115052438Y-66381905D02*
X115004819Y-66477143D01*
X115004819Y-66477143D02*
X115004819Y-66715238D01*
X115004819Y-66715238D02*
X115052438Y-66810476D01*
X115052438Y-66810476D02*
X115100057Y-66858095D01*
X115100057Y-66858095D02*
X115195295Y-66905714D01*
X115195295Y-66905714D02*
X115290533Y-66905714D01*
X115290533Y-66905714D02*
X115433390Y-66858095D01*
X115433390Y-66858095D02*
X116004819Y-66286667D01*
X116004819Y-66286667D02*
X116004819Y-66905714D01*
X97396666Y-39684819D02*
X97729999Y-39208628D01*
X97968094Y-39684819D02*
X97968094Y-38684819D01*
X97968094Y-38684819D02*
X97587142Y-38684819D01*
X97587142Y-38684819D02*
X97491904Y-38732438D01*
X97491904Y-38732438D02*
X97444285Y-38780057D01*
X97444285Y-38780057D02*
X97396666Y-38875295D01*
X97396666Y-38875295D02*
X97396666Y-39018152D01*
X97396666Y-39018152D02*
X97444285Y-39113390D01*
X97444285Y-39113390D02*
X97491904Y-39161009D01*
X97491904Y-39161009D02*
X97587142Y-39208628D01*
X97587142Y-39208628D02*
X97968094Y-39208628D01*
X96444285Y-39684819D02*
X97015713Y-39684819D01*
X96729999Y-39684819D02*
X96729999Y-38684819D01*
X96729999Y-38684819D02*
X96825237Y-38827676D01*
X96825237Y-38827676D02*
X96920475Y-38922914D01*
X96920475Y-38922914D02*
X97015713Y-38970533D01*
X122350057Y-60664761D02*
X122302438Y-60569523D01*
X122302438Y-60569523D02*
X122207200Y-60474285D01*
X122207200Y-60474285D02*
X122064342Y-60331428D01*
X122064342Y-60331428D02*
X122016723Y-60236190D01*
X122016723Y-60236190D02*
X122016723Y-60140952D01*
X122254819Y-60188571D02*
X122207200Y-60093333D01*
X122207200Y-60093333D02*
X122111961Y-59998095D01*
X122111961Y-59998095D02*
X121921485Y-59950476D01*
X121921485Y-59950476D02*
X121588152Y-59950476D01*
X121588152Y-59950476D02*
X121397676Y-59998095D01*
X121397676Y-59998095D02*
X121302438Y-60093333D01*
X121302438Y-60093333D02*
X121254819Y-60188571D01*
X121254819Y-60188571D02*
X121254819Y-60379047D01*
X121254819Y-60379047D02*
X121302438Y-60474285D01*
X121302438Y-60474285D02*
X121397676Y-60569523D01*
X121397676Y-60569523D02*
X121588152Y-60617142D01*
X121588152Y-60617142D02*
X121921485Y-60617142D01*
X121921485Y-60617142D02*
X122111961Y-60569523D01*
X122111961Y-60569523D02*
X122207200Y-60474285D01*
X122207200Y-60474285D02*
X122254819Y-60379047D01*
X122254819Y-60379047D02*
X122254819Y-60188571D01*
X121588152Y-61474285D02*
X122254819Y-61474285D01*
X121207200Y-61236190D02*
X121921485Y-60998095D01*
X121921485Y-60998095D02*
X121921485Y-61617142D01*
X113585238Y-45470057D02*
X113680476Y-45422438D01*
X113680476Y-45422438D02*
X113775714Y-45327200D01*
X113775714Y-45327200D02*
X113918571Y-45184342D01*
X113918571Y-45184342D02*
X114013809Y-45136723D01*
X114013809Y-45136723D02*
X114109047Y-45136723D01*
X114061428Y-45374819D02*
X114156666Y-45327200D01*
X114156666Y-45327200D02*
X114251904Y-45231961D01*
X114251904Y-45231961D02*
X114299523Y-45041485D01*
X114299523Y-45041485D02*
X114299523Y-44708152D01*
X114299523Y-44708152D02*
X114251904Y-44517676D01*
X114251904Y-44517676D02*
X114156666Y-44422438D01*
X114156666Y-44422438D02*
X114061428Y-44374819D01*
X114061428Y-44374819D02*
X113870952Y-44374819D01*
X113870952Y-44374819D02*
X113775714Y-44422438D01*
X113775714Y-44422438D02*
X113680476Y-44517676D01*
X113680476Y-44517676D02*
X113632857Y-44708152D01*
X113632857Y-44708152D02*
X113632857Y-45041485D01*
X113632857Y-45041485D02*
X113680476Y-45231961D01*
X113680476Y-45231961D02*
X113775714Y-45327200D01*
X113775714Y-45327200D02*
X113870952Y-45374819D01*
X113870952Y-45374819D02*
X114061428Y-45374819D01*
X113299523Y-44374819D02*
X112680476Y-44374819D01*
X112680476Y-44374819D02*
X113013809Y-44755771D01*
X113013809Y-44755771D02*
X112870952Y-44755771D01*
X112870952Y-44755771D02*
X112775714Y-44803390D01*
X112775714Y-44803390D02*
X112728095Y-44851009D01*
X112728095Y-44851009D02*
X112680476Y-44946247D01*
X112680476Y-44946247D02*
X112680476Y-45184342D01*
X112680476Y-45184342D02*
X112728095Y-45279580D01*
X112728095Y-45279580D02*
X112775714Y-45327200D01*
X112775714Y-45327200D02*
X112870952Y-45374819D01*
X112870952Y-45374819D02*
X113156666Y-45374819D01*
X113156666Y-45374819D02*
X113251904Y-45327200D01*
X113251904Y-45327200D02*
X113299523Y-45279580D01*
X120675238Y-40340057D02*
X120770476Y-40292438D01*
X120770476Y-40292438D02*
X120865714Y-40197200D01*
X120865714Y-40197200D02*
X121008571Y-40054342D01*
X121008571Y-40054342D02*
X121103809Y-40006723D01*
X121103809Y-40006723D02*
X121199047Y-40006723D01*
X121151428Y-40244819D02*
X121246666Y-40197200D01*
X121246666Y-40197200D02*
X121341904Y-40101961D01*
X121341904Y-40101961D02*
X121389523Y-39911485D01*
X121389523Y-39911485D02*
X121389523Y-39578152D01*
X121389523Y-39578152D02*
X121341904Y-39387676D01*
X121341904Y-39387676D02*
X121246666Y-39292438D01*
X121246666Y-39292438D02*
X121151428Y-39244819D01*
X121151428Y-39244819D02*
X120960952Y-39244819D01*
X120960952Y-39244819D02*
X120865714Y-39292438D01*
X120865714Y-39292438D02*
X120770476Y-39387676D01*
X120770476Y-39387676D02*
X120722857Y-39578152D01*
X120722857Y-39578152D02*
X120722857Y-39911485D01*
X120722857Y-39911485D02*
X120770476Y-40101961D01*
X120770476Y-40101961D02*
X120865714Y-40197200D01*
X120865714Y-40197200D02*
X120960952Y-40244819D01*
X120960952Y-40244819D02*
X121151428Y-40244819D01*
X120341904Y-39340057D02*
X120294285Y-39292438D01*
X120294285Y-39292438D02*
X120199047Y-39244819D01*
X120199047Y-39244819D02*
X119960952Y-39244819D01*
X119960952Y-39244819D02*
X119865714Y-39292438D01*
X119865714Y-39292438D02*
X119818095Y-39340057D01*
X119818095Y-39340057D02*
X119770476Y-39435295D01*
X119770476Y-39435295D02*
X119770476Y-39530533D01*
X119770476Y-39530533D02*
X119818095Y-39673390D01*
X119818095Y-39673390D02*
X120389523Y-40244819D01*
X120389523Y-40244819D02*
X119770476Y-40244819D01*
X105485238Y-40630057D02*
X105580476Y-40582438D01*
X105580476Y-40582438D02*
X105675714Y-40487200D01*
X105675714Y-40487200D02*
X105818571Y-40344342D01*
X105818571Y-40344342D02*
X105913809Y-40296723D01*
X105913809Y-40296723D02*
X106009047Y-40296723D01*
X105961428Y-40534819D02*
X106056666Y-40487200D01*
X106056666Y-40487200D02*
X106151904Y-40391961D01*
X106151904Y-40391961D02*
X106199523Y-40201485D01*
X106199523Y-40201485D02*
X106199523Y-39868152D01*
X106199523Y-39868152D02*
X106151904Y-39677676D01*
X106151904Y-39677676D02*
X106056666Y-39582438D01*
X106056666Y-39582438D02*
X105961428Y-39534819D01*
X105961428Y-39534819D02*
X105770952Y-39534819D01*
X105770952Y-39534819D02*
X105675714Y-39582438D01*
X105675714Y-39582438D02*
X105580476Y-39677676D01*
X105580476Y-39677676D02*
X105532857Y-39868152D01*
X105532857Y-39868152D02*
X105532857Y-40201485D01*
X105532857Y-40201485D02*
X105580476Y-40391961D01*
X105580476Y-40391961D02*
X105675714Y-40487200D01*
X105675714Y-40487200D02*
X105770952Y-40534819D01*
X105770952Y-40534819D02*
X105961428Y-40534819D01*
X104580476Y-40534819D02*
X105151904Y-40534819D01*
X104866190Y-40534819D02*
X104866190Y-39534819D01*
X104866190Y-39534819D02*
X104961428Y-39677676D01*
X104961428Y-39677676D02*
X105056666Y-39772914D01*
X105056666Y-39772914D02*
X105151904Y-39820533D01*
X119936666Y-60929580D02*
X119984285Y-60977200D01*
X119984285Y-60977200D02*
X120127142Y-61024819D01*
X120127142Y-61024819D02*
X120222380Y-61024819D01*
X120222380Y-61024819D02*
X120365237Y-60977200D01*
X120365237Y-60977200D02*
X120460475Y-60881961D01*
X120460475Y-60881961D02*
X120508094Y-60786723D01*
X120508094Y-60786723D02*
X120555713Y-60596247D01*
X120555713Y-60596247D02*
X120555713Y-60453390D01*
X120555713Y-60453390D02*
X120508094Y-60262914D01*
X120508094Y-60262914D02*
X120460475Y-60167676D01*
X120460475Y-60167676D02*
X120365237Y-60072438D01*
X120365237Y-60072438D02*
X120222380Y-60024819D01*
X120222380Y-60024819D02*
X120127142Y-60024819D01*
X120127142Y-60024819D02*
X119984285Y-60072438D01*
X119984285Y-60072438D02*
X119936666Y-60120057D01*
X118984285Y-61024819D02*
X119555713Y-61024819D01*
X119269999Y-61024819D02*
X119269999Y-60024819D01*
X119269999Y-60024819D02*
X119365237Y-60167676D01*
X119365237Y-60167676D02*
X119460475Y-60262914D01*
X119460475Y-60262914D02*
X119555713Y-60310533D01*
D11*
%TO.C,C2*%
X119190000Y-45330000D02*
X119190000Y-40790000D01*
X117106000Y-45330000D02*
X117050000Y-45330000D01*
X117050000Y-45330000D02*
X117050000Y-40790000D01*
X117106000Y-40790000D02*
X117050000Y-40790000D01*
%TO.C,U1*%
X121910000Y-52930000D02*
G75*
G02*
X121910000Y-50930000I0J1000000D01*
G01*
X111630000Y-49280000D02*
X121910000Y-49280000D01*
X121910000Y-49280000D02*
X121910000Y-50930000D01*
X121910000Y-52930000D02*
X121910000Y-54580000D01*
X111630000Y-54580000D02*
X111630000Y-49280000D01*
X121910000Y-54580000D02*
X111630000Y-54580000D01*
%TO.C,R10*%
X113440000Y-75530000D02*
X119980000Y-75530000D01*
X119980000Y-72790000D01*
X113440000Y-72790000D01*
X113440000Y-75530000D01*
X120750000Y-74160000D02*
X119980000Y-74160000D01*
X112670000Y-74160000D02*
X113440000Y-74160000D01*
%TO.C,R6*%
X101780000Y-52850000D02*
X108320000Y-52850000D01*
X108320000Y-50110000D01*
X101780000Y-50110000D01*
X101780000Y-52850000D01*
X109090000Y-51480000D02*
X108320000Y-51480000D01*
X101010000Y-51480000D02*
X101780000Y-51480000D01*
%TO.C,R5*%
X90150000Y-45360000D02*
X96690000Y-45360000D01*
X96690000Y-42620000D01*
X90150000Y-42620000D01*
X90150000Y-45360000D01*
X97460000Y-43990000D02*
X96690000Y-43990000D01*
X89380000Y-43990000D02*
X90150000Y-43990000D01*
%TO.C,R4*%
X101660000Y-49440000D02*
X108200000Y-49440000D01*
X108200000Y-46700000D01*
X101660000Y-46700000D01*
X101660000Y-49440000D01*
X108970000Y-48070000D02*
X108200000Y-48070000D01*
X100890000Y-48070000D02*
X101660000Y-48070000D01*
%TO.C,R3*%
X107630000Y-34240000D02*
X101090000Y-34240000D01*
X101090000Y-36980000D01*
X107630000Y-36980000D01*
X107630000Y-34240000D01*
X100320000Y-35610000D02*
X101090000Y-35610000D01*
X108400000Y-35610000D02*
X107630000Y-35610000D01*
%TO.C,R2*%
X116910000Y-69400000D02*
X114170000Y-69400000D01*
X114170000Y-62860000D01*
X116910000Y-62860000D01*
X116910000Y-69400000D01*
X115540000Y-62090000D02*
X115540000Y-62860000D01*
X115540000Y-70170000D02*
X115540000Y-69400000D01*
%TO.C,R1*%
X93970000Y-40590000D02*
X100510000Y-40590000D01*
X100510000Y-37850000D01*
X93970000Y-37850000D01*
X93970000Y-40590000D01*
X101280000Y-39220000D02*
X100510000Y-39220000D01*
X93200000Y-39220000D02*
X93970000Y-39220000D01*
%TO.C,Q4*%
X122430000Y-62020000D02*
X117810000Y-62020000D01*
X122430000Y-65280000D02*
X121050000Y-65280000D01*
X122430000Y-68980000D02*
X121050000Y-68980000D01*
X117810000Y-72240000D02*
X117810000Y-62020000D01*
X121050000Y-72240000D02*
X121050000Y-62020000D01*
X122430000Y-72240000D02*
X122430000Y-62020000D01*
X122430000Y-72240000D02*
X117810000Y-72240000D01*
%TO.C,Q3*%
X115328478Y-39521522D02*
G75*
G02*
X113490000Y-43960001I-1838478J-1838478D01*
G01*
X113490000Y-43960000D02*
G75*
G02*
X111651522Y-39521522I0J2600000D01*
G01*
X111690000Y-39510000D02*
X115290000Y-39510000D01*
%TO.C,Q2*%
X121110000Y-38830000D02*
X121110000Y-34210000D01*
X117850000Y-38830000D02*
X117850000Y-37450000D01*
X114150000Y-38830000D02*
X114150000Y-37450000D01*
X110890000Y-34210000D02*
X121110000Y-34210000D01*
X110890000Y-37450000D02*
X121110000Y-37450000D01*
X110890000Y-38830000D02*
X121110000Y-38830000D01*
X110890000Y-38830000D02*
X110890000Y-34210000D01*
%TO.C,Q1*%
X109970000Y-45680000D02*
X109970000Y-41060000D01*
X106710000Y-45680000D02*
X106710000Y-44300000D01*
X103010000Y-45680000D02*
X103010000Y-44300000D01*
X99750000Y-41060000D02*
X109970000Y-41060000D01*
X99750000Y-44300000D02*
X109970000Y-44300000D01*
X99750000Y-45680000D02*
X109970000Y-45680000D01*
X99750000Y-45680000D02*
X99750000Y-41060000D01*
%TO.C,C1*%
X121590000Y-57400000D02*
X121590000Y-57100000D01*
X121590000Y-59440000D02*
X121590000Y-59140000D01*
X117950000Y-57100000D02*
X121590000Y-57100000D01*
X117950000Y-57400000D02*
X117950000Y-57100000D01*
X117950000Y-59440000D02*
X121590000Y-59440000D01*
X117950000Y-59440000D02*
X117950000Y-59140000D01*
%TD*%
M02*
