%TF.GenerationSoftware,KiCad,Pcbnew,9.0.2*%
%TF.CreationDate,2025-07-18T12:05:27+02:00*%
%TF.ProjectId,Ligther,4c696774-6865-4722-9e6b-696361645f70,rev?*%
%TF.SameCoordinates,Original*%
%TF.FileFunction,Soldermask,Top*%
%TF.FilePolarity,Negative*%
%FSLAX46Y46*%
G04 Gerber Fmt 4.6, Leading zero omitted, Abs format (unit mm)*
G04 Created by KiCad (PCBNEW 9.0.2) date 2025-07-18 12:05:27*
%MOMM*%
%LPD*%
G01*
G04 APERTURE LIST*
G04 Aperture macros list*
%AMRoundRect*
0 Rectangle with rounded corners*
0 $1 Rounding radius*
0 $2 $3 $4 $5 $6 $7 $8 $9 X,Y pos of 4 corners*
0 Add a 4 corners polygon primitive as box body*
4,1,4,$2,$3,$4,$5,$6,$7,$8,$9,$2,$3,0*
0 Add four circle primitives for the rounded corners*
1,1,$1+$1,$2,$3*
1,1,$1+$1,$4,$5*
1,1,$1+$1,$6,$7*
1,1,$1+$1,$8,$9*
0 Add four rect primitives between the rounded corners*
20,1,$1+$1,$2,$3,$4,$5,0*
20,1,$1+$1,$4,$5,$6,$7,0*
20,1,$1+$1,$6,$7,$8,$9,0*
20,1,$1+$1,$8,$9,$2,$3,0*%
%AMFreePoly0*
4,1,17,0.300000,0.325000,1.250000,0.325000,1.250000,-1.125000,0.650000,-1.125000,0.650000,-0.325000,0.250000,-0.325000,0.250000,-1.125000,-0.250000,-1.125000,-0.250000,-0.325000,-0.650000,-0.325000,-0.650000,-1.125000,-1.250000,-1.125000,-1.250000,0.325000,-0.300000,0.325000,-0.300000,0.575000,0.300000,0.575000,0.300000,0.325000,0.300000,0.325000,$1*%
G04 Aperture macros list end*
%ADD10C,1.600000*%
%ADD11R,1.000000X1.000000*%
%ADD12C,1.000000*%
%ADD13R,0.900000X1.350000*%
%ADD14R,0.500000X1.050000*%
%ADD15FreePoly0,0.000000*%
%ADD16RoundRect,0.150000X0.650000X0.150000X-0.650000X0.150000X-0.650000X-0.150000X0.650000X-0.150000X0*%
%ADD17R,1.905000X2.000000*%
%ADD18O,1.905000X2.000000*%
%ADD19RoundRect,0.250000X0.550000X-0.550000X0.550000X0.550000X-0.550000X0.550000X-0.550000X-0.550000X0*%
%ADD20R,1.050000X1.500000*%
%ADD21O,1.050000X1.500000*%
G04 APERTURE END LIST*
D10*
%TO.C,R17*%
X109420000Y-38750000D03*
X99260000Y-38750000D03*
%TD*%
D11*
%TO.C,JP12*%
X82020000Y-38690000D03*
D12*
X82020000Y-39960000D03*
%TD*%
D10*
%TO.C,SW1*%
X86800000Y-35620000D03*
X96960000Y-35620000D03*
%TD*%
%TO.C,R7*%
X82440000Y-62840000D03*
X82440000Y-73000000D03*
%TD*%
D13*
%TO.C,D1*%
X99050000Y-55000000D03*
D14*
X100000000Y-54850000D03*
D13*
X100950000Y-55000000D03*
D15*
X100000000Y-56450000D03*
%TD*%
D10*
%TO.C,R13*%
X98040000Y-62840000D03*
X98040000Y-73000000D03*
%TD*%
D11*
%TO.C,JP6*%
X94920000Y-76980000D03*
D12*
X94920000Y-75710000D03*
%TD*%
D10*
%TO.C,R15*%
X104180000Y-62840000D03*
X104180000Y-73000000D03*
%TD*%
D12*
%TO.C,JP13*%
X111670000Y-63940000D03*
D11*
X110400000Y-63940000D03*
%TD*%
%TO.C,JP1*%
X114705000Y-58250000D03*
D12*
X115975000Y-58250000D03*
%TD*%
D11*
%TO.C,JP10*%
X107200000Y-76980000D03*
D12*
X107200000Y-75710000D03*
%TD*%
D11*
%TO.C,JP14*%
X110400000Y-66300000D03*
D12*
X111670000Y-66300000D03*
%TD*%
D10*
%TO.C,R11*%
X91760000Y-62840000D03*
X91760000Y-73000000D03*
%TD*%
D13*
%TO.C,D2*%
X104430000Y-55000000D03*
D14*
X105380000Y-54850000D03*
D13*
X106330000Y-55000000D03*
D15*
X105380000Y-56450000D03*
%TD*%
D10*
%TO.C,R9*%
X88650000Y-62840000D03*
X88650000Y-73000000D03*
%TD*%
%TO.C,R12*%
X94960000Y-62840000D03*
X94960000Y-73000000D03*
%TD*%
D11*
%TO.C,JP8*%
X101070000Y-76980000D03*
D12*
X101070000Y-75710000D03*
%TD*%
D11*
%TO.C,JP9*%
X104180000Y-76980000D03*
D12*
X104180000Y-75710000D03*
%TD*%
D11*
%TO.C,JP7*%
X97980000Y-76980000D03*
D12*
X97980000Y-75710000D03*
%TD*%
D11*
%TO.C,JP2*%
X82460000Y-76980000D03*
D12*
X82460000Y-75710000D03*
%TD*%
D10*
%TO.C,R16*%
X107240000Y-62840000D03*
X107240000Y-73000000D03*
%TD*%
D11*
%TO.C,JP11*%
X84440000Y-38720000D03*
D12*
X84440000Y-37450000D03*
%TD*%
D11*
%TO.C,JP4*%
X88630000Y-76980000D03*
D12*
X88630000Y-75710000D03*
%TD*%
D11*
%TO.C,JP5*%
X91700000Y-76980000D03*
D12*
X91700000Y-75710000D03*
%TD*%
D10*
%TO.C,R8*%
X85510000Y-62840000D03*
X85510000Y-73000000D03*
%TD*%
D16*
%TO.C,U2*%
X96130000Y-49850000D03*
X96130000Y-48900000D03*
X96130000Y-47950000D03*
X93830000Y-47950000D03*
X93830000Y-48900000D03*
X93830000Y-49850000D03*
%TD*%
D10*
%TO.C,R14*%
X101110000Y-62840000D03*
X101110000Y-73000000D03*
%TD*%
D11*
%TO.C,JP3*%
X85500000Y-76980000D03*
D12*
X85500000Y-75710000D03*
%TD*%
D13*
%TO.C,D3*%
X93650000Y-55000000D03*
D14*
X94600000Y-54850000D03*
D13*
X95550000Y-55000000D03*
D15*
X94600000Y-56450000D03*
%TD*%
D10*
%TO.C,R1*%
X86860000Y-38710000D03*
X97020000Y-38710000D03*
%TD*%
D17*
%TO.C,Q1*%
X102320000Y-42420000D03*
D18*
X104860000Y-42420000D03*
X107400000Y-42420000D03*
%TD*%
D10*
%TO.C,R2*%
X110220000Y-61160000D03*
X120380000Y-61160000D03*
%TD*%
%TO.C,R6*%
X99960000Y-50370000D03*
X110120000Y-50370000D03*
%TD*%
D19*
%TO.C,U1*%
X120580000Y-55740000D03*
D10*
X118040000Y-55740000D03*
X115500000Y-55740000D03*
X112960000Y-55740000D03*
X112960000Y-48120000D03*
X115500000Y-48120000D03*
X118040000Y-48120000D03*
X120580000Y-48120000D03*
%TD*%
%TO.C,R3*%
X109440000Y-35610000D03*
X99280000Y-35610000D03*
%TD*%
D20*
%TO.C,Q3*%
X112220000Y-41360000D03*
D21*
X113490000Y-41360000D03*
X114760000Y-41360000D03*
%TD*%
D10*
%TO.C,C1*%
X118520000Y-58270000D03*
X121020000Y-58270000D03*
%TD*%
%TO.C,C2*%
X118120000Y-45560000D03*
X118120000Y-40560000D03*
%TD*%
%TO.C,R5*%
X88280000Y-42100000D03*
X98440000Y-42100000D03*
%TD*%
D17*
%TO.C,Q2*%
X113460000Y-35570000D03*
D18*
X116000000Y-35570000D03*
X118540000Y-35570000D03*
%TD*%
D10*
%TO.C,R4*%
X99950000Y-47320000D03*
X110110000Y-47320000D03*
%TD*%
M02*
