M48
; DRILL file {KiCad 9.0.2} date 2025-07-18T12:05:33+0200
; FORMAT={-:-/ absolute / metric / decimal}
; #@! TF.CreationDate,2025-07-18T12:05:33+02:00
; #@! TF.GenerationSoftware,Kicad,Pcbnew,9.0.2
; #@! TF.FileFunction,Plated,1,2,PTH
FMAT,2
METRIC
; #@! TA.AperFunction,Plated,PTH,ViaDrill
T1C0.300
; #@! TA.AperFunction,Plated,PTH,ViaDrill
T2C0.600
; #@! TA.AperFunction,Plated,PTH,ComponentDrill
T3C0.650
; #@! TA.AperFunction,Plated,PTH,ComponentDrill
T4C0.750
; #@! TA.AperFunction,Plated,PTH,ComponentDrill
T5C0.800
; #@! TA.AperFunction,Plated,PTH,ComponentDrill
T6C1.100
%
G90
G05
T1
X96.92Y-51.48
T2
X121.12Y-43.53
X121.17Y-40.0
T3
X82.02Y-38.69
X82.02Y-39.96
X82.46Y-75.71
X82.46Y-76.98
X84.44Y-37.45
X84.44Y-38.72
X85.5Y-75.71
X85.5Y-76.98
X88.63Y-75.71
X88.63Y-76.98
X91.7Y-75.71
X91.7Y-76.98
X94.92Y-75.71
X94.92Y-76.98
X97.98Y-75.71
X97.98Y-76.98
X101.07Y-75.71
X101.07Y-76.98
X104.18Y-75.71
X104.18Y-76.98
X107.2Y-75.71
X107.2Y-76.98
X110.4Y-63.94
X110.4Y-66.3
X111.67Y-63.94
X111.67Y-66.3
X114.705Y-58.25
X115.975Y-58.25
T4
X112.22Y-41.36
X113.49Y-41.36
X114.76Y-41.36
T5
X82.44Y-62.84
X82.44Y-73.0
X85.51Y-62.84
X85.51Y-73.0
X86.8Y-35.62
X86.86Y-38.71
X88.28Y-42.1
X88.65Y-62.84
X88.65Y-73.0
X91.76Y-62.84
X91.76Y-73.0
X94.96Y-62.84
X94.96Y-73.0
X96.96Y-35.62
X97.02Y-38.71
X98.04Y-62.84
X98.04Y-73.0
X98.44Y-42.1
X99.26Y-38.75
X99.28Y-35.61
X99.95Y-47.32
X99.96Y-50.37
X101.11Y-62.84
X101.11Y-73.0
X104.18Y-62.84
X104.18Y-73.0
X107.24Y-62.84
X107.24Y-73.0
X109.42Y-38.75
X109.44Y-35.61
X110.11Y-47.32
X110.12Y-50.37
X110.22Y-61.16
X112.96Y-48.12
X112.96Y-55.74
X115.5Y-48.12
X115.5Y-55.74
X118.04Y-48.12
X118.04Y-55.74
X118.12Y-40.56
X118.12Y-45.56
X118.52Y-58.27
X120.38Y-61.16
X120.58Y-48.12
X120.58Y-55.74
X121.02Y-58.27
T6
X102.32Y-42.42
X104.86Y-42.42
X107.4Y-42.42
X113.46Y-35.57
X116.0Y-35.57
X118.54Y-35.57
M30
