%TF.GenerationSoftware,KiCad,Pcbnew,9.0.2*%
%TF.CreationDate,2025-07-18T12:05:27+02:00*%
%TF.ProjectId,Ligther,4c696774-6865-4722-9e6b-696361645f70,rev?*%
%TF.SameCoordinates,Original*%
%TF.FileFunction,Copper,L2,Bot*%
%TF.FilePolarity,Positive*%
%FSLAX46Y46*%
G04 Gerber Fmt 4.6, Leading zero omitted, Abs format (unit mm)*
G04 Created by KiCad (PCBNEW 9.0.2) date 2025-07-18 12:05:27*
%MOMM*%
%LPD*%
G01*
G04 APERTURE LIST*
G04 Aperture macros list*
%AMRoundRect*
0 Rectangle with rounded corners*
0 $1 Rounding radius*
0 $2 $3 $4 $5 $6 $7 $8 $9 X,Y pos of 4 corners*
0 Add a 4 corners polygon primitive as box body*
4,1,4,$2,$3,$4,$5,$6,$7,$8,$9,$2,$3,0*
0 Add four circle primitives for the rounded corners*
1,1,$1+$1,$2,$3*
1,1,$1+$1,$4,$5*
1,1,$1+$1,$6,$7*
1,1,$1+$1,$8,$9*
0 Add four rect primitives between the rounded corners*
20,1,$1+$1,$2,$3,$4,$5,0*
20,1,$1+$1,$4,$5,$6,$7,0*
20,1,$1+$1,$6,$7,$8,$9,0*
20,1,$1+$1,$8,$9,$2,$3,0*%
G04 Aperture macros list end*
%TA.AperFunction,ComponentPad*%
%ADD10C,1.600000*%
%TD*%
%TA.AperFunction,ComponentPad*%
%ADD11R,1.000000X1.000000*%
%TD*%
%TA.AperFunction,ComponentPad*%
%ADD12C,1.000000*%
%TD*%
%TA.AperFunction,ComponentPad*%
%ADD13R,1.905000X2.000000*%
%TD*%
%TA.AperFunction,ComponentPad*%
%ADD14O,1.905000X2.000000*%
%TD*%
%TA.AperFunction,ComponentPad*%
%ADD15RoundRect,0.250000X0.550000X-0.550000X0.550000X0.550000X-0.550000X0.550000X-0.550000X-0.550000X0*%
%TD*%
%TA.AperFunction,ComponentPad*%
%ADD16R,1.050000X1.500000*%
%TD*%
%TA.AperFunction,ComponentPad*%
%ADD17O,1.050000X1.500000*%
%TD*%
%TA.AperFunction,ViaPad*%
%ADD18C,1.270000*%
%TD*%
%TA.AperFunction,ViaPad*%
%ADD19C,0.600000*%
%TD*%
%TA.AperFunction,Conductor*%
%ADD20C,0.508000*%
%TD*%
%TA.AperFunction,Conductor*%
%ADD21C,0.254000*%
%TD*%
G04 APERTURE END LIST*
D10*
%TO.P,R17,1*%
%TO.N,GNDPWR*%
X109420000Y-38750000D03*
%TO.P,R17,2*%
%TO.N,Net-(Q3-E)*%
X99260000Y-38750000D03*
%TD*%
D11*
%TO.P,JP12,1,A*%
%TO.N,Net-(JP11-A)*%
X82020000Y-38690000D03*
D12*
%TO.P,JP12,2,B*%
%TO.N,GNDPWR*%
X82020000Y-39960000D03*
%TD*%
D10*
%TO.P,SW1,1,1*%
%TO.N,+6V*%
X86800000Y-35620000D03*
%TO.P,SW1,2,2*%
%TO.N,Net-(Q2-GATE)*%
X96960000Y-35620000D03*
%TD*%
%TO.P,R7,2*%
%TO.N,Net-(U2-Rext)*%
X82440000Y-62840000D03*
%TO.P,R7,1*%
%TO.N,Net-(JP2-B)*%
X82440000Y-73000000D03*
%TD*%
%TO.P,R13,2*%
%TO.N,Net-(R13-Pad2)*%
X98040000Y-62840000D03*
%TO.P,R13,1*%
%TO.N,Net-(JP6-B)*%
X98040000Y-73000000D03*
%TD*%
D11*
%TO.P,JP6,1,A*%
%TO.N,GNDPWR*%
X94920000Y-76980000D03*
D12*
%TO.P,JP6,2,B*%
%TO.N,Net-(JP6-B)*%
X94920000Y-75710000D03*
%TD*%
D10*
%TO.P,R15,2*%
%TO.N,Net-(R15-Pad2)*%
X104180000Y-62840000D03*
%TO.P,R15,1*%
%TO.N,Net-(JP8-B)*%
X104180000Y-73000000D03*
%TD*%
D12*
%TO.P,JP13,2,B*%
%TO.N,GND*%
X111670000Y-63940000D03*
D11*
%TO.P,JP13,1,A*%
%TO.N,Net-(JP13-A)*%
X110400000Y-63940000D03*
%TD*%
%TO.P,JP1,1,A*%
%TO.N,Net-(JP1-A)*%
X114705000Y-58250000D03*
D12*
%TO.P,JP1,2,B*%
%TO.N,Net-(JP1-B)*%
X115975000Y-58250000D03*
%TD*%
D11*
%TO.P,JP10,1,A*%
%TO.N,GNDPWR*%
X107200000Y-76980000D03*
D12*
%TO.P,JP10,2,B*%
%TO.N,Net-(JP10-B)*%
X107200000Y-75710000D03*
%TD*%
D11*
%TO.P,JP14,1,A*%
%TO.N,Net-(JP13-A)*%
X110400000Y-66300000D03*
D12*
%TO.P,JP14,2,B*%
%TO.N,GNDPWR*%
X111670000Y-66300000D03*
%TD*%
D10*
%TO.P,R11,2*%
%TO.N,Net-(R11-Pad2)*%
X91760000Y-62840000D03*
%TO.P,R11,1*%
%TO.N,Net-(JP4-B)*%
X91760000Y-73000000D03*
%TD*%
%TO.P,R9,2*%
%TO.N,Net-(R8-Pad2)*%
X88650000Y-62840000D03*
%TO.P,R9,1*%
%TO.N,Net-(JP4-B)*%
X88650000Y-73000000D03*
%TD*%
%TO.P,R12,2*%
%TO.N,Net-(R11-Pad2)*%
X94960000Y-62840000D03*
%TO.P,R12,1*%
%TO.N,Net-(JP6-B)*%
X94960000Y-73000000D03*
%TD*%
D11*
%TO.P,JP8,1,A*%
%TO.N,GNDPWR*%
X101070000Y-76980000D03*
D12*
%TO.P,JP8,2,B*%
%TO.N,Net-(JP8-B)*%
X101070000Y-75710000D03*
%TD*%
D11*
%TO.P,JP9,1,A*%
%TO.N,GNDPWR*%
X104180000Y-76980000D03*
D12*
%TO.P,JP9,2,B*%
%TO.N,Net-(JP8-B)*%
X104180000Y-75710000D03*
%TD*%
D11*
%TO.P,JP7,1,A*%
%TO.N,GNDPWR*%
X97980000Y-76980000D03*
D12*
%TO.P,JP7,2,B*%
%TO.N,Net-(JP6-B)*%
X97980000Y-75710000D03*
%TD*%
D11*
%TO.P,JP2,1,A*%
%TO.N,GNDPWR*%
X82460000Y-76980000D03*
D12*
%TO.P,JP2,2,B*%
%TO.N,Net-(JP2-B)*%
X82460000Y-75710000D03*
%TD*%
D10*
%TO.P,R16,2*%
%TO.N,Net-(R15-Pad2)*%
X107240000Y-62840000D03*
%TO.P,R16,1*%
%TO.N,Net-(JP10-B)*%
X107240000Y-73000000D03*
%TD*%
D11*
%TO.P,JP11,1,A*%
%TO.N,Net-(JP11-A)*%
X84440000Y-38720000D03*
D12*
%TO.P,JP11,2,B*%
%TO.N,GND*%
X84440000Y-37450000D03*
%TD*%
D11*
%TO.P,JP4,1,A*%
%TO.N,GNDPWR*%
X88630000Y-76980000D03*
D12*
%TO.P,JP4,2,B*%
%TO.N,Net-(JP4-B)*%
X88630000Y-75710000D03*
%TD*%
D11*
%TO.P,JP5,1,A*%
%TO.N,GNDPWR*%
X91700000Y-76980000D03*
D12*
%TO.P,JP5,2,B*%
%TO.N,Net-(JP4-B)*%
X91700000Y-75710000D03*
%TD*%
D10*
%TO.P,R8,2*%
%TO.N,Net-(R8-Pad2)*%
X85510000Y-62840000D03*
%TO.P,R8,1*%
%TO.N,Net-(JP2-B)*%
X85510000Y-73000000D03*
%TD*%
%TO.P,R14,2*%
%TO.N,Net-(R13-Pad2)*%
X101110000Y-62840000D03*
%TO.P,R14,1*%
%TO.N,Net-(JP8-B)*%
X101110000Y-73000000D03*
%TD*%
D11*
%TO.P,JP3,1,A*%
%TO.N,GNDPWR*%
X85500000Y-76980000D03*
D12*
%TO.P,JP3,2,B*%
%TO.N,Net-(JP2-B)*%
X85500000Y-75710000D03*
%TD*%
D10*
%TO.P,R1,1*%
%TO.N,Net-(JP11-A)*%
X86860000Y-38710000D03*
%TO.P,R1,2*%
%TO.N,Net-(Q1-G)*%
X97020000Y-38710000D03*
%TD*%
D13*
%TO.P,Q1,1,G*%
%TO.N,Net-(Q1-G)*%
X102320000Y-42420000D03*
D14*
%TO.P,Q1,2,D*%
%TO.N,+6V*%
X104860000Y-42420000D03*
%TO.P,Q1,3,S*%
%TO.N,+6VS*%
X107400000Y-42420000D03*
%TD*%
D10*
%TO.P,R2,1*%
%TO.N,+6VS*%
X110220000Y-61160000D03*
%TO.P,R2,2*%
%TO.N,Net-(U1-Q)*%
X120380000Y-61160000D03*
%TD*%
%TO.P,R6,1*%
%TO.N,Net-(Q3-C)*%
X99960000Y-50370000D03*
%TO.P,R6,2*%
%TO.N,+6VS*%
X110120000Y-50370000D03*
%TD*%
D15*
%TO.P,U1,1,GND*%
%TO.N,GNDPWR*%
X120580000Y-55740000D03*
D10*
%TO.P,U1,2,TR*%
%TO.N,Net-(JP1-B)*%
X118040000Y-55740000D03*
%TO.P,U1,3,Q*%
%TO.N,Net-(U1-Q)*%
X115500000Y-55740000D03*
%TO.P,U1,4,R*%
%TO.N,+6VS*%
X112960000Y-55740000D03*
%TO.P,U1,5,CV*%
%TO.N,Net-(JP1-A)*%
X112960000Y-48120000D03*
%TO.P,U1,6,THR*%
%TO.N,Net-(U1-DIS)*%
X115500000Y-48120000D03*
%TO.P,U1,7,DIS*%
X118040000Y-48120000D03*
%TO.P,U1,8,VCC*%
%TO.N,+6VS*%
X120580000Y-48120000D03*
%TD*%
%TO.P,R3,1*%
%TO.N,GND*%
X109440000Y-35610000D03*
%TO.P,R3,2*%
%TO.N,Net-(Q2-GATE)*%
X99280000Y-35610000D03*
%TD*%
D16*
%TO.P,Q3,1,C*%
%TO.N,Net-(Q3-C)*%
X112220000Y-41360000D03*
D17*
%TO.P,Q3,2,B*%
%TO.N,Net-(Q3-B)*%
X113490000Y-41360000D03*
%TO.P,Q3,3,E*%
%TO.N,Net-(Q3-E)*%
X114760000Y-41360000D03*
%TD*%
D10*
%TO.P,C1,1*%
%TO.N,Net-(JP1-A)*%
X118520000Y-58270000D03*
%TO.P,C1,2*%
%TO.N,GNDPWR*%
X121020000Y-58270000D03*
%TD*%
%TO.P,C2,1*%
%TO.N,Net-(U1-DIS)*%
X118120000Y-45560000D03*
%TO.P,C2,2*%
%TO.N,GNDPWR*%
X118120000Y-40560000D03*
%TD*%
%TO.P,R5,1*%
%TO.N,Net-(U1-DIS)*%
X88280000Y-42100000D03*
%TO.P,R5,2*%
%TO.N,+6VS*%
X98440000Y-42100000D03*
%TD*%
D13*
%TO.P,Q2,1,GATE*%
%TO.N,Net-(Q2-GATE)*%
X113460000Y-35570000D03*
D14*
%TO.P,Q2,2,DRAIN*%
%TO.N,GNDPWR*%
X116000000Y-35570000D03*
%TO.P,Q2,3,SOURCE*%
%TO.N,GND*%
X118540000Y-35570000D03*
%TD*%
D10*
%TO.P,R4,1*%
%TO.N,Net-(U1-Q)*%
X99950000Y-47320000D03*
%TO.P,R4,2*%
%TO.N,Net-(Q3-B)*%
X110110000Y-47320000D03*
%TD*%
D18*
%TO.N,GND*%
X121170000Y-40000000D03*
%TO.N,+6V*%
X121120000Y-43530000D03*
D19*
%TO.N,Net-(Q3-C)*%
X96920000Y-51480000D03*
%TD*%
D20*
%TO.N,GNDPWR*%
X107200000Y-76980000D02*
X110584839Y-76980000D01*
X110584839Y-76980000D02*
X111670000Y-75894839D01*
X111670000Y-75894839D02*
X111670000Y-66300000D01*
D21*
%TO.N,Net-(Q3-C)*%
X99960000Y-50370000D02*
X99960000Y-51380000D01*
X99960000Y-51380000D02*
X99860000Y-51480000D01*
X99860000Y-51480000D02*
X99970000Y-51480000D01*
%TO.N,Net-(Q3-B)*%
X110110000Y-47320000D02*
X110760000Y-47320000D01*
X110760000Y-47320000D02*
X113490000Y-44590000D01*
X113490000Y-44590000D02*
X113490000Y-41360000D01*
%TO.N,GND*%
X111520000Y-63790000D02*
X111670000Y-63940000D01*
X111520000Y-63610000D02*
X111520000Y-63790000D01*
D20*
X122210000Y-41040000D02*
X121170000Y-40000000D01*
X122210000Y-43981493D02*
X122210000Y-41040000D01*
X119326493Y-46865000D02*
X122210000Y-43981493D01*
X116755000Y-50170161D02*
X116755000Y-47630161D01*
X111610000Y-55315161D02*
X116755000Y-50170161D01*
X116755000Y-47630161D02*
X117520161Y-46865000D01*
X117520161Y-46865000D02*
X119326493Y-46865000D01*
X111610000Y-63880000D02*
X111610000Y-55315161D01*
X111670000Y-63940000D02*
X111610000Y-63880000D01*
%TO.N,Net-(JP13-A)*%
X110340000Y-64000000D02*
X110340000Y-66240000D01*
X110340000Y-66240000D02*
X110400000Y-66300000D01*
X110400000Y-63940000D02*
X110340000Y-64000000D01*
%TO.N,+6VS*%
X112960000Y-55740000D02*
X120580000Y-48120000D01*
%TO.N,GND*%
X107680000Y-37370000D02*
X84560000Y-37370000D01*
X109440000Y-35610000D02*
X107680000Y-37370000D01*
X110988000Y-34062000D02*
X109440000Y-35610000D01*
X118540000Y-35570000D02*
X117032000Y-34062000D01*
X117032000Y-34062000D02*
X110988000Y-34062000D01*
D21*
%TO.N,Net-(Q3-C)*%
X102100000Y-51480000D02*
X99970000Y-51480000D01*
X112220000Y-41360000D02*
X102100000Y-51480000D01*
X96920000Y-51480000D02*
X99860000Y-51480000D01*
%TD*%
%TA.AperFunction,Conductor*%
%TO.N,GNDPWR*%
G36*
X110350152Y-33420185D02*
G01*
X110395907Y-33472989D01*
X110405851Y-33542147D01*
X110376826Y-33605703D01*
X110370794Y-33612181D01*
X109700222Y-34282751D01*
X109638899Y-34316236D01*
X109593145Y-34317544D01*
X109542353Y-34309500D01*
X109542352Y-34309500D01*
X109337648Y-34309500D01*
X109313329Y-34313351D01*
X109135465Y-34341522D01*
X108940776Y-34404781D01*
X108758386Y-34497715D01*
X108592786Y-34618028D01*
X108448028Y-34762786D01*
X108327715Y-34928386D01*
X108234781Y-35110776D01*
X108171522Y-35305465D01*
X108139500Y-35507648D01*
X108139500Y-35712353D01*
X108147544Y-35763145D01*
X108138588Y-35832438D01*
X108112751Y-35870222D01*
X107403794Y-36579181D01*
X107342471Y-36612666D01*
X107316113Y-36615500D01*
X100400332Y-36615500D01*
X100333293Y-36595815D01*
X100287538Y-36543011D01*
X100277594Y-36473853D01*
X100300014Y-36418615D01*
X100345015Y-36356674D01*
X100392287Y-36291610D01*
X100485220Y-36109219D01*
X100548477Y-35914534D01*
X100580500Y-35712352D01*
X100580500Y-35507648D01*
X100561480Y-35387562D01*
X100548477Y-35305465D01*
X100488469Y-35120781D01*
X100485220Y-35110781D01*
X100485218Y-35110778D01*
X100485218Y-35110776D01*
X100442547Y-35027031D01*
X100392287Y-34928390D01*
X100363661Y-34888989D01*
X100271971Y-34762786D01*
X100127213Y-34618028D01*
X99961613Y-34497715D01*
X99961612Y-34497714D01*
X99961610Y-34497713D01*
X99904653Y-34468691D01*
X99779223Y-34404781D01*
X99584534Y-34341522D01*
X99409995Y-34313878D01*
X99382352Y-34309500D01*
X99177648Y-34309500D01*
X99153329Y-34313351D01*
X98975465Y-34341522D01*
X98780776Y-34404781D01*
X98598386Y-34497715D01*
X98432786Y-34618028D01*
X98288032Y-34762782D01*
X98288028Y-34762787D01*
X98216685Y-34860983D01*
X98161355Y-34903649D01*
X98091742Y-34909628D01*
X98029947Y-34877022D01*
X98016049Y-34860983D01*
X97951971Y-34772787D01*
X97951967Y-34772782D01*
X97807213Y-34628028D01*
X97641613Y-34507715D01*
X97641612Y-34507714D01*
X97641610Y-34507713D01*
X97584653Y-34478691D01*
X97459223Y-34414781D01*
X97264534Y-34351522D01*
X97089995Y-34323878D01*
X97062352Y-34319500D01*
X96857648Y-34319500D01*
X96833329Y-34323351D01*
X96655465Y-34351522D01*
X96460776Y-34414781D01*
X96278386Y-34507715D01*
X96112786Y-34628028D01*
X95968028Y-34772786D01*
X95847715Y-34938386D01*
X95754781Y-35120776D01*
X95691522Y-35315465D01*
X95659500Y-35517648D01*
X95659500Y-35722351D01*
X95691522Y-35924534D01*
X95754781Y-36119223D01*
X95847712Y-36301609D01*
X95932721Y-36418615D01*
X95956200Y-36484422D01*
X95940374Y-36552476D01*
X95890268Y-36601170D01*
X95832402Y-36615500D01*
X87927598Y-36615500D01*
X87860559Y-36595815D01*
X87814804Y-36543011D01*
X87804860Y-36473853D01*
X87827279Y-36418615D01*
X87858184Y-36376075D01*
X87912287Y-36301610D01*
X88005220Y-36119219D01*
X88068477Y-35924534D01*
X88100500Y-35722352D01*
X88100500Y-35517648D01*
X88068477Y-35315466D01*
X88065227Y-35305465D01*
X88025192Y-35182250D01*
X88005220Y-35120781D01*
X88005218Y-35120778D01*
X88005218Y-35120776D01*
X87953869Y-35020000D01*
X87912287Y-34938390D01*
X87904556Y-34927749D01*
X87791971Y-34772786D01*
X87647213Y-34628028D01*
X87481613Y-34507715D01*
X87481612Y-34507714D01*
X87481610Y-34507713D01*
X87424653Y-34478691D01*
X87299223Y-34414781D01*
X87104534Y-34351522D01*
X86929995Y-34323878D01*
X86902352Y-34319500D01*
X86697648Y-34319500D01*
X86673329Y-34323351D01*
X86495465Y-34351522D01*
X86300776Y-34414781D01*
X86118386Y-34507715D01*
X85952786Y-34628028D01*
X85808028Y-34772786D01*
X85687715Y-34938386D01*
X85594781Y-35120776D01*
X85531522Y-35315465D01*
X85499500Y-35517648D01*
X85499500Y-35722351D01*
X85531522Y-35924534D01*
X85594781Y-36119223D01*
X85687712Y-36301609D01*
X85772721Y-36418615D01*
X85796200Y-36484422D01*
X85780374Y-36552476D01*
X85730268Y-36601170D01*
X85672402Y-36615500D01*
X85029550Y-36615500D01*
X84962511Y-36595815D01*
X84960704Y-36594632D01*
X84913914Y-36563368D01*
X84913907Y-36563364D01*
X84731839Y-36487950D01*
X84731829Y-36487947D01*
X84538543Y-36449500D01*
X84538541Y-36449500D01*
X84341459Y-36449500D01*
X84341457Y-36449500D01*
X84148170Y-36487947D01*
X84148160Y-36487950D01*
X83966092Y-36563364D01*
X83966079Y-36563371D01*
X83802218Y-36672860D01*
X83802214Y-36672863D01*
X83662863Y-36812214D01*
X83662860Y-36812218D01*
X83553371Y-36976079D01*
X83553364Y-36976092D01*
X83477950Y-37158160D01*
X83477947Y-37158170D01*
X83439500Y-37351456D01*
X83439500Y-37351459D01*
X83439500Y-37548541D01*
X83439500Y-37548543D01*
X83439499Y-37548543D01*
X83477947Y-37741828D01*
X83477949Y-37741836D01*
X83479759Y-37746206D01*
X83515484Y-37832455D01*
X83520318Y-37844124D01*
X83527787Y-37913593D01*
X83505026Y-37965884D01*
X83496203Y-37977670D01*
X83496202Y-37977671D01*
X83445908Y-38112517D01*
X83439501Y-38172116D01*
X83439500Y-38172135D01*
X83439500Y-39267870D01*
X83439501Y-39267876D01*
X83445908Y-39327483D01*
X83496202Y-39462328D01*
X83496206Y-39462335D01*
X83582452Y-39577544D01*
X83582455Y-39577547D01*
X83697664Y-39663793D01*
X83697671Y-39663797D01*
X83832517Y-39714091D01*
X83832516Y-39714091D01*
X83839444Y-39714835D01*
X83892127Y-39720500D01*
X84987872Y-39720499D01*
X85047483Y-39714091D01*
X85182331Y-39663796D01*
X85297546Y-39577546D01*
X85383796Y-39462331D01*
X85434091Y-39327483D01*
X85438489Y-39286569D01*
X85465225Y-39222022D01*
X85522617Y-39182173D01*
X85592442Y-39179678D01*
X85652532Y-39215330D01*
X85672263Y-39243532D01*
X85747715Y-39391613D01*
X85868028Y-39557213D01*
X86012786Y-39701971D01*
X86093272Y-39760446D01*
X86178390Y-39822287D01*
X86294607Y-39881503D01*
X86360776Y-39915218D01*
X86360778Y-39915218D01*
X86360781Y-39915220D01*
X86465137Y-39949127D01*
X86555465Y-39978477D01*
X86656557Y-39994488D01*
X86757648Y-40010500D01*
X86757649Y-40010500D01*
X86962351Y-40010500D01*
X86962352Y-40010500D01*
X87164534Y-39978477D01*
X87359219Y-39915220D01*
X87541610Y-39822287D01*
X87634590Y-39754732D01*
X87707213Y-39701971D01*
X87707215Y-39701968D01*
X87707219Y-39701966D01*
X87851966Y-39557219D01*
X87851968Y-39557215D01*
X87851971Y-39557213D01*
X87920903Y-39462335D01*
X87972287Y-39391610D01*
X88065220Y-39209219D01*
X88128477Y-39014534D01*
X88160500Y-38812352D01*
X88160500Y-38607648D01*
X88128477Y-38405466D01*
X88128476Y-38405462D01*
X88128476Y-38405461D01*
X88089927Y-38286818D01*
X88087932Y-38216977D01*
X88124013Y-38157144D01*
X88186714Y-38126316D01*
X88207858Y-38124500D01*
X95672142Y-38124500D01*
X95739181Y-38144185D01*
X95784936Y-38196989D01*
X95794880Y-38266147D01*
X95790073Y-38286818D01*
X95751523Y-38405461D01*
X95751523Y-38405464D01*
X95719500Y-38607648D01*
X95719500Y-38812351D01*
X95751522Y-39014534D01*
X95814781Y-39209223D01*
X95907715Y-39391613D01*
X96028028Y-39557213D01*
X96172786Y-39701971D01*
X96253272Y-39760446D01*
X96338390Y-39822287D01*
X96454607Y-39881503D01*
X96520776Y-39915218D01*
X96520778Y-39915218D01*
X96520781Y-39915220D01*
X96625137Y-39949127D01*
X96715465Y-39978477D01*
X96816557Y-39994488D01*
X96917648Y-40010500D01*
X96917649Y-40010500D01*
X97122351Y-40010500D01*
X97122352Y-40010500D01*
X97324534Y-39978477D01*
X97519219Y-39915220D01*
X97701610Y-39822287D01*
X97794590Y-39754732D01*
X97867213Y-39701971D01*
X97867215Y-39701968D01*
X97867219Y-39701966D01*
X98011966Y-39557219D01*
X98025150Y-39539071D01*
X98080474Y-39496407D01*
X98150087Y-39490425D01*
X98211884Y-39523028D01*
X98225786Y-39539071D01*
X98268028Y-39597212D01*
X98268032Y-39597217D01*
X98412786Y-39741971D01*
X98539562Y-39834077D01*
X98578390Y-39862287D01*
X98682273Y-39915218D01*
X98760776Y-39955218D01*
X98760778Y-39955218D01*
X98760781Y-39955220D01*
X98832359Y-39978477D01*
X98955465Y-40018477D01*
X99056557Y-40034488D01*
X99157648Y-40050500D01*
X99157649Y-40050500D01*
X99362351Y-40050500D01*
X99362352Y-40050500D01*
X99564534Y-40018477D01*
X99759219Y-39955220D01*
X99941610Y-39862287D01*
X100034590Y-39794732D01*
X100107213Y-39741971D01*
X100107215Y-39741968D01*
X100107219Y-39741966D01*
X100251966Y-39597219D01*
X100251968Y-39597215D01*
X100251971Y-39597213D01*
X100305868Y-39523028D01*
X100372287Y-39431610D01*
X100465220Y-39249219D01*
X100528477Y-39054534D01*
X100560500Y-38852352D01*
X100560500Y-38647648D01*
X100528477Y-38445466D01*
X100528476Y-38445462D01*
X100528476Y-38445461D01*
X100476930Y-38286818D01*
X100474935Y-38216977D01*
X100511015Y-38157144D01*
X100573716Y-38126316D01*
X100594861Y-38124500D01*
X107599554Y-38124500D01*
X107599574Y-38124501D01*
X107605688Y-38124501D01*
X107754314Y-38124501D01*
X107814555Y-38112517D01*
X107875894Y-38100315D01*
X107900080Y-38095505D01*
X107965541Y-38068390D01*
X108037389Y-38038630D01*
X108075984Y-38012841D01*
X108142660Y-37991964D01*
X108210040Y-38010448D01*
X108256731Y-38062427D01*
X108267907Y-38131397D01*
X108255359Y-38172238D01*
X108215245Y-38250965D01*
X108152009Y-38445582D01*
X108120000Y-38647682D01*
X108120000Y-38852317D01*
X108152009Y-39054417D01*
X108215244Y-39249031D01*
X108308141Y-39431350D01*
X108308147Y-39431359D01*
X108340523Y-39475921D01*
X108340524Y-39475922D01*
X109020000Y-38796446D01*
X109020000Y-38802661D01*
X109047259Y-38904394D01*
X109099920Y-38995606D01*
X109174394Y-39070080D01*
X109265606Y-39122741D01*
X109367339Y-39150000D01*
X109373553Y-39150000D01*
X108694076Y-39829474D01*
X108738650Y-39861859D01*
X108920968Y-39954755D01*
X109115582Y-40017990D01*
X109317683Y-40050000D01*
X109522317Y-40050000D01*
X109724417Y-40017990D01*
X109919031Y-39954755D01*
X110101349Y-39861859D01*
X110145921Y-39829474D01*
X109466447Y-39150000D01*
X109472661Y-39150000D01*
X109574394Y-39122741D01*
X109665606Y-39070080D01*
X109740080Y-38995606D01*
X109792741Y-38904394D01*
X109820000Y-38802661D01*
X109820000Y-38796447D01*
X110499474Y-39475921D01*
X110499475Y-39475921D01*
X110514751Y-39454897D01*
X110514751Y-39454896D01*
X110514752Y-39454895D01*
X110531859Y-39431350D01*
X110624755Y-39249031D01*
X110687990Y-39054417D01*
X110720000Y-38852317D01*
X110720000Y-38647682D01*
X110687990Y-38445582D01*
X110624755Y-38250968D01*
X110531859Y-38068650D01*
X110499474Y-38024077D01*
X110499474Y-38024076D01*
X109820000Y-38703551D01*
X109820000Y-38697339D01*
X109792741Y-38595606D01*
X109740080Y-38504394D01*
X109665606Y-38429920D01*
X109574394Y-38377259D01*
X109472661Y-38350000D01*
X109466446Y-38350000D01*
X110145922Y-37670524D01*
X110145921Y-37670523D01*
X110101359Y-37638147D01*
X110101350Y-37638141D01*
X109919031Y-37545244D01*
X109724417Y-37482009D01*
X109522317Y-37450000D01*
X109317683Y-37450000D01*
X109115582Y-37482009D01*
X108920967Y-37545245D01*
X108906597Y-37552567D01*
X108837928Y-37565461D01*
X108773188Y-37539182D01*
X108732933Y-37482074D01*
X108729943Y-37412269D01*
X108762625Y-37354399D01*
X109179777Y-36937247D01*
X109241100Y-36903762D01*
X109286856Y-36902455D01*
X109337648Y-36910500D01*
X109337649Y-36910500D01*
X109542351Y-36910500D01*
X109542352Y-36910500D01*
X109744534Y-36878477D01*
X109939219Y-36815220D01*
X110121610Y-36722287D01*
X110265325Y-36617873D01*
X110287213Y-36601971D01*
X110287215Y-36601968D01*
X110287219Y-36601966D01*
X110431966Y-36457219D01*
X110431968Y-36457215D01*
X110431971Y-36457213D01*
X110488767Y-36379038D01*
X110552287Y-36291610D01*
X110645220Y-36109219D01*
X110708477Y-35914534D01*
X110740500Y-35712352D01*
X110740500Y-35507648D01*
X110732455Y-35456855D01*
X110741410Y-35387562D01*
X110767244Y-35349779D01*
X111264205Y-34852819D01*
X111325528Y-34819334D01*
X111351886Y-34816500D01*
X111883000Y-34816500D01*
X111950039Y-34836185D01*
X111995794Y-34888989D01*
X112007000Y-34940500D01*
X112007000Y-36617870D01*
X112007001Y-36617876D01*
X112013408Y-36677483D01*
X112063702Y-36812328D01*
X112063706Y-36812335D01*
X112149952Y-36927544D01*
X112149955Y-36927547D01*
X112265164Y-37013793D01*
X112265171Y-37013797D01*
X112400017Y-37064091D01*
X112400016Y-37064091D01*
X112406944Y-37064835D01*
X112459627Y-37070500D01*
X114460372Y-37070499D01*
X114519983Y-37064091D01*
X114654831Y-37013796D01*
X114770046Y-36927546D01*
X114856296Y-36812331D01*
X114866872Y-36783974D01*
X114908740Y-36728041D01*
X114974204Y-36703622D01*
X115042477Y-36718472D01*
X115055940Y-36726988D01*
X115238723Y-36859788D01*
X115442429Y-36963582D01*
X115659871Y-37034234D01*
X115750000Y-37048509D01*
X115750000Y-36060747D01*
X115787708Y-36082518D01*
X115927591Y-36120000D01*
X116072409Y-36120000D01*
X116212292Y-36082518D01*
X116250000Y-36060747D01*
X116250000Y-37048508D01*
X116340128Y-37034234D01*
X116557570Y-36963582D01*
X116761276Y-36859788D01*
X116946242Y-36725402D01*
X117107905Y-36563739D01*
X117169371Y-36479137D01*
X117224701Y-36436470D01*
X117294314Y-36430491D01*
X117356109Y-36463096D01*
X117370007Y-36479134D01*
X117431714Y-36564066D01*
X117593434Y-36725786D01*
X117778462Y-36860217D01*
X117910599Y-36927544D01*
X117982244Y-36964049D01*
X118199751Y-37034721D01*
X118199752Y-37034721D01*
X118199755Y-37034722D01*
X118425646Y-37070500D01*
X118425647Y-37070500D01*
X118654353Y-37070500D01*
X118654354Y-37070500D01*
X118880245Y-37034722D01*
X118880248Y-37034721D01*
X118880249Y-37034721D01*
X119097755Y-36964049D01*
X119097755Y-36964048D01*
X119097758Y-36964048D01*
X119301538Y-36860217D01*
X119486566Y-36725786D01*
X119648286Y-36564066D01*
X119782717Y-36379038D01*
X119886548Y-36175258D01*
X119957222Y-35957745D01*
X119993000Y-35731854D01*
X119993000Y-35408146D01*
X119957222Y-35182255D01*
X119957221Y-35182251D01*
X119957221Y-35182250D01*
X119886549Y-34964744D01*
X119858466Y-34909628D01*
X119782717Y-34760962D01*
X119648286Y-34575934D01*
X119486566Y-34414214D01*
X119301538Y-34279783D01*
X119097755Y-34175950D01*
X118880248Y-34105278D01*
X118710826Y-34078444D01*
X118654354Y-34069500D01*
X118425646Y-34069500D01*
X118386660Y-34075674D01*
X118212561Y-34103249D01*
X118143267Y-34094294D01*
X118105482Y-34068457D01*
X117649207Y-33612181D01*
X117615722Y-33550858D01*
X117620706Y-33481166D01*
X117662578Y-33425233D01*
X117728042Y-33400816D01*
X117736888Y-33400500D01*
X122475500Y-33400500D01*
X122542539Y-33420185D01*
X122588294Y-33472989D01*
X122599500Y-33524500D01*
X122599500Y-40063113D01*
X122593261Y-40084358D01*
X122591682Y-40106447D01*
X122583609Y-40117230D01*
X122579815Y-40130152D01*
X122563081Y-40144651D01*
X122549810Y-40162380D01*
X122537189Y-40167087D01*
X122527011Y-40175907D01*
X122505093Y-40179058D01*
X122484346Y-40186797D01*
X122471185Y-40183934D01*
X122457853Y-40185851D01*
X122437709Y-40176651D01*
X122416073Y-40171945D01*
X122398347Y-40158676D01*
X122394297Y-40156826D01*
X122387819Y-40150794D01*
X122341819Y-40104794D01*
X122308334Y-40043471D01*
X122305500Y-40017113D01*
X122305500Y-39910634D01*
X122299207Y-39870904D01*
X122277540Y-39734103D01*
X122277539Y-39734099D01*
X122277539Y-39734098D01*
X122222310Y-39564121D01*
X122222308Y-39564118D01*
X122218795Y-39557222D01*
X122141167Y-39404868D01*
X122036111Y-39260272D01*
X121909728Y-39133889D01*
X121765132Y-39028833D01*
X121605881Y-38947691D01*
X121605878Y-38947689D01*
X121435899Y-38892460D01*
X121318209Y-38873820D01*
X121259366Y-38864500D01*
X121080634Y-38864500D01*
X121021790Y-38873820D01*
X120904101Y-38892460D01*
X120904098Y-38892460D01*
X120734121Y-38947689D01*
X120734118Y-38947691D01*
X120574867Y-39028833D01*
X120430270Y-39133890D01*
X120303890Y-39260270D01*
X120198833Y-39404867D01*
X120117691Y-39564118D01*
X120117689Y-39564121D01*
X120062460Y-39734098D01*
X120062460Y-39734101D01*
X120046550Y-39834555D01*
X120034500Y-39910634D01*
X120034500Y-40089366D01*
X120037689Y-40109500D01*
X120062460Y-40265898D01*
X120062460Y-40265901D01*
X120117689Y-40435878D01*
X120117691Y-40435881D01*
X120198833Y-40595132D01*
X120303889Y-40739728D01*
X120430272Y-40866111D01*
X120574868Y-40971167D01*
X120734119Y-41052309D01*
X120734121Y-41052310D01*
X120892670Y-41103825D01*
X120904103Y-41107540D01*
X121080634Y-41135500D01*
X121187113Y-41135500D01*
X121216553Y-41144144D01*
X121246540Y-41150668D01*
X121251555Y-41154422D01*
X121254152Y-41155185D01*
X121274794Y-41171819D01*
X121419181Y-41316206D01*
X121452666Y-41377529D01*
X121455500Y-41403887D01*
X121455500Y-42288298D01*
X121435815Y-42355337D01*
X121383011Y-42401092D01*
X121313853Y-42411036D01*
X121312103Y-42410772D01*
X121304143Y-42409511D01*
X121209366Y-42394500D01*
X121030634Y-42394500D01*
X121001743Y-42399076D01*
X120854101Y-42422460D01*
X120854098Y-42422460D01*
X120684121Y-42477689D01*
X120684118Y-42477691D01*
X120524867Y-42558833D01*
X120380270Y-42663890D01*
X120253890Y-42790270D01*
X120148833Y-42934867D01*
X120067691Y-43094118D01*
X120067689Y-43094121D01*
X120012460Y-43264098D01*
X120012460Y-43264101D01*
X119984500Y-43440634D01*
X119984500Y-43619365D01*
X120012460Y-43795898D01*
X120012460Y-43795901D01*
X120067689Y-43965878D01*
X120067691Y-43965881D01*
X120148833Y-44125132D01*
X120253889Y-44269728D01*
X120380272Y-44396111D01*
X120464424Y-44457251D01*
X120507088Y-44512580D01*
X120513067Y-44582194D01*
X120480461Y-44643989D01*
X120479218Y-44645249D01*
X119626262Y-45498205D01*
X119564939Y-45531690D01*
X119495247Y-45526706D01*
X119439314Y-45484834D01*
X119416108Y-45429924D01*
X119388477Y-45255466D01*
X119325220Y-45060781D01*
X119325218Y-45060778D01*
X119325218Y-45060776D01*
X119273043Y-44958378D01*
X119232287Y-44878390D01*
X119155746Y-44773039D01*
X119111971Y-44712786D01*
X118967213Y-44568028D01*
X118801613Y-44447715D01*
X118801612Y-44447714D01*
X118801610Y-44447713D01*
X118700330Y-44396108D01*
X118619223Y-44354781D01*
X118424534Y-44291522D01*
X118249995Y-44263878D01*
X118222352Y-44259500D01*
X118017648Y-44259500D01*
X117993329Y-44263351D01*
X117815465Y-44291522D01*
X117620776Y-44354781D01*
X117438386Y-44447715D01*
X117272786Y-44568028D01*
X117128028Y-44712786D01*
X117007715Y-44878386D01*
X116914781Y-45060776D01*
X116851522Y-45255465D01*
X116819500Y-45457648D01*
X116819500Y-45662351D01*
X116851522Y-45864534D01*
X116914781Y-46059223D01*
X116990039Y-46206923D01*
X117002935Y-46275592D01*
X116976659Y-46340333D01*
X116967235Y-46350899D01*
X116330600Y-46987534D01*
X116269277Y-47021019D01*
X116199585Y-47016035D01*
X116186170Y-47009493D01*
X116185951Y-47009925D01*
X115999223Y-46914781D01*
X115804534Y-46851522D01*
X115629995Y-46823878D01*
X115602352Y-46819500D01*
X115397648Y-46819500D01*
X115373329Y-46823351D01*
X115195465Y-46851522D01*
X115000776Y-46914781D01*
X114818386Y-47007715D01*
X114652786Y-47128028D01*
X114508028Y-47272786D01*
X114387715Y-47438386D01*
X114340485Y-47531080D01*
X114292510Y-47581876D01*
X114224689Y-47598671D01*
X114158554Y-47576134D01*
X114119515Y-47531080D01*
X114118883Y-47529840D01*
X114072287Y-47438390D01*
X114059706Y-47421074D01*
X113951971Y-47272786D01*
X113807213Y-47128028D01*
X113641613Y-47007715D01*
X113641612Y-47007714D01*
X113641610Y-47007713D01*
X113567522Y-46969963D01*
X113459223Y-46914781D01*
X113264534Y-46851522D01*
X113089995Y-46823878D01*
X113062352Y-46819500D01*
X112857648Y-46819500D01*
X112833329Y-46823351D01*
X112655465Y-46851522D01*
X112460773Y-46914782D01*
X112326214Y-46983344D01*
X112257545Y-46996240D01*
X112192805Y-46969963D01*
X112152548Y-46912857D01*
X112149556Y-46843051D01*
X112182237Y-46785181D01*
X113977411Y-44990008D01*
X113980112Y-44985965D01*
X114046083Y-44887233D01*
X114059937Y-44853784D01*
X114093386Y-44773035D01*
X114117500Y-44651803D01*
X114117500Y-44528197D01*
X114117500Y-42614439D01*
X114137185Y-42547400D01*
X114189989Y-42501645D01*
X114259147Y-42491701D01*
X114288947Y-42499876D01*
X114460873Y-42571091D01*
X114626777Y-42604091D01*
X114658992Y-42610499D01*
X114658996Y-42610500D01*
X114658997Y-42610500D01*
X114861004Y-42610500D01*
X114861005Y-42610499D01*
X115059127Y-42571091D01*
X115245756Y-42493786D01*
X115413718Y-42381558D01*
X115556558Y-42238718D01*
X115668786Y-42070756D01*
X115746091Y-41884127D01*
X115785500Y-41686003D01*
X115785500Y-41033997D01*
X115746091Y-40835873D01*
X115668786Y-40649244D01*
X115668784Y-40649241D01*
X115668782Y-40649237D01*
X115583569Y-40521707D01*
X115583568Y-40521706D01*
X115573968Y-40507339D01*
X115556558Y-40481282D01*
X115556556Y-40481279D01*
X115532959Y-40457682D01*
X116820000Y-40457682D01*
X116820000Y-40662317D01*
X116852009Y-40864417D01*
X116915244Y-41059031D01*
X117008141Y-41241350D01*
X117008147Y-41241359D01*
X117040523Y-41285921D01*
X117040524Y-41285922D01*
X117720000Y-40606446D01*
X117720000Y-40612661D01*
X117747259Y-40714394D01*
X117799920Y-40805606D01*
X117874394Y-40880080D01*
X117965606Y-40932741D01*
X118067339Y-40960000D01*
X118073553Y-40960000D01*
X117394076Y-41639474D01*
X117438650Y-41671859D01*
X117620968Y-41764755D01*
X117815582Y-41827990D01*
X118017683Y-41860000D01*
X118222317Y-41860000D01*
X118424417Y-41827990D01*
X118619031Y-41764755D01*
X118801349Y-41671859D01*
X118845921Y-41639474D01*
X118166447Y-40960000D01*
X118172661Y-40960000D01*
X118274394Y-40932741D01*
X118365606Y-40880080D01*
X118440080Y-40805606D01*
X118492741Y-40714394D01*
X118520000Y-40612661D01*
X118520000Y-40606447D01*
X119199474Y-41285921D01*
X119231859Y-41241349D01*
X119324755Y-41059031D01*
X119387990Y-40864417D01*
X119420000Y-40662317D01*
X119420000Y-40457682D01*
X119387990Y-40255582D01*
X119324755Y-40060968D01*
X119231859Y-39878650D01*
X119199474Y-39834077D01*
X119199474Y-39834076D01*
X118520000Y-40513551D01*
X118520000Y-40507339D01*
X118492741Y-40405606D01*
X118440080Y-40314394D01*
X118365606Y-40239920D01*
X118274394Y-40187259D01*
X118172661Y-40160000D01*
X118166446Y-40160000D01*
X118845922Y-39480524D01*
X118845921Y-39480523D01*
X118801359Y-39448147D01*
X118801350Y-39448141D01*
X118619031Y-39355244D01*
X118424417Y-39292009D01*
X118222317Y-39260000D01*
X118017683Y-39260000D01*
X117815582Y-39292009D01*
X117620968Y-39355244D01*
X117438644Y-39448143D01*
X117394077Y-39480523D01*
X117394077Y-39480524D01*
X118073554Y-40160000D01*
X118067339Y-40160000D01*
X117965606Y-40187259D01*
X117874394Y-40239920D01*
X117799920Y-40314394D01*
X117747259Y-40405606D01*
X117720000Y-40507339D01*
X117720000Y-40513553D01*
X117040524Y-39834077D01*
X117040523Y-39834077D01*
X117008143Y-39878644D01*
X116915244Y-40060968D01*
X116852009Y-40255582D01*
X116820000Y-40457682D01*
X115532959Y-40457682D01*
X115413718Y-40338441D01*
X115245762Y-40226217D01*
X115245752Y-40226212D01*
X115059127Y-40148909D01*
X115059119Y-40148907D01*
X114861007Y-40109500D01*
X114861003Y-40109500D01*
X114658997Y-40109500D01*
X114658992Y-40109500D01*
X114460880Y-40148907D01*
X114460872Y-40148909D01*
X114274244Y-40226213D01*
X114193891Y-40279904D01*
X114127213Y-40300782D01*
X114059833Y-40282297D01*
X114056109Y-40279904D01*
X114030587Y-40262851D01*
X113996269Y-40239920D01*
X113975755Y-40226213D01*
X113789127Y-40148909D01*
X113789119Y-40148907D01*
X113591007Y-40109500D01*
X113591003Y-40109500D01*
X113388997Y-40109500D01*
X113388992Y-40109500D01*
X113190880Y-40148907D01*
X113190868Y-40148910D01*
X113110198Y-40182325D01*
X113040729Y-40189794D01*
X112995342Y-40170036D01*
X112995114Y-40170454D01*
X112990447Y-40167905D01*
X112988432Y-40167028D01*
X112987331Y-40166204D01*
X112987330Y-40166203D01*
X112987328Y-40166202D01*
X112852482Y-40115908D01*
X112852483Y-40115908D01*
X112792883Y-40109501D01*
X112792881Y-40109500D01*
X112792873Y-40109500D01*
X112792864Y-40109500D01*
X111647129Y-40109500D01*
X111647123Y-40109501D01*
X111587516Y-40115908D01*
X111452671Y-40166202D01*
X111452664Y-40166206D01*
X111337455Y-40252452D01*
X111337452Y-40252455D01*
X111251206Y-40367664D01*
X111251202Y-40367671D01*
X111200908Y-40502517D01*
X111194501Y-40562116D01*
X111194500Y-40562135D01*
X111194500Y-41446718D01*
X111174815Y-41513757D01*
X111158181Y-41534399D01*
X101876400Y-50816181D01*
X101815077Y-50849666D01*
X101788719Y-50852500D01*
X101341323Y-50852500D01*
X101274284Y-50832815D01*
X101228529Y-50780011D01*
X101218585Y-50710853D01*
X101223393Y-50690180D01*
X101226863Y-50679500D01*
X101228477Y-50674534D01*
X101260500Y-50472352D01*
X101260500Y-50267648D01*
X101228477Y-50065466D01*
X101165220Y-49870781D01*
X101165218Y-49870778D01*
X101165218Y-49870776D01*
X101131503Y-49804607D01*
X101072287Y-49688390D01*
X101029981Y-49630160D01*
X100951971Y-49522786D01*
X100807213Y-49378028D01*
X100641613Y-49257715D01*
X100641612Y-49257714D01*
X100641610Y-49257713D01*
X100584653Y-49228691D01*
X100459223Y-49164781D01*
X100264534Y-49101522D01*
X100089995Y-49073878D01*
X100062352Y-49069500D01*
X99857648Y-49069500D01*
X99833329Y-49073351D01*
X99655465Y-49101522D01*
X99460776Y-49164781D01*
X99278386Y-49257715D01*
X99112786Y-49378028D01*
X98968028Y-49522786D01*
X98847715Y-49688386D01*
X98754781Y-49870776D01*
X98691522Y-50065465D01*
X98659500Y-50267648D01*
X98659500Y-50472351D01*
X98691522Y-50674530D01*
X98691523Y-50674534D01*
X98696607Y-50690180D01*
X98698604Y-50760021D01*
X98662524Y-50819855D01*
X98599823Y-50850684D01*
X98578677Y-50852500D01*
X97459357Y-50852500D01*
X97392318Y-50832815D01*
X97390466Y-50831602D01*
X97299185Y-50770609D01*
X97299172Y-50770602D01*
X97153501Y-50710264D01*
X97153489Y-50710261D01*
X96998845Y-50679500D01*
X96998842Y-50679500D01*
X96841158Y-50679500D01*
X96841155Y-50679500D01*
X96686510Y-50710261D01*
X96686498Y-50710264D01*
X96540827Y-50770602D01*
X96540814Y-50770609D01*
X96409711Y-50858210D01*
X96409707Y-50858213D01*
X96298213Y-50969707D01*
X96298210Y-50969711D01*
X96210609Y-51100814D01*
X96210602Y-51100827D01*
X96150264Y-51246498D01*
X96150261Y-51246510D01*
X96119500Y-51401153D01*
X96119500Y-51558846D01*
X96150261Y-51713489D01*
X96150264Y-51713501D01*
X96210602Y-51859172D01*
X96210609Y-51859185D01*
X96298210Y-51990288D01*
X96298213Y-51990292D01*
X96409707Y-52101786D01*
X96409711Y-52101789D01*
X96540814Y-52189390D01*
X96540827Y-52189397D01*
X96686498Y-52249735D01*
X96686503Y-52249737D01*
X96841153Y-52280499D01*
X96841156Y-52280500D01*
X96841158Y-52280500D01*
X96998844Y-52280500D01*
X96998845Y-52280499D01*
X97153497Y-52249737D01*
X97299179Y-52189394D01*
X97390466Y-52128398D01*
X97457143Y-52107520D01*
X97459357Y-52107500D01*
X102161804Y-52107500D01*
X102161805Y-52107499D01*
X102283035Y-52083386D01*
X102363784Y-52049937D01*
X102397233Y-52036083D01*
X102500008Y-51967411D01*
X102587411Y-51880008D01*
X104199771Y-50267648D01*
X108819500Y-50267648D01*
X108819500Y-50472351D01*
X108851522Y-50674534D01*
X108914781Y-50869223D01*
X109007715Y-51051613D01*
X109128028Y-51217213D01*
X109272786Y-51361971D01*
X109427749Y-51474556D01*
X109438390Y-51482287D01*
X109554607Y-51541503D01*
X109620776Y-51575218D01*
X109620778Y-51575218D01*
X109620781Y-51575220D01*
X109725137Y-51609127D01*
X109815465Y-51638477D01*
X109916557Y-51654488D01*
X110017648Y-51670500D01*
X110017649Y-51670500D01*
X110222351Y-51670500D01*
X110222352Y-51670500D01*
X110424534Y-51638477D01*
X110619219Y-51575220D01*
X110801610Y-51482287D01*
X110894590Y-51414732D01*
X110967213Y-51361971D01*
X110967215Y-51361968D01*
X110967219Y-51361966D01*
X111111966Y-51217219D01*
X111111968Y-51217215D01*
X111111971Y-51217213D01*
X111196538Y-51100814D01*
X111232287Y-51051610D01*
X111325220Y-50869219D01*
X111388477Y-50674534D01*
X111420500Y-50472352D01*
X111420500Y-50267648D01*
X111388477Y-50065466D01*
X111325220Y-49870781D01*
X111325218Y-49870778D01*
X111325218Y-49870776D01*
X111291503Y-49804607D01*
X111232287Y-49688390D01*
X111189981Y-49630160D01*
X111111971Y-49522786D01*
X110967213Y-49378028D01*
X110801613Y-49257715D01*
X110801612Y-49257714D01*
X110801610Y-49257713D01*
X110744653Y-49228691D01*
X110619223Y-49164781D01*
X110424534Y-49101522D01*
X110249995Y-49073878D01*
X110222352Y-49069500D01*
X110017648Y-49069500D01*
X109993329Y-49073351D01*
X109815465Y-49101522D01*
X109620776Y-49164781D01*
X109438386Y-49257715D01*
X109272786Y-49378028D01*
X109128028Y-49522786D01*
X109007715Y-49688386D01*
X108914781Y-49870776D01*
X108851522Y-50065465D01*
X108819500Y-50267648D01*
X104199771Y-50267648D01*
X107249771Y-47217648D01*
X111820600Y-42646818D01*
X111881923Y-42613333D01*
X111908281Y-42610499D01*
X112738500Y-42610499D01*
X112805539Y-42630184D01*
X112851294Y-42682988D01*
X112862500Y-42734499D01*
X112862500Y-44278718D01*
X112842815Y-44345757D01*
X112826181Y-44366399D01*
X110978429Y-46214150D01*
X110917106Y-46247635D01*
X110847414Y-46242651D01*
X110817863Y-46226787D01*
X110800470Y-46214150D01*
X110791611Y-46207713D01*
X110609223Y-46114781D01*
X110414534Y-46051522D01*
X110239995Y-46023878D01*
X110212352Y-46019500D01*
X110007648Y-46019500D01*
X109983329Y-46023351D01*
X109805465Y-46051522D01*
X109610776Y-46114781D01*
X109428386Y-46207715D01*
X109262786Y-46328028D01*
X109118028Y-46472786D01*
X108997715Y-46638386D01*
X108904781Y-46820776D01*
X108841522Y-47015465D01*
X108809500Y-47217648D01*
X108809500Y-47422351D01*
X108841522Y-47624534D01*
X108904781Y-47819223D01*
X108997715Y-48001613D01*
X109118028Y-48167213D01*
X109262786Y-48311971D01*
X109404483Y-48414918D01*
X109428390Y-48432287D01*
X109544607Y-48491503D01*
X109610776Y-48525218D01*
X109610778Y-48525218D01*
X109610781Y-48525220D01*
X109715137Y-48559127D01*
X109805465Y-48588477D01*
X109906557Y-48604488D01*
X110007648Y-48620500D01*
X110007649Y-48620500D01*
X110212351Y-48620500D01*
X110212352Y-48620500D01*
X110414534Y-48588477D01*
X110609219Y-48525220D01*
X110791610Y-48432287D01*
X110884590Y-48364732D01*
X110957213Y-48311971D01*
X110957215Y-48311968D01*
X110957219Y-48311966D01*
X111101966Y-48167219D01*
X111101968Y-48167215D01*
X111101971Y-48167213D01*
X111154732Y-48094590D01*
X111222287Y-48001610D01*
X111315220Y-47819219D01*
X111378477Y-47624534D01*
X111378871Y-47622042D01*
X111379283Y-47621173D01*
X111379612Y-47619805D01*
X111379899Y-47619873D01*
X111408794Y-47558909D01*
X111413646Y-47553771D01*
X111625180Y-47342237D01*
X111686501Y-47308754D01*
X111756193Y-47313738D01*
X111812126Y-47355610D01*
X111836543Y-47421074D01*
X111823344Y-47486214D01*
X111754782Y-47620773D01*
X111691522Y-47815465D01*
X111659500Y-48017648D01*
X111659500Y-48222351D01*
X111691522Y-48424534D01*
X111754781Y-48619223D01*
X111847715Y-48801613D01*
X111968028Y-48967213D01*
X112112786Y-49111971D01*
X112267749Y-49224556D01*
X112278390Y-49232287D01*
X112394607Y-49291503D01*
X112460776Y-49325218D01*
X112460778Y-49325218D01*
X112460781Y-49325220D01*
X112565137Y-49359127D01*
X112655465Y-49388477D01*
X112756557Y-49404488D01*
X112857648Y-49420500D01*
X112857649Y-49420500D01*
X113062351Y-49420500D01*
X113062352Y-49420500D01*
X113264534Y-49388477D01*
X113459219Y-49325220D01*
X113641610Y-49232287D01*
X113734590Y-49164732D01*
X113807213Y-49111971D01*
X113807215Y-49111968D01*
X113807219Y-49111966D01*
X113951966Y-48967219D01*
X113951968Y-48967215D01*
X113951971Y-48967213D01*
X114072284Y-48801614D01*
X114072285Y-48801613D01*
X114072287Y-48801610D01*
X114119516Y-48708917D01*
X114167489Y-48658123D01*
X114235310Y-48641328D01*
X114301445Y-48663865D01*
X114340485Y-48708919D01*
X114387715Y-48801614D01*
X114508028Y-48967213D01*
X114652786Y-49111971D01*
X114807749Y-49224556D01*
X114818390Y-49232287D01*
X114934607Y-49291503D01*
X115000776Y-49325218D01*
X115000778Y-49325218D01*
X115000781Y-49325220D01*
X115105137Y-49359127D01*
X115195465Y-49388477D01*
X115296557Y-49404488D01*
X115397648Y-49420500D01*
X115397649Y-49420500D01*
X115602351Y-49420500D01*
X115602352Y-49420500D01*
X115804534Y-49388477D01*
X115804539Y-49388475D01*
X115804541Y-49388475D01*
X115838180Y-49377545D01*
X115908021Y-49375548D01*
X115967854Y-49411628D01*
X115998684Y-49474328D01*
X116000500Y-49495475D01*
X116000500Y-49806273D01*
X115980815Y-49873312D01*
X115964181Y-49893954D01*
X111023943Y-54834191D01*
X111023942Y-54834192D01*
X110941372Y-54957768D01*
X110941366Y-54957779D01*
X110884496Y-55095077D01*
X110884493Y-55095087D01*
X110855499Y-55240846D01*
X110855499Y-55395586D01*
X110855500Y-55395607D01*
X110855500Y-59828388D01*
X110835815Y-59895427D01*
X110783011Y-59941182D01*
X110713853Y-59951126D01*
X110693182Y-59946319D01*
X110524537Y-59891523D01*
X110372897Y-59867505D01*
X110322352Y-59859500D01*
X110117648Y-59859500D01*
X110093329Y-59863351D01*
X109915465Y-59891522D01*
X109720776Y-59954781D01*
X109538386Y-60047715D01*
X109372786Y-60168028D01*
X109228028Y-60312786D01*
X109107715Y-60478386D01*
X109014781Y-60660776D01*
X108951522Y-60855465D01*
X108919500Y-61057648D01*
X108919500Y-61262351D01*
X108951522Y-61464534D01*
X109014781Y-61659223D01*
X109107715Y-61841613D01*
X109228028Y-62007213D01*
X109372786Y-62151971D01*
X109527749Y-62264556D01*
X109538390Y-62272287D01*
X109654607Y-62331503D01*
X109720776Y-62365218D01*
X109720778Y-62365218D01*
X109720781Y-62365220D01*
X109825137Y-62399127D01*
X109915465Y-62428477D01*
X110016557Y-62444488D01*
X110117648Y-62460500D01*
X110117649Y-62460500D01*
X110322351Y-62460500D01*
X110322352Y-62460500D01*
X110524534Y-62428477D01*
X110693185Y-62373678D01*
X110763022Y-62371684D01*
X110822855Y-62407764D01*
X110853684Y-62470464D01*
X110855500Y-62491610D01*
X110855500Y-62815500D01*
X110835815Y-62882539D01*
X110783011Y-62928294D01*
X110731500Y-62939500D01*
X109852129Y-62939500D01*
X109852123Y-62939501D01*
X109792516Y-62945908D01*
X109657671Y-62996202D01*
X109657664Y-62996206D01*
X109542455Y-63082452D01*
X109542452Y-63082455D01*
X109456206Y-63197664D01*
X109456202Y-63197671D01*
X109405908Y-63332517D01*
X109399501Y-63392116D01*
X109399500Y-63392135D01*
X109399500Y-64487870D01*
X109399501Y-64487876D01*
X109405908Y-64547483D01*
X109456202Y-64682328D01*
X109456203Y-64682329D01*
X109456204Y-64682331D01*
X109542454Y-64797546D01*
X109542457Y-64797548D01*
X109548722Y-64803813D01*
X109546144Y-64806390D01*
X109577660Y-64848447D01*
X109585500Y-64891839D01*
X109585500Y-65348160D01*
X109565815Y-65415199D01*
X109547469Y-65434929D01*
X109548724Y-65436184D01*
X109542452Y-65442455D01*
X109456206Y-65557664D01*
X109456202Y-65557671D01*
X109405908Y-65692517D01*
X109399501Y-65752116D01*
X109399500Y-65752135D01*
X109399500Y-66847870D01*
X109399501Y-66847876D01*
X109405908Y-66907483D01*
X109456202Y-67042328D01*
X109456206Y-67042335D01*
X109542452Y-67157544D01*
X109542455Y-67157547D01*
X109657664Y-67243793D01*
X109657671Y-67243797D01*
X109792517Y-67294091D01*
X109792516Y-67294091D01*
X109799444Y-67294835D01*
X109852127Y-67300500D01*
X110947872Y-67300499D01*
X111007483Y-67294091D01*
X111142331Y-67243796D01*
X111154575Y-67234629D01*
X111220035Y-67210210D01*
X111276339Y-67219333D01*
X111378309Y-67261570D01*
X111378318Y-67261573D01*
X111571504Y-67299999D01*
X111571508Y-67300000D01*
X111768492Y-67300000D01*
X111768495Y-67299999D01*
X111961681Y-67261572D01*
X111961693Y-67261569D01*
X112143676Y-67186190D01*
X112143680Y-67186187D01*
X112179019Y-67162573D01*
X112179020Y-67162572D01*
X111641447Y-66625000D01*
X111712787Y-66625000D01*
X111795445Y-66602851D01*
X111869554Y-66560064D01*
X111930064Y-66499554D01*
X111972851Y-66425445D01*
X111995000Y-66342787D01*
X111995000Y-66299999D01*
X112023553Y-66299999D01*
X112023553Y-66300000D01*
X112532572Y-66809020D01*
X112532573Y-66809019D01*
X112556187Y-66773680D01*
X112556190Y-66773676D01*
X112631569Y-66591693D01*
X112631572Y-66591681D01*
X112669999Y-66398495D01*
X112670000Y-66398492D01*
X112670000Y-66201508D01*
X112669999Y-66201504D01*
X112631572Y-66008318D01*
X112631569Y-66008306D01*
X112556192Y-65826328D01*
X112532572Y-65790979D01*
X112023553Y-66299999D01*
X111995000Y-66299999D01*
X111995000Y-66257213D01*
X111972851Y-66174555D01*
X111930064Y-66100446D01*
X111869554Y-66039936D01*
X111795445Y-65997149D01*
X111712787Y-65975000D01*
X111641446Y-65975000D01*
X112179019Y-65437426D01*
X112143675Y-65413809D01*
X112143673Y-65413808D01*
X111961693Y-65338430D01*
X111961681Y-65338427D01*
X111768495Y-65300000D01*
X111571504Y-65300000D01*
X111378317Y-65338427D01*
X111378300Y-65338432D01*
X111276340Y-65380665D01*
X111265133Y-65381869D01*
X111255241Y-65387271D01*
X111231018Y-65385537D01*
X111206870Y-65388134D01*
X111194982Y-65382958D01*
X111185550Y-65382284D01*
X111154574Y-65365368D01*
X111144186Y-65357591D01*
X111102317Y-65301656D01*
X111094500Y-65258327D01*
X111094500Y-64981671D01*
X111114185Y-64914632D01*
X111144181Y-64882410D01*
X111154112Y-64874976D01*
X111219571Y-64850558D01*
X111275872Y-64859680D01*
X111378165Y-64902051D01*
X111378169Y-64902051D01*
X111378170Y-64902052D01*
X111571456Y-64940500D01*
X111571459Y-64940500D01*
X111768543Y-64940500D01*
X111898582Y-64914632D01*
X111961835Y-64902051D01*
X112143914Y-64826632D01*
X112307782Y-64717139D01*
X112447139Y-64577782D01*
X112556632Y-64413914D01*
X112632051Y-64231835D01*
X112656589Y-64108477D01*
X112670500Y-64038543D01*
X112670500Y-63841456D01*
X112632052Y-63648170D01*
X112632051Y-63648169D01*
X112632051Y-63648165D01*
X112579631Y-63521610D01*
X112556635Y-63466092D01*
X112556628Y-63466079D01*
X112447139Y-63302218D01*
X112447136Y-63302214D01*
X112400819Y-63255897D01*
X112367334Y-63194574D01*
X112364500Y-63168216D01*
X112364500Y-61057648D01*
X119079500Y-61057648D01*
X119079500Y-61262351D01*
X119111522Y-61464534D01*
X119174781Y-61659223D01*
X119267715Y-61841613D01*
X119388028Y-62007213D01*
X119532786Y-62151971D01*
X119687749Y-62264556D01*
X119698390Y-62272287D01*
X119814607Y-62331503D01*
X119880776Y-62365218D01*
X119880778Y-62365218D01*
X119880781Y-62365220D01*
X119985137Y-62399127D01*
X120075465Y-62428477D01*
X120176557Y-62444488D01*
X120277648Y-62460500D01*
X120277649Y-62460500D01*
X120482351Y-62460500D01*
X120482352Y-62460500D01*
X120684534Y-62428477D01*
X120879219Y-62365220D01*
X121061610Y-62272287D01*
X121154590Y-62204732D01*
X121227213Y-62151971D01*
X121227215Y-62151968D01*
X121227219Y-62151966D01*
X121371966Y-62007219D01*
X121371968Y-62007215D01*
X121371971Y-62007213D01*
X121424732Y-61934590D01*
X121492287Y-61841610D01*
X121585220Y-61659219D01*
X121648477Y-61464534D01*
X121680500Y-61262352D01*
X121680500Y-61057648D01*
X121648477Y-60855466D01*
X121585220Y-60660781D01*
X121585218Y-60660778D01*
X121585218Y-60660776D01*
X121551503Y-60594607D01*
X121492287Y-60478390D01*
X121484556Y-60467749D01*
X121371971Y-60312786D01*
X121227213Y-60168028D01*
X121061613Y-60047715D01*
X121061612Y-60047714D01*
X121061610Y-60047713D01*
X121004653Y-60018691D01*
X120879223Y-59954781D01*
X120684534Y-59891522D01*
X120509995Y-59863878D01*
X120482352Y-59859500D01*
X120277648Y-59859500D01*
X120253329Y-59863351D01*
X120075465Y-59891522D01*
X119880776Y-59954781D01*
X119698386Y-60047715D01*
X119532786Y-60168028D01*
X119388028Y-60312786D01*
X119267715Y-60478386D01*
X119174781Y-60660776D01*
X119111522Y-60855465D01*
X119079500Y-61057648D01*
X112364500Y-61057648D01*
X112364500Y-57084607D01*
X112384185Y-57017568D01*
X112436989Y-56971813D01*
X112506147Y-56961869D01*
X112526807Y-56966673D01*
X112595544Y-56989007D01*
X112655465Y-57008477D01*
X112712863Y-57017568D01*
X112857648Y-57040500D01*
X112857649Y-57040500D01*
X113062351Y-57040500D01*
X113062352Y-57040500D01*
X113264534Y-57008477D01*
X113459219Y-56945220D01*
X113641610Y-56852287D01*
X113734590Y-56784732D01*
X113807213Y-56731971D01*
X113807215Y-56731968D01*
X113807219Y-56731966D01*
X113951966Y-56587219D01*
X113951968Y-56587215D01*
X113951971Y-56587213D01*
X114072284Y-56421614D01*
X114072283Y-56421614D01*
X114072287Y-56421610D01*
X114119516Y-56328917D01*
X114167489Y-56278123D01*
X114235310Y-56261328D01*
X114301445Y-56283865D01*
X114340483Y-56328917D01*
X114384348Y-56415006D01*
X114387715Y-56421614D01*
X114508028Y-56587213D01*
X114652786Y-56731971D01*
X114794402Y-56834859D01*
X114818390Y-56852287D01*
X114934607Y-56911503D01*
X115000776Y-56945218D01*
X115000778Y-56945218D01*
X115000781Y-56945220D01*
X115066816Y-56966676D01*
X115192670Y-57007569D01*
X115250345Y-57047007D01*
X115277543Y-57111366D01*
X115265628Y-57180212D01*
X115218384Y-57231688D01*
X115154351Y-57249500D01*
X114157129Y-57249500D01*
X114157123Y-57249501D01*
X114097516Y-57255908D01*
X113962671Y-57306202D01*
X113962664Y-57306206D01*
X113847455Y-57392452D01*
X113847452Y-57392455D01*
X113761206Y-57507664D01*
X113761202Y-57507671D01*
X113710908Y-57642517D01*
X113704501Y-57702116D01*
X113704500Y-57702135D01*
X113704500Y-58797870D01*
X113704501Y-58797876D01*
X113710908Y-58857483D01*
X113761202Y-58992328D01*
X113761206Y-58992335D01*
X113847452Y-59107544D01*
X113847455Y-59107547D01*
X113962664Y-59193793D01*
X113962671Y-59193797D01*
X114097517Y-59244091D01*
X114097516Y-59244091D01*
X114104444Y-59244835D01*
X114157127Y-59250500D01*
X115252872Y-59250499D01*
X115312483Y-59244091D01*
X115447331Y-59193796D01*
X115459110Y-59184977D01*
X115524570Y-59160558D01*
X115580872Y-59169680D01*
X115683165Y-59212051D01*
X115683169Y-59212051D01*
X115683170Y-59212052D01*
X115876456Y-59250500D01*
X115876459Y-59250500D01*
X116073543Y-59250500D01*
X116203582Y-59224632D01*
X116266835Y-59212051D01*
X116448914Y-59136632D01*
X116612782Y-59027139D01*
X116752139Y-58887782D01*
X116861632Y-58723914D01*
X116937051Y-58541835D01*
X116975500Y-58348541D01*
X116975500Y-58151459D01*
X116968368Y-58115606D01*
X116937052Y-57958170D01*
X116937051Y-57958169D01*
X116937051Y-57958165D01*
X116900532Y-57870000D01*
X116861635Y-57776092D01*
X116861628Y-57776079D01*
X116752139Y-57612218D01*
X116752136Y-57612214D01*
X116612785Y-57472863D01*
X116612781Y-57472860D01*
X116448920Y-57363371D01*
X116448907Y-57363364D01*
X116266839Y-57287950D01*
X116266829Y-57287947D01*
X116073543Y-57249500D01*
X116073541Y-57249500D01*
X115876459Y-57249500D01*
X115876457Y-57249500D01*
X115683171Y-57287947D01*
X115683168Y-57287948D01*
X115683166Y-57287948D01*
X115683165Y-57287949D01*
X115683163Y-57287950D01*
X115580874Y-57330318D01*
X115511404Y-57337785D01*
X115481510Y-57328366D01*
X115469603Y-57322877D01*
X115447331Y-57306204D01*
X115374553Y-57279059D01*
X115370324Y-57277110D01*
X115347366Y-57257074D01*
X115322970Y-57238811D01*
X115321294Y-57234319D01*
X115317684Y-57231168D01*
X115309204Y-57201903D01*
X115298553Y-57173347D01*
X115299572Y-57168662D01*
X115298238Y-57164059D01*
X115306927Y-57134849D01*
X115313405Y-57105074D01*
X115316794Y-57101684D01*
X115318161Y-57097090D01*
X115341264Y-57077213D01*
X115362810Y-57055668D01*
X115367784Y-57054398D01*
X115371127Y-57051523D01*
X115388696Y-57049060D01*
X115422237Y-57040500D01*
X115602351Y-57040500D01*
X115602352Y-57040500D01*
X115804534Y-57008477D01*
X115999219Y-56945220D01*
X116181610Y-56852287D01*
X116274590Y-56784732D01*
X116347213Y-56731971D01*
X116347215Y-56731968D01*
X116347219Y-56731966D01*
X116491966Y-56587219D01*
X116491968Y-56587215D01*
X116491971Y-56587213D01*
X116612284Y-56421614D01*
X116612283Y-56421614D01*
X116612287Y-56421610D01*
X116659516Y-56328917D01*
X116707489Y-56278123D01*
X116775310Y-56261328D01*
X116841445Y-56283865D01*
X116880483Y-56328917D01*
X116924348Y-56415006D01*
X116927715Y-56421614D01*
X117048028Y-56587213D01*
X117192786Y-56731971D01*
X117334402Y-56834859D01*
X117358390Y-56852287D01*
X117540781Y-56945220D01*
X117717062Y-57002497D01*
X117774738Y-57041935D01*
X117801936Y-57106293D01*
X117790021Y-57175140D01*
X117751630Y-57220746D01*
X117672782Y-57278032D01*
X117528028Y-57422786D01*
X117407715Y-57588386D01*
X117314781Y-57770776D01*
X117251522Y-57965465D01*
X117222604Y-58148044D01*
X117222603Y-58148050D01*
X117219500Y-58167648D01*
X117219500Y-58372352D01*
X117219785Y-58374151D01*
X117251522Y-58574534D01*
X117314781Y-58769223D01*
X117357248Y-58852567D01*
X117407585Y-58951359D01*
X117407715Y-58951613D01*
X117528028Y-59117213D01*
X117672786Y-59261971D01*
X117793226Y-59349474D01*
X117838390Y-59382287D01*
X117954607Y-59441503D01*
X118020776Y-59475218D01*
X118020778Y-59475218D01*
X118020781Y-59475220D01*
X118125137Y-59509127D01*
X118215465Y-59538477D01*
X118316557Y-59554488D01*
X118417648Y-59570500D01*
X118417649Y-59570500D01*
X118622351Y-59570500D01*
X118622352Y-59570500D01*
X118824534Y-59538477D01*
X119019219Y-59475220D01*
X119201610Y-59382287D01*
X119294590Y-59314732D01*
X119367213Y-59261971D01*
X119367215Y-59261968D01*
X119367219Y-59261966D01*
X119511966Y-59117219D01*
X119511968Y-59117215D01*
X119511971Y-59117213D01*
X119632286Y-58951611D01*
X119632415Y-58951359D01*
X119659795Y-58897621D01*
X119707769Y-58846826D01*
X119775589Y-58830030D01*
X119841725Y-58852567D01*
X119880765Y-58897621D01*
X119908141Y-58951350D01*
X119908147Y-58951359D01*
X119940523Y-58995921D01*
X119940524Y-58995922D01*
X120620000Y-58316446D01*
X120620000Y-58322661D01*
X120647259Y-58424394D01*
X120699920Y-58515606D01*
X120774394Y-58590080D01*
X120865606Y-58642741D01*
X120967339Y-58670000D01*
X120973553Y-58670000D01*
X120294076Y-59349474D01*
X120338650Y-59381859D01*
X120520968Y-59474755D01*
X120715582Y-59537990D01*
X120917683Y-59570000D01*
X121122317Y-59570000D01*
X121324417Y-59537990D01*
X121519031Y-59474755D01*
X121701349Y-59381859D01*
X121745921Y-59349474D01*
X121066447Y-58670000D01*
X121072661Y-58670000D01*
X121174394Y-58642741D01*
X121265606Y-58590080D01*
X121340080Y-58515606D01*
X121392741Y-58424394D01*
X121420000Y-58322661D01*
X121420000Y-58316447D01*
X122099474Y-58995921D01*
X122131859Y-58951349D01*
X122224755Y-58769031D01*
X122287990Y-58574417D01*
X122320000Y-58372317D01*
X122320000Y-58167682D01*
X122287990Y-57965582D01*
X122224755Y-57770968D01*
X122131859Y-57588650D01*
X122099474Y-57544077D01*
X122099474Y-57544076D01*
X121420000Y-58223551D01*
X121420000Y-58217339D01*
X121392741Y-58115606D01*
X121340080Y-58024394D01*
X121265606Y-57949920D01*
X121174394Y-57897259D01*
X121072661Y-57870000D01*
X121066446Y-57870000D01*
X121745922Y-57190524D01*
X121745921Y-57190523D01*
X121701359Y-57158147D01*
X121701350Y-57158141D01*
X121596668Y-57104803D01*
X121545872Y-57056828D01*
X121529077Y-56989007D01*
X121551614Y-56922873D01*
X121587868Y-56888778D01*
X121598345Y-56882315D01*
X121722315Y-56758345D01*
X121814356Y-56609124D01*
X121814358Y-56609119D01*
X121869505Y-56442697D01*
X121869506Y-56442690D01*
X121879999Y-56339986D01*
X121880000Y-56339973D01*
X121880000Y-55990000D01*
X120895686Y-55990000D01*
X120900080Y-55985606D01*
X120952741Y-55894394D01*
X120980000Y-55792661D01*
X120980000Y-55687339D01*
X120952741Y-55585606D01*
X120900080Y-55494394D01*
X120895686Y-55490000D01*
X121879999Y-55490000D01*
X121879999Y-55140028D01*
X121879998Y-55140013D01*
X121869505Y-55037302D01*
X121814358Y-54870880D01*
X121814356Y-54870875D01*
X121722315Y-54721654D01*
X121598345Y-54597684D01*
X121449124Y-54505643D01*
X121449119Y-54505641D01*
X121282697Y-54450494D01*
X121282690Y-54450493D01*
X121179986Y-54440000D01*
X120830000Y-54440000D01*
X120830000Y-55424314D01*
X120825606Y-55419920D01*
X120734394Y-55367259D01*
X120632661Y-55340000D01*
X120527339Y-55340000D01*
X120425606Y-55367259D01*
X120334394Y-55419920D01*
X120330000Y-55424314D01*
X120330000Y-54440000D01*
X119980028Y-54440000D01*
X119980012Y-54440001D01*
X119877302Y-54450494D01*
X119710880Y-54505641D01*
X119710875Y-54505643D01*
X119561654Y-54597684D01*
X119437684Y-54721654D01*
X119345643Y-54870875D01*
X119345641Y-54870880D01*
X119318407Y-54953068D01*
X119278634Y-55010513D01*
X119214118Y-55037336D01*
X119145342Y-55025021D01*
X119100382Y-54986949D01*
X119075766Y-54953068D01*
X119031966Y-54892781D01*
X118887219Y-54748034D01*
X118887213Y-54748028D01*
X118721613Y-54627715D01*
X118721612Y-54627714D01*
X118721610Y-54627713D01*
X118662675Y-54597684D01*
X118539223Y-54534781D01*
X118344534Y-54471522D01*
X118169995Y-54443878D01*
X118142352Y-54439500D01*
X117937648Y-54439500D01*
X117913329Y-54443351D01*
X117735465Y-54471522D01*
X117540776Y-54534781D01*
X117358386Y-54627715D01*
X117192786Y-54748028D01*
X117048028Y-54892786D01*
X116927715Y-55058386D01*
X116880485Y-55151080D01*
X116832510Y-55201876D01*
X116764689Y-55218671D01*
X116698554Y-55196134D01*
X116659515Y-55151080D01*
X116630985Y-55095087D01*
X116612287Y-55058390D01*
X116604556Y-55047749D01*
X116491971Y-54892786D01*
X116347213Y-54748028D01*
X116181613Y-54627715D01*
X116181612Y-54627714D01*
X116181610Y-54627713D01*
X116122675Y-54597684D01*
X115999223Y-54534781D01*
X115804534Y-54471522D01*
X115605466Y-54439993D01*
X115542331Y-54410064D01*
X115505400Y-54350752D01*
X115506398Y-54280889D01*
X115537181Y-54229841D01*
X120319778Y-49447244D01*
X120381099Y-49413761D01*
X120426850Y-49412454D01*
X120477648Y-49420500D01*
X120477651Y-49420500D01*
X120682351Y-49420500D01*
X120682352Y-49420500D01*
X120884534Y-49388477D01*
X121079219Y-49325220D01*
X121261610Y-49232287D01*
X121354590Y-49164732D01*
X121427213Y-49111971D01*
X121427215Y-49111968D01*
X121427219Y-49111966D01*
X121571966Y-48967219D01*
X121571968Y-48967215D01*
X121571971Y-48967213D01*
X121624732Y-48894590D01*
X121692287Y-48801610D01*
X121785220Y-48619219D01*
X121848477Y-48424534D01*
X121880500Y-48222352D01*
X121880500Y-48017648D01*
X121849072Y-47819221D01*
X121848477Y-47815465D01*
X121785218Y-47620776D01*
X121739515Y-47531080D01*
X121692287Y-47438390D01*
X121679706Y-47421074D01*
X121571971Y-47272786D01*
X121427213Y-47128028D01*
X121261613Y-47007715D01*
X121261612Y-47007714D01*
X121261610Y-47007713D01*
X121187522Y-46969963D01*
X121079223Y-46914781D01*
X120884534Y-46851522D01*
X120712653Y-46824299D01*
X120649518Y-46794370D01*
X120612587Y-46735058D01*
X120613585Y-46665195D01*
X120644368Y-46614147D01*
X122387820Y-44870695D01*
X122449142Y-44837212D01*
X122518834Y-44842196D01*
X122574767Y-44884068D01*
X122599184Y-44949532D01*
X122599500Y-44958378D01*
X122599500Y-78475500D01*
X122579815Y-78542539D01*
X122527011Y-78588294D01*
X122475500Y-78599500D01*
X77524500Y-78599500D01*
X77457461Y-78579815D01*
X77411706Y-78527011D01*
X77400500Y-78475500D01*
X77400500Y-77527844D01*
X81460000Y-77527844D01*
X81466401Y-77587372D01*
X81466403Y-77587379D01*
X81516645Y-77722086D01*
X81516649Y-77722093D01*
X81602809Y-77837187D01*
X81602812Y-77837190D01*
X81717906Y-77923350D01*
X81717913Y-77923354D01*
X81852620Y-77973596D01*
X81852627Y-77973598D01*
X81912155Y-77979999D01*
X81912172Y-77980000D01*
X82210000Y-77980000D01*
X82710000Y-77980000D01*
X83007828Y-77980000D01*
X83007844Y-77979999D01*
X83067372Y-77973598D01*
X83067379Y-77973596D01*
X83202086Y-77923354D01*
X83202093Y-77923350D01*
X83317187Y-77837190D01*
X83317190Y-77837187D01*
X83403350Y-77722093D01*
X83403354Y-77722086D01*
X83453596Y-77587379D01*
X83453598Y-77587372D01*
X83459999Y-77527844D01*
X84500000Y-77527844D01*
X84506401Y-77587372D01*
X84506403Y-77587379D01*
X84556645Y-77722086D01*
X84556649Y-77722093D01*
X84642809Y-77837187D01*
X84642812Y-77837190D01*
X84757906Y-77923350D01*
X84757913Y-77923354D01*
X84892620Y-77973596D01*
X84892627Y-77973598D01*
X84952155Y-77979999D01*
X84952172Y-77980000D01*
X85250000Y-77980000D01*
X85750000Y-77980000D01*
X86047828Y-77980000D01*
X86047844Y-77979999D01*
X86107372Y-77973598D01*
X86107379Y-77973596D01*
X86242086Y-77923354D01*
X86242093Y-77923350D01*
X86357187Y-77837190D01*
X86357190Y-77837187D01*
X86443350Y-77722093D01*
X86443354Y-77722086D01*
X86493596Y-77587379D01*
X86493598Y-77587372D01*
X86499999Y-77527844D01*
X87630000Y-77527844D01*
X87636401Y-77587372D01*
X87636403Y-77587379D01*
X87686645Y-77722086D01*
X87686649Y-77722093D01*
X87772809Y-77837187D01*
X87772812Y-77837190D01*
X87887906Y-77923350D01*
X87887913Y-77923354D01*
X88022620Y-77973596D01*
X88022627Y-77973598D01*
X88082155Y-77979999D01*
X88082172Y-77980000D01*
X88380000Y-77980000D01*
X88880000Y-77980000D01*
X89177828Y-77980000D01*
X89177844Y-77979999D01*
X89237372Y-77973598D01*
X89237379Y-77973596D01*
X89372086Y-77923354D01*
X89372093Y-77923350D01*
X89487187Y-77837190D01*
X89487190Y-77837187D01*
X89573350Y-77722093D01*
X89573354Y-77722086D01*
X89623596Y-77587379D01*
X89623598Y-77587372D01*
X89629999Y-77527844D01*
X90700000Y-77527844D01*
X90706401Y-77587372D01*
X90706403Y-77587379D01*
X90756645Y-77722086D01*
X90756649Y-77722093D01*
X90842809Y-77837187D01*
X90842812Y-77837190D01*
X90957906Y-77923350D01*
X90957913Y-77923354D01*
X91092620Y-77973596D01*
X91092627Y-77973598D01*
X91152155Y-77979999D01*
X91152172Y-77980000D01*
X91450000Y-77980000D01*
X91950000Y-77980000D01*
X92247828Y-77980000D01*
X92247844Y-77979999D01*
X92307372Y-77973598D01*
X92307379Y-77973596D01*
X92442086Y-77923354D01*
X92442093Y-77923350D01*
X92557187Y-77837190D01*
X92557190Y-77837187D01*
X92643350Y-77722093D01*
X92643354Y-77722086D01*
X92693596Y-77587379D01*
X92693598Y-77587372D01*
X92699999Y-77527844D01*
X93920000Y-77527844D01*
X93926401Y-77587372D01*
X93926403Y-77587379D01*
X93976645Y-77722086D01*
X93976649Y-77722093D01*
X94062809Y-77837187D01*
X94062812Y-77837190D01*
X94177906Y-77923350D01*
X94177913Y-77923354D01*
X94312620Y-77973596D01*
X94312627Y-77973598D01*
X94372155Y-77979999D01*
X94372172Y-77980000D01*
X94670000Y-77980000D01*
X95170000Y-77980000D01*
X95467828Y-77980000D01*
X95467844Y-77979999D01*
X95527372Y-77973598D01*
X95527379Y-77973596D01*
X95662086Y-77923354D01*
X95662093Y-77923350D01*
X95777187Y-77837190D01*
X95777190Y-77837187D01*
X95863350Y-77722093D01*
X95863354Y-77722086D01*
X95913596Y-77587379D01*
X95913598Y-77587372D01*
X95919999Y-77527844D01*
X96980000Y-77527844D01*
X96986401Y-77587372D01*
X96986403Y-77587379D01*
X97036645Y-77722086D01*
X97036649Y-77722093D01*
X97122809Y-77837187D01*
X97122812Y-77837190D01*
X97237906Y-77923350D01*
X97237913Y-77923354D01*
X97372620Y-77973596D01*
X97372627Y-77973598D01*
X97432155Y-77979999D01*
X97432172Y-77980000D01*
X97730000Y-77980000D01*
X98230000Y-77980000D01*
X98527828Y-77980000D01*
X98527844Y-77979999D01*
X98587372Y-77973598D01*
X98587379Y-77973596D01*
X98722086Y-77923354D01*
X98722093Y-77923350D01*
X98837187Y-77837190D01*
X98837190Y-77837187D01*
X98923350Y-77722093D01*
X98923354Y-77722086D01*
X98973596Y-77587379D01*
X98973598Y-77587372D01*
X98979999Y-77527844D01*
X100070000Y-77527844D01*
X100076401Y-77587372D01*
X100076403Y-77587379D01*
X100126645Y-77722086D01*
X100126649Y-77722093D01*
X100212809Y-77837187D01*
X100212812Y-77837190D01*
X100327906Y-77923350D01*
X100327913Y-77923354D01*
X100462620Y-77973596D01*
X100462627Y-77973598D01*
X100522155Y-77979999D01*
X100522172Y-77980000D01*
X100820000Y-77980000D01*
X101320000Y-77980000D01*
X101617828Y-77980000D01*
X101617844Y-77979999D01*
X101677372Y-77973598D01*
X101677379Y-77973596D01*
X101812086Y-77923354D01*
X101812093Y-77923350D01*
X101927187Y-77837190D01*
X101927190Y-77837187D01*
X102013350Y-77722093D01*
X102013354Y-77722086D01*
X102063596Y-77587379D01*
X102063598Y-77587372D01*
X102069999Y-77527844D01*
X103180000Y-77527844D01*
X103186401Y-77587372D01*
X103186403Y-77587379D01*
X103236645Y-77722086D01*
X103236649Y-77722093D01*
X103322809Y-77837187D01*
X103322812Y-77837190D01*
X103437906Y-77923350D01*
X103437913Y-77923354D01*
X103572620Y-77973596D01*
X103572627Y-77973598D01*
X103632155Y-77979999D01*
X103632172Y-77980000D01*
X103930000Y-77980000D01*
X104430000Y-77980000D01*
X104727828Y-77980000D01*
X104727844Y-77979999D01*
X104787372Y-77973598D01*
X104787379Y-77973596D01*
X104922086Y-77923354D01*
X104922093Y-77923350D01*
X105037187Y-77837190D01*
X105037190Y-77837187D01*
X105123350Y-77722093D01*
X105123354Y-77722086D01*
X105173596Y-77587379D01*
X105173598Y-77587372D01*
X105179999Y-77527844D01*
X106200000Y-77527844D01*
X106206401Y-77587372D01*
X106206403Y-77587379D01*
X106256645Y-77722086D01*
X106256649Y-77722093D01*
X106342809Y-77837187D01*
X106342812Y-77837190D01*
X106457906Y-77923350D01*
X106457913Y-77923354D01*
X106592620Y-77973596D01*
X106592627Y-77973598D01*
X106652155Y-77979999D01*
X106652172Y-77980000D01*
X106950000Y-77980000D01*
X107450000Y-77980000D01*
X107747828Y-77980000D01*
X107747844Y-77979999D01*
X107807372Y-77973598D01*
X107807379Y-77973596D01*
X107942086Y-77923354D01*
X107942093Y-77923350D01*
X108057187Y-77837190D01*
X108057190Y-77837187D01*
X108143350Y-77722093D01*
X108143354Y-77722086D01*
X108193596Y-77587379D01*
X108193598Y-77587372D01*
X108199999Y-77527844D01*
X108200000Y-77527827D01*
X108200000Y-77230000D01*
X107450000Y-77230000D01*
X107450000Y-77980000D01*
X106950000Y-77980000D01*
X106950000Y-77230000D01*
X106200000Y-77230000D01*
X106200000Y-77527844D01*
X105179999Y-77527844D01*
X105180000Y-77527827D01*
X105180000Y-77230000D01*
X104430000Y-77230000D01*
X104430000Y-77980000D01*
X103930000Y-77980000D01*
X103930000Y-77230000D01*
X103180000Y-77230000D01*
X103180000Y-77527844D01*
X102069999Y-77527844D01*
X102070000Y-77527827D01*
X102070000Y-77230000D01*
X101320000Y-77230000D01*
X101320000Y-77980000D01*
X100820000Y-77980000D01*
X100820000Y-77230000D01*
X100070000Y-77230000D01*
X100070000Y-77527844D01*
X98979999Y-77527844D01*
X98980000Y-77527827D01*
X98980000Y-77230000D01*
X98230000Y-77230000D01*
X98230000Y-77980000D01*
X97730000Y-77980000D01*
X97730000Y-77230000D01*
X96980000Y-77230000D01*
X96980000Y-77527844D01*
X95919999Y-77527844D01*
X95920000Y-77527827D01*
X95920000Y-77230000D01*
X95170000Y-77230000D01*
X95170000Y-77980000D01*
X94670000Y-77980000D01*
X94670000Y-77230000D01*
X93920000Y-77230000D01*
X93920000Y-77527844D01*
X92699999Y-77527844D01*
X92700000Y-77527827D01*
X92700000Y-77230000D01*
X91950000Y-77230000D01*
X91950000Y-77980000D01*
X91450000Y-77980000D01*
X91450000Y-77230000D01*
X90700000Y-77230000D01*
X90700000Y-77527844D01*
X89629999Y-77527844D01*
X89630000Y-77527827D01*
X89630000Y-77230000D01*
X88880000Y-77230000D01*
X88880000Y-77980000D01*
X88380000Y-77980000D01*
X88380000Y-77230000D01*
X87630000Y-77230000D01*
X87630000Y-77527844D01*
X86499999Y-77527844D01*
X86500000Y-77527827D01*
X86500000Y-77230000D01*
X85750000Y-77230000D01*
X85750000Y-77980000D01*
X85250000Y-77980000D01*
X85250000Y-77230000D01*
X84500000Y-77230000D01*
X84500000Y-77527844D01*
X83459999Y-77527844D01*
X83460000Y-77527827D01*
X83460000Y-77230000D01*
X82710000Y-77230000D01*
X82710000Y-77980000D01*
X82210000Y-77980000D01*
X82210000Y-77230000D01*
X81460000Y-77230000D01*
X81460000Y-77527844D01*
X77400500Y-77527844D01*
X77400500Y-75808543D01*
X81459499Y-75808543D01*
X81497947Y-76001829D01*
X81497950Y-76001839D01*
X81540540Y-76104660D01*
X81548009Y-76174129D01*
X81525248Y-76226420D01*
X81516648Y-76237908D01*
X81516645Y-76237913D01*
X81466403Y-76372620D01*
X81466401Y-76372627D01*
X81460000Y-76432155D01*
X81460000Y-76730000D01*
X82250382Y-76730000D01*
X82199936Y-76780446D01*
X82157149Y-76854555D01*
X82135000Y-76937213D01*
X82135000Y-77022787D01*
X82157149Y-77105445D01*
X82199936Y-77179554D01*
X82260446Y-77240064D01*
X82334555Y-77282851D01*
X82417213Y-77305000D01*
X82502787Y-77305000D01*
X82585445Y-77282851D01*
X82659554Y-77240064D01*
X82720064Y-77179554D01*
X82762851Y-77105445D01*
X82785000Y-77022787D01*
X82785000Y-76937213D01*
X82762851Y-76854555D01*
X82720064Y-76780446D01*
X82669618Y-76730000D01*
X83460000Y-76730000D01*
X83460000Y-76432172D01*
X83459999Y-76432155D01*
X83453598Y-76372627D01*
X83453597Y-76372623D01*
X83403350Y-76237907D01*
X83394753Y-76226422D01*
X83370336Y-76160958D01*
X83379458Y-76104663D01*
X83422051Y-76001835D01*
X83460500Y-75808543D01*
X84499499Y-75808543D01*
X84537947Y-76001829D01*
X84537950Y-76001839D01*
X84580540Y-76104660D01*
X84588009Y-76174129D01*
X84565248Y-76226420D01*
X84556648Y-76237908D01*
X84556645Y-76237913D01*
X84506403Y-76372620D01*
X84506401Y-76372627D01*
X84500000Y-76432155D01*
X84500000Y-76730000D01*
X85290382Y-76730000D01*
X85239936Y-76780446D01*
X85197149Y-76854555D01*
X85175000Y-76937213D01*
X85175000Y-77022787D01*
X85197149Y-77105445D01*
X85239936Y-77179554D01*
X85300446Y-77240064D01*
X85374555Y-77282851D01*
X85457213Y-77305000D01*
X85542787Y-77305000D01*
X85625445Y-77282851D01*
X85699554Y-77240064D01*
X85760064Y-77179554D01*
X85802851Y-77105445D01*
X85825000Y-77022787D01*
X85825000Y-76937213D01*
X85802851Y-76854555D01*
X85760064Y-76780446D01*
X85709618Y-76730000D01*
X86500000Y-76730000D01*
X86500000Y-76432172D01*
X86499999Y-76432155D01*
X86493598Y-76372627D01*
X86493597Y-76372623D01*
X86443350Y-76237907D01*
X86434753Y-76226422D01*
X86410336Y-76160958D01*
X86419458Y-76104663D01*
X86462051Y-76001835D01*
X86500500Y-75808543D01*
X87629499Y-75808543D01*
X87667947Y-76001829D01*
X87667950Y-76001839D01*
X87710540Y-76104660D01*
X87718009Y-76174129D01*
X87695248Y-76226420D01*
X87686648Y-76237908D01*
X87686645Y-76237913D01*
X87636403Y-76372620D01*
X87636401Y-76372627D01*
X87630000Y-76432155D01*
X87630000Y-76730000D01*
X88420382Y-76730000D01*
X88369936Y-76780446D01*
X88327149Y-76854555D01*
X88305000Y-76937213D01*
X88305000Y-77022787D01*
X88327149Y-77105445D01*
X88369936Y-77179554D01*
X88430446Y-77240064D01*
X88504555Y-77282851D01*
X88587213Y-77305000D01*
X88672787Y-77305000D01*
X88755445Y-77282851D01*
X88829554Y-77240064D01*
X88890064Y-77179554D01*
X88932851Y-77105445D01*
X88955000Y-77022787D01*
X88955000Y-76937213D01*
X88932851Y-76854555D01*
X88890064Y-76780446D01*
X88839618Y-76730000D01*
X89630000Y-76730000D01*
X89630000Y-76432172D01*
X89629999Y-76432155D01*
X89623598Y-76372627D01*
X89623597Y-76372623D01*
X89573350Y-76237907D01*
X89564753Y-76226422D01*
X89540336Y-76160958D01*
X89549458Y-76104663D01*
X89592051Y-76001835D01*
X89630500Y-75808543D01*
X90699499Y-75808543D01*
X90737947Y-76001829D01*
X90737950Y-76001839D01*
X90780540Y-76104660D01*
X90788009Y-76174129D01*
X90765248Y-76226420D01*
X90756648Y-76237908D01*
X90756645Y-76237913D01*
X90706403Y-76372620D01*
X90706401Y-76372627D01*
X90700000Y-76432155D01*
X90700000Y-76730000D01*
X91490382Y-76730000D01*
X91439936Y-76780446D01*
X91397149Y-76854555D01*
X91375000Y-76937213D01*
X91375000Y-77022787D01*
X91397149Y-77105445D01*
X91439936Y-77179554D01*
X91500446Y-77240064D01*
X91574555Y-77282851D01*
X91657213Y-77305000D01*
X91742787Y-77305000D01*
X91825445Y-77282851D01*
X91899554Y-77240064D01*
X91960064Y-77179554D01*
X92002851Y-77105445D01*
X92025000Y-77022787D01*
X92025000Y-76937213D01*
X92002851Y-76854555D01*
X91960064Y-76780446D01*
X91909618Y-76730000D01*
X92700000Y-76730000D01*
X92700000Y-76432172D01*
X92699999Y-76432155D01*
X92693598Y-76372627D01*
X92693597Y-76372623D01*
X92643350Y-76237907D01*
X92634753Y-76226422D01*
X92610336Y-76160958D01*
X92619458Y-76104663D01*
X92662051Y-76001835D01*
X92700500Y-75808543D01*
X93919499Y-75808543D01*
X93957947Y-76001829D01*
X93957950Y-76001839D01*
X94000540Y-76104660D01*
X94008009Y-76174129D01*
X93985248Y-76226420D01*
X93976648Y-76237908D01*
X93976645Y-76237913D01*
X93926403Y-76372620D01*
X93926401Y-76372627D01*
X93920000Y-76432155D01*
X93920000Y-76730000D01*
X94710382Y-76730000D01*
X94659936Y-76780446D01*
X94617149Y-76854555D01*
X94595000Y-76937213D01*
X94595000Y-77022787D01*
X94617149Y-77105445D01*
X94659936Y-77179554D01*
X94720446Y-77240064D01*
X94794555Y-77282851D01*
X94877213Y-77305000D01*
X94962787Y-77305000D01*
X95045445Y-77282851D01*
X95119554Y-77240064D01*
X95180064Y-77179554D01*
X95222851Y-77105445D01*
X95245000Y-77022787D01*
X95245000Y-76937213D01*
X95222851Y-76854555D01*
X95180064Y-76780446D01*
X95129618Y-76730000D01*
X95920000Y-76730000D01*
X95920000Y-76432172D01*
X95919999Y-76432155D01*
X95913598Y-76372627D01*
X95913597Y-76372623D01*
X95863350Y-76237907D01*
X95854753Y-76226422D01*
X95830336Y-76160958D01*
X95839458Y-76104663D01*
X95882051Y-76001835D01*
X95920500Y-75808543D01*
X96979499Y-75808543D01*
X97017947Y-76001829D01*
X97017950Y-76001839D01*
X97060540Y-76104660D01*
X97068009Y-76174129D01*
X97045248Y-76226420D01*
X97036648Y-76237908D01*
X97036645Y-76237913D01*
X96986403Y-76372620D01*
X96986401Y-76372627D01*
X96980000Y-76432155D01*
X96980000Y-76730000D01*
X97770382Y-76730000D01*
X97719936Y-76780446D01*
X97677149Y-76854555D01*
X97655000Y-76937213D01*
X97655000Y-77022787D01*
X97677149Y-77105445D01*
X97719936Y-77179554D01*
X97780446Y-77240064D01*
X97854555Y-77282851D01*
X97937213Y-77305000D01*
X98022787Y-77305000D01*
X98105445Y-77282851D01*
X98179554Y-77240064D01*
X98240064Y-77179554D01*
X98282851Y-77105445D01*
X98305000Y-77022787D01*
X98305000Y-76937213D01*
X98282851Y-76854555D01*
X98240064Y-76780446D01*
X98189618Y-76730000D01*
X98980000Y-76730000D01*
X98980000Y-76432172D01*
X98979999Y-76432155D01*
X98973598Y-76372627D01*
X98973597Y-76372623D01*
X98923350Y-76237907D01*
X98914753Y-76226422D01*
X98890336Y-76160958D01*
X98899458Y-76104663D01*
X98942051Y-76001835D01*
X98980500Y-75808543D01*
X100069499Y-75808543D01*
X100107947Y-76001829D01*
X100107950Y-76001839D01*
X100150540Y-76104660D01*
X100158009Y-76174129D01*
X100135248Y-76226420D01*
X100126648Y-76237908D01*
X100126645Y-76237913D01*
X100076403Y-76372620D01*
X100076401Y-76372627D01*
X100070000Y-76432155D01*
X100070000Y-76730000D01*
X100860382Y-76730000D01*
X100809936Y-76780446D01*
X100767149Y-76854555D01*
X100745000Y-76937213D01*
X100745000Y-77022787D01*
X100767149Y-77105445D01*
X100809936Y-77179554D01*
X100870446Y-77240064D01*
X100944555Y-77282851D01*
X101027213Y-77305000D01*
X101112787Y-77305000D01*
X101195445Y-77282851D01*
X101269554Y-77240064D01*
X101330064Y-77179554D01*
X101372851Y-77105445D01*
X101395000Y-77022787D01*
X101395000Y-76937213D01*
X101372851Y-76854555D01*
X101330064Y-76780446D01*
X101279618Y-76730000D01*
X102070000Y-76730000D01*
X102070000Y-76432172D01*
X102069999Y-76432155D01*
X102063598Y-76372627D01*
X102063597Y-76372623D01*
X102013350Y-76237907D01*
X102004753Y-76226422D01*
X101980336Y-76160958D01*
X101989458Y-76104663D01*
X102032051Y-76001835D01*
X102070500Y-75808543D01*
X103179499Y-75808543D01*
X103217947Y-76001829D01*
X103217950Y-76001839D01*
X103260540Y-76104660D01*
X103268009Y-76174129D01*
X103245248Y-76226420D01*
X103236648Y-76237908D01*
X103236645Y-76237913D01*
X103186403Y-76372620D01*
X103186401Y-76372627D01*
X103180000Y-76432155D01*
X103180000Y-76730000D01*
X103970382Y-76730000D01*
X103919936Y-76780446D01*
X103877149Y-76854555D01*
X103855000Y-76937213D01*
X103855000Y-77022787D01*
X103877149Y-77105445D01*
X103919936Y-77179554D01*
X103980446Y-77240064D01*
X104054555Y-77282851D01*
X104137213Y-77305000D01*
X104222787Y-77305000D01*
X104305445Y-77282851D01*
X104379554Y-77240064D01*
X104440064Y-77179554D01*
X104482851Y-77105445D01*
X104505000Y-77022787D01*
X104505000Y-76937213D01*
X104482851Y-76854555D01*
X104440064Y-76780446D01*
X104389618Y-76730000D01*
X105180000Y-76730000D01*
X105180000Y-76432172D01*
X105179999Y-76432155D01*
X105173598Y-76372627D01*
X105173597Y-76372623D01*
X105123350Y-76237907D01*
X105114753Y-76226422D01*
X105090336Y-76160958D01*
X105099458Y-76104663D01*
X105142051Y-76001835D01*
X105180500Y-75808543D01*
X106199499Y-75808543D01*
X106237947Y-76001829D01*
X106237950Y-76001839D01*
X106280540Y-76104660D01*
X106288009Y-76174129D01*
X106265248Y-76226420D01*
X106256648Y-76237908D01*
X106256645Y-76237913D01*
X106206403Y-76372620D01*
X106206401Y-76372627D01*
X106200000Y-76432155D01*
X106200000Y-76730000D01*
X106990382Y-76730000D01*
X106939936Y-76780446D01*
X106897149Y-76854555D01*
X106875000Y-76937213D01*
X106875000Y-77022787D01*
X106897149Y-77105445D01*
X106939936Y-77179554D01*
X107000446Y-77240064D01*
X107074555Y-77282851D01*
X107157213Y-77305000D01*
X107242787Y-77305000D01*
X107325445Y-77282851D01*
X107399554Y-77240064D01*
X107460064Y-77179554D01*
X107502851Y-77105445D01*
X107525000Y-77022787D01*
X107525000Y-76937213D01*
X107502851Y-76854555D01*
X107460064Y-76780446D01*
X107409618Y-76730000D01*
X108200000Y-76730000D01*
X108200000Y-76432172D01*
X108199999Y-76432155D01*
X108193598Y-76372627D01*
X108193597Y-76372623D01*
X108143350Y-76237907D01*
X108134753Y-76226422D01*
X108110336Y-76160958D01*
X108119458Y-76104663D01*
X108162051Y-76001835D01*
X108200500Y-75808541D01*
X108200500Y-75611459D01*
X108200500Y-75611456D01*
X108162052Y-75418170D01*
X108162051Y-75418169D01*
X108162051Y-75418165D01*
X108162049Y-75418160D01*
X108086635Y-75236092D01*
X108086628Y-75236079D01*
X107977139Y-75072218D01*
X107977136Y-75072214D01*
X107837785Y-74932863D01*
X107837781Y-74932860D01*
X107673920Y-74823371D01*
X107673907Y-74823364D01*
X107491839Y-74747950D01*
X107491829Y-74747947D01*
X107298543Y-74709500D01*
X107298541Y-74709500D01*
X107101459Y-74709500D01*
X107101457Y-74709500D01*
X106908170Y-74747947D01*
X106908160Y-74747950D01*
X106726092Y-74823364D01*
X106726079Y-74823371D01*
X106562218Y-74932860D01*
X106562214Y-74932863D01*
X106422863Y-75072214D01*
X106422860Y-75072218D01*
X106313371Y-75236079D01*
X106313364Y-75236092D01*
X106237950Y-75418160D01*
X106237947Y-75418170D01*
X106199500Y-75611456D01*
X106199500Y-75611459D01*
X106199500Y-75808541D01*
X106199500Y-75808543D01*
X106199499Y-75808543D01*
X105180500Y-75808543D01*
X105180500Y-75808541D01*
X105180500Y-75611459D01*
X105180500Y-75611456D01*
X105142052Y-75418170D01*
X105142051Y-75418169D01*
X105142051Y-75418165D01*
X105142049Y-75418160D01*
X105066635Y-75236092D01*
X105066628Y-75236079D01*
X104957139Y-75072218D01*
X104957136Y-75072214D01*
X104817785Y-74932863D01*
X104817781Y-74932860D01*
X104653920Y-74823371D01*
X104653907Y-74823364D01*
X104471839Y-74747950D01*
X104471829Y-74747947D01*
X104278543Y-74709500D01*
X104278541Y-74709500D01*
X104081459Y-74709500D01*
X104081457Y-74709500D01*
X103888170Y-74747947D01*
X103888160Y-74747950D01*
X103706092Y-74823364D01*
X103706079Y-74823371D01*
X103542218Y-74932860D01*
X103542214Y-74932863D01*
X103402863Y-75072214D01*
X103402860Y-75072218D01*
X103293371Y-75236079D01*
X103293364Y-75236092D01*
X103217950Y-75418160D01*
X103217947Y-75418170D01*
X103179500Y-75611456D01*
X103179500Y-75611459D01*
X103179500Y-75808541D01*
X103179500Y-75808543D01*
X103179499Y-75808543D01*
X102070500Y-75808543D01*
X102070500Y-75808541D01*
X102070500Y-75611459D01*
X102070500Y-75611456D01*
X102032052Y-75418170D01*
X102032051Y-75418169D01*
X102032051Y-75418165D01*
X102032049Y-75418160D01*
X101956635Y-75236092D01*
X101956628Y-75236079D01*
X101847139Y-75072218D01*
X101847136Y-75072214D01*
X101707785Y-74932863D01*
X101707781Y-74932860D01*
X101543920Y-74823371D01*
X101543907Y-74823364D01*
X101361839Y-74747950D01*
X101361829Y-74747947D01*
X101168543Y-74709500D01*
X101168541Y-74709500D01*
X100971459Y-74709500D01*
X100971457Y-74709500D01*
X100778170Y-74747947D01*
X100778160Y-74747950D01*
X100596092Y-74823364D01*
X100596079Y-74823371D01*
X100432218Y-74932860D01*
X100432214Y-74932863D01*
X100292863Y-75072214D01*
X100292860Y-75072218D01*
X100183371Y-75236079D01*
X100183364Y-75236092D01*
X100107950Y-75418160D01*
X100107947Y-75418170D01*
X100069500Y-75611456D01*
X100069500Y-75611459D01*
X100069500Y-75808541D01*
X100069500Y-75808543D01*
X100069499Y-75808543D01*
X98980500Y-75808543D01*
X98980500Y-75808541D01*
X98980500Y-75611459D01*
X98980500Y-75611456D01*
X98942052Y-75418170D01*
X98942051Y-75418169D01*
X98942051Y-75418165D01*
X98942049Y-75418160D01*
X98866635Y-75236092D01*
X98866628Y-75236079D01*
X98757139Y-75072218D01*
X98757136Y-75072214D01*
X98617785Y-74932863D01*
X98617781Y-74932860D01*
X98453920Y-74823371D01*
X98453907Y-74823364D01*
X98271839Y-74747950D01*
X98271829Y-74747947D01*
X98078543Y-74709500D01*
X98078541Y-74709500D01*
X97881459Y-74709500D01*
X97881457Y-74709500D01*
X97688170Y-74747947D01*
X97688160Y-74747950D01*
X97506092Y-74823364D01*
X97506079Y-74823371D01*
X97342218Y-74932860D01*
X97342214Y-74932863D01*
X97202863Y-75072214D01*
X97202860Y-75072218D01*
X97093371Y-75236079D01*
X97093364Y-75236092D01*
X97017950Y-75418160D01*
X97017947Y-75418170D01*
X96979500Y-75611456D01*
X96979500Y-75611459D01*
X96979500Y-75808541D01*
X96979500Y-75808543D01*
X96979499Y-75808543D01*
X95920500Y-75808543D01*
X95920500Y-75808541D01*
X95920500Y-75611459D01*
X95920500Y-75611456D01*
X95882052Y-75418170D01*
X95882051Y-75418169D01*
X95882051Y-75418165D01*
X95882049Y-75418160D01*
X95806635Y-75236092D01*
X95806628Y-75236079D01*
X95697139Y-75072218D01*
X95697136Y-75072214D01*
X95557785Y-74932863D01*
X95557781Y-74932860D01*
X95393920Y-74823371D01*
X95393907Y-74823364D01*
X95211839Y-74747950D01*
X95211829Y-74747947D01*
X95018543Y-74709500D01*
X95018541Y-74709500D01*
X94821459Y-74709500D01*
X94821457Y-74709500D01*
X94628170Y-74747947D01*
X94628160Y-74747950D01*
X94446092Y-74823364D01*
X94446079Y-74823371D01*
X94282218Y-74932860D01*
X94282214Y-74932863D01*
X94142863Y-75072214D01*
X94142860Y-75072218D01*
X94033371Y-75236079D01*
X94033364Y-75236092D01*
X93957950Y-75418160D01*
X93957947Y-75418170D01*
X93919500Y-75611456D01*
X93919500Y-75611459D01*
X93919500Y-75808541D01*
X93919500Y-75808543D01*
X93919499Y-75808543D01*
X92700500Y-75808543D01*
X92700500Y-75808541D01*
X92700500Y-75611459D01*
X92700500Y-75611456D01*
X92662052Y-75418170D01*
X92662051Y-75418169D01*
X92662051Y-75418165D01*
X92662049Y-75418160D01*
X92586635Y-75236092D01*
X92586628Y-75236079D01*
X92477139Y-75072218D01*
X92477136Y-75072214D01*
X92337785Y-74932863D01*
X92337781Y-74932860D01*
X92173920Y-74823371D01*
X92173907Y-74823364D01*
X91991839Y-74747950D01*
X91991829Y-74747947D01*
X91798543Y-74709500D01*
X91798541Y-74709500D01*
X91601459Y-74709500D01*
X91601457Y-74709500D01*
X91408170Y-74747947D01*
X91408160Y-74747950D01*
X91226092Y-74823364D01*
X91226079Y-74823371D01*
X91062218Y-74932860D01*
X91062214Y-74932863D01*
X90922863Y-75072214D01*
X90922860Y-75072218D01*
X90813371Y-75236079D01*
X90813364Y-75236092D01*
X90737950Y-75418160D01*
X90737947Y-75418170D01*
X90699500Y-75611456D01*
X90699500Y-75611459D01*
X90699500Y-75808541D01*
X90699500Y-75808543D01*
X90699499Y-75808543D01*
X89630500Y-75808543D01*
X89630500Y-75808541D01*
X89630500Y-75611459D01*
X89630500Y-75611456D01*
X89592052Y-75418170D01*
X89592051Y-75418169D01*
X89592051Y-75418165D01*
X89592049Y-75418160D01*
X89516635Y-75236092D01*
X89516628Y-75236079D01*
X89407139Y-75072218D01*
X89407136Y-75072214D01*
X89267785Y-74932863D01*
X89267781Y-74932860D01*
X89103920Y-74823371D01*
X89103907Y-74823364D01*
X88921839Y-74747950D01*
X88921829Y-74747947D01*
X88728543Y-74709500D01*
X88728541Y-74709500D01*
X88531459Y-74709500D01*
X88531457Y-74709500D01*
X88338170Y-74747947D01*
X88338160Y-74747950D01*
X88156092Y-74823364D01*
X88156079Y-74823371D01*
X87992218Y-74932860D01*
X87992214Y-74932863D01*
X87852863Y-75072214D01*
X87852860Y-75072218D01*
X87743371Y-75236079D01*
X87743364Y-75236092D01*
X87667950Y-75418160D01*
X87667947Y-75418170D01*
X87629500Y-75611456D01*
X87629500Y-75611459D01*
X87629500Y-75808541D01*
X87629500Y-75808543D01*
X87629499Y-75808543D01*
X86500500Y-75808543D01*
X86500500Y-75808541D01*
X86500500Y-75611459D01*
X86500500Y-75611456D01*
X86462052Y-75418170D01*
X86462051Y-75418169D01*
X86462051Y-75418165D01*
X86462049Y-75418160D01*
X86386635Y-75236092D01*
X86386628Y-75236079D01*
X86277139Y-75072218D01*
X86277136Y-75072214D01*
X86137785Y-74932863D01*
X86137781Y-74932860D01*
X85973920Y-74823371D01*
X85973907Y-74823364D01*
X85791839Y-74747950D01*
X85791829Y-74747947D01*
X85598543Y-74709500D01*
X85598541Y-74709500D01*
X85401459Y-74709500D01*
X85401457Y-74709500D01*
X85208170Y-74747947D01*
X85208160Y-74747950D01*
X85026092Y-74823364D01*
X85026079Y-74823371D01*
X84862218Y-74932860D01*
X84862214Y-74932863D01*
X84722863Y-75072214D01*
X84722860Y-75072218D01*
X84613371Y-75236079D01*
X84613364Y-75236092D01*
X84537950Y-75418160D01*
X84537947Y-75418170D01*
X84499500Y-75611456D01*
X84499500Y-75611459D01*
X84499500Y-75808541D01*
X84499500Y-75808543D01*
X84499499Y-75808543D01*
X83460500Y-75808543D01*
X83460500Y-75808541D01*
X83460500Y-75611459D01*
X83460500Y-75611456D01*
X83422052Y-75418170D01*
X83422051Y-75418169D01*
X83422051Y-75418165D01*
X83422049Y-75418160D01*
X83346635Y-75236092D01*
X83346628Y-75236079D01*
X83237139Y-75072218D01*
X83237136Y-75072214D01*
X83097785Y-74932863D01*
X83097781Y-74932860D01*
X82933920Y-74823371D01*
X82933907Y-74823364D01*
X82751839Y-74747950D01*
X82751829Y-74747947D01*
X82558543Y-74709500D01*
X82558541Y-74709500D01*
X82361459Y-74709500D01*
X82361457Y-74709500D01*
X82168170Y-74747947D01*
X82168160Y-74747950D01*
X81986092Y-74823364D01*
X81986079Y-74823371D01*
X81822218Y-74932860D01*
X81822214Y-74932863D01*
X81682863Y-75072214D01*
X81682860Y-75072218D01*
X81573371Y-75236079D01*
X81573364Y-75236092D01*
X81497950Y-75418160D01*
X81497947Y-75418170D01*
X81459500Y-75611456D01*
X81459500Y-75611459D01*
X81459500Y-75808541D01*
X81459500Y-75808543D01*
X81459499Y-75808543D01*
X77400500Y-75808543D01*
X77400500Y-72897648D01*
X81139500Y-72897648D01*
X81139500Y-73102351D01*
X81171522Y-73304534D01*
X81234781Y-73499223D01*
X81327715Y-73681613D01*
X81448028Y-73847213D01*
X81592786Y-73991971D01*
X81747749Y-74104556D01*
X81758390Y-74112287D01*
X81874607Y-74171503D01*
X81940776Y-74205218D01*
X81940778Y-74205218D01*
X81940781Y-74205220D01*
X82045137Y-74239127D01*
X82135465Y-74268477D01*
X82236557Y-74284488D01*
X82337648Y-74300500D01*
X82337649Y-74300500D01*
X82542351Y-74300500D01*
X82542352Y-74300500D01*
X82744534Y-74268477D01*
X82939219Y-74205220D01*
X83121610Y-74112287D01*
X83214590Y-74044732D01*
X83287213Y-73991971D01*
X83287215Y-73991968D01*
X83287219Y-73991966D01*
X83431966Y-73847219D01*
X83431968Y-73847215D01*
X83431971Y-73847213D01*
X83484732Y-73774590D01*
X83552287Y-73681610D01*
X83645220Y-73499219D01*
X83708477Y-73304534D01*
X83740500Y-73102352D01*
X83740500Y-72897648D01*
X84209500Y-72897648D01*
X84209500Y-73102351D01*
X84241522Y-73304534D01*
X84304781Y-73499223D01*
X84397715Y-73681613D01*
X84518028Y-73847213D01*
X84662786Y-73991971D01*
X84817749Y-74104556D01*
X84828390Y-74112287D01*
X84944607Y-74171503D01*
X85010776Y-74205218D01*
X85010778Y-74205218D01*
X85010781Y-74205220D01*
X85115137Y-74239127D01*
X85205465Y-74268477D01*
X85306557Y-74284488D01*
X85407648Y-74300500D01*
X85407649Y-74300500D01*
X85612351Y-74300500D01*
X85612352Y-74300500D01*
X85814534Y-74268477D01*
X86009219Y-74205220D01*
X86191610Y-74112287D01*
X86284590Y-74044732D01*
X86357213Y-73991971D01*
X86357215Y-73991968D01*
X86357219Y-73991966D01*
X86501966Y-73847219D01*
X86501968Y-73847215D01*
X86501971Y-73847213D01*
X86554732Y-73774590D01*
X86622287Y-73681610D01*
X86715220Y-73499219D01*
X86778477Y-73304534D01*
X86810500Y-73102352D01*
X86810500Y-72897648D01*
X87349500Y-72897648D01*
X87349500Y-73102351D01*
X87381522Y-73304534D01*
X87444781Y-73499223D01*
X87537715Y-73681613D01*
X87658028Y-73847213D01*
X87802786Y-73991971D01*
X87957749Y-74104556D01*
X87968390Y-74112287D01*
X88084607Y-74171503D01*
X88150776Y-74205218D01*
X88150778Y-74205218D01*
X88150781Y-74205220D01*
X88255137Y-74239127D01*
X88345465Y-74268477D01*
X88446557Y-74284488D01*
X88547648Y-74300500D01*
X88547649Y-74300500D01*
X88752351Y-74300500D01*
X88752352Y-74300500D01*
X88954534Y-74268477D01*
X89149219Y-74205220D01*
X89331610Y-74112287D01*
X89424590Y-74044732D01*
X89497213Y-73991971D01*
X89497215Y-73991968D01*
X89497219Y-73991966D01*
X89641966Y-73847219D01*
X89641968Y-73847215D01*
X89641971Y-73847213D01*
X89694732Y-73774590D01*
X89762287Y-73681610D01*
X89855220Y-73499219D01*
X89918477Y-73304534D01*
X89950500Y-73102352D01*
X89950500Y-72897648D01*
X90459500Y-72897648D01*
X90459500Y-73102351D01*
X90491522Y-73304534D01*
X90554781Y-73499223D01*
X90647715Y-73681613D01*
X90768028Y-73847213D01*
X90912786Y-73991971D01*
X91067749Y-74104556D01*
X91078390Y-74112287D01*
X91194607Y-74171503D01*
X91260776Y-74205218D01*
X91260778Y-74205218D01*
X91260781Y-74205220D01*
X91365137Y-74239127D01*
X91455465Y-74268477D01*
X91556557Y-74284488D01*
X91657648Y-74300500D01*
X91657649Y-74300500D01*
X91862351Y-74300500D01*
X91862352Y-74300500D01*
X92064534Y-74268477D01*
X92259219Y-74205220D01*
X92441610Y-74112287D01*
X92534590Y-74044732D01*
X92607213Y-73991971D01*
X92607215Y-73991968D01*
X92607219Y-73991966D01*
X92751966Y-73847219D01*
X92751968Y-73847215D01*
X92751971Y-73847213D01*
X92804732Y-73774590D01*
X92872287Y-73681610D01*
X92965220Y-73499219D01*
X93028477Y-73304534D01*
X93060500Y-73102352D01*
X93060500Y-72897648D01*
X93659500Y-72897648D01*
X93659500Y-73102351D01*
X93691522Y-73304534D01*
X93754781Y-73499223D01*
X93847715Y-73681613D01*
X93968028Y-73847213D01*
X94112786Y-73991971D01*
X94267749Y-74104556D01*
X94278390Y-74112287D01*
X94394607Y-74171503D01*
X94460776Y-74205218D01*
X94460778Y-74205218D01*
X94460781Y-74205220D01*
X94565137Y-74239127D01*
X94655465Y-74268477D01*
X94756557Y-74284488D01*
X94857648Y-74300500D01*
X94857649Y-74300500D01*
X95062351Y-74300500D01*
X95062352Y-74300500D01*
X95264534Y-74268477D01*
X95459219Y-74205220D01*
X95641610Y-74112287D01*
X95734590Y-74044732D01*
X95807213Y-73991971D01*
X95807215Y-73991968D01*
X95807219Y-73991966D01*
X95951966Y-73847219D01*
X95951968Y-73847215D01*
X95951971Y-73847213D01*
X96004732Y-73774590D01*
X96072287Y-73681610D01*
X96165220Y-73499219D01*
X96228477Y-73304534D01*
X96260500Y-73102352D01*
X96260500Y-72897648D01*
X96739500Y-72897648D01*
X96739500Y-73102351D01*
X96771522Y-73304534D01*
X96834781Y-73499223D01*
X96927715Y-73681613D01*
X97048028Y-73847213D01*
X97192786Y-73991971D01*
X97347749Y-74104556D01*
X97358390Y-74112287D01*
X97474607Y-74171503D01*
X97540776Y-74205218D01*
X97540778Y-74205218D01*
X97540781Y-74205220D01*
X97645137Y-74239127D01*
X97735465Y-74268477D01*
X97836557Y-74284488D01*
X97937648Y-74300500D01*
X97937649Y-74300500D01*
X98142351Y-74300500D01*
X98142352Y-74300500D01*
X98344534Y-74268477D01*
X98539219Y-74205220D01*
X98721610Y-74112287D01*
X98814590Y-74044732D01*
X98887213Y-73991971D01*
X98887215Y-73991968D01*
X98887219Y-73991966D01*
X99031966Y-73847219D01*
X99031968Y-73847215D01*
X99031971Y-73847213D01*
X99084732Y-73774590D01*
X99152287Y-73681610D01*
X99245220Y-73499219D01*
X99308477Y-73304534D01*
X99340500Y-73102352D01*
X99340500Y-72897648D01*
X99809500Y-72897648D01*
X99809500Y-73102351D01*
X99841522Y-73304534D01*
X99904781Y-73499223D01*
X99997715Y-73681613D01*
X100118028Y-73847213D01*
X100262786Y-73991971D01*
X100417749Y-74104556D01*
X100428390Y-74112287D01*
X100544607Y-74171503D01*
X100610776Y-74205218D01*
X100610778Y-74205218D01*
X100610781Y-74205220D01*
X100715137Y-74239127D01*
X100805465Y-74268477D01*
X100906557Y-74284488D01*
X101007648Y-74300500D01*
X101007649Y-74300500D01*
X101212351Y-74300500D01*
X101212352Y-74300500D01*
X101414534Y-74268477D01*
X101609219Y-74205220D01*
X101791610Y-74112287D01*
X101884590Y-74044732D01*
X101957213Y-73991971D01*
X101957215Y-73991968D01*
X101957219Y-73991966D01*
X102101966Y-73847219D01*
X102101968Y-73847215D01*
X102101971Y-73847213D01*
X102154732Y-73774590D01*
X102222287Y-73681610D01*
X102315220Y-73499219D01*
X102378477Y-73304534D01*
X102410500Y-73102352D01*
X102410500Y-72897648D01*
X102879500Y-72897648D01*
X102879500Y-73102351D01*
X102911522Y-73304534D01*
X102974781Y-73499223D01*
X103067715Y-73681613D01*
X103188028Y-73847213D01*
X103332786Y-73991971D01*
X103487749Y-74104556D01*
X103498390Y-74112287D01*
X103614607Y-74171503D01*
X103680776Y-74205218D01*
X103680778Y-74205218D01*
X103680781Y-74205220D01*
X103785137Y-74239127D01*
X103875465Y-74268477D01*
X103976557Y-74284488D01*
X104077648Y-74300500D01*
X104077649Y-74300500D01*
X104282351Y-74300500D01*
X104282352Y-74300500D01*
X104484534Y-74268477D01*
X104679219Y-74205220D01*
X104861610Y-74112287D01*
X104954590Y-74044732D01*
X105027213Y-73991971D01*
X105027215Y-73991968D01*
X105027219Y-73991966D01*
X105171966Y-73847219D01*
X105171968Y-73847215D01*
X105171971Y-73847213D01*
X105224732Y-73774590D01*
X105292287Y-73681610D01*
X105385220Y-73499219D01*
X105448477Y-73304534D01*
X105480500Y-73102352D01*
X105480500Y-72897648D01*
X105939500Y-72897648D01*
X105939500Y-73102351D01*
X105971522Y-73304534D01*
X106034781Y-73499223D01*
X106127715Y-73681613D01*
X106248028Y-73847213D01*
X106392786Y-73991971D01*
X106547749Y-74104556D01*
X106558390Y-74112287D01*
X106674607Y-74171503D01*
X106740776Y-74205218D01*
X106740778Y-74205218D01*
X106740781Y-74205220D01*
X106845137Y-74239127D01*
X106935465Y-74268477D01*
X107036557Y-74284488D01*
X107137648Y-74300500D01*
X107137649Y-74300500D01*
X107342351Y-74300500D01*
X107342352Y-74300500D01*
X107544534Y-74268477D01*
X107739219Y-74205220D01*
X107921610Y-74112287D01*
X108014590Y-74044732D01*
X108087213Y-73991971D01*
X108087215Y-73991968D01*
X108087219Y-73991966D01*
X108231966Y-73847219D01*
X108231968Y-73847215D01*
X108231971Y-73847213D01*
X108284732Y-73774590D01*
X108352287Y-73681610D01*
X108445220Y-73499219D01*
X108508477Y-73304534D01*
X108540500Y-73102352D01*
X108540500Y-72897648D01*
X108508477Y-72695466D01*
X108445220Y-72500781D01*
X108445218Y-72500778D01*
X108445218Y-72500776D01*
X108411503Y-72434607D01*
X108352287Y-72318390D01*
X108344556Y-72307749D01*
X108231971Y-72152786D01*
X108087213Y-72008028D01*
X107921613Y-71887715D01*
X107921612Y-71887714D01*
X107921610Y-71887713D01*
X107864653Y-71858691D01*
X107739223Y-71794781D01*
X107544534Y-71731522D01*
X107369995Y-71703878D01*
X107342352Y-71699500D01*
X107137648Y-71699500D01*
X107113329Y-71703351D01*
X106935465Y-71731522D01*
X106740776Y-71794781D01*
X106558386Y-71887715D01*
X106392786Y-72008028D01*
X106248028Y-72152786D01*
X106127715Y-72318386D01*
X106034781Y-72500776D01*
X105971522Y-72695465D01*
X105939500Y-72897648D01*
X105480500Y-72897648D01*
X105448477Y-72695466D01*
X105385220Y-72500781D01*
X105385218Y-72500778D01*
X105385218Y-72500776D01*
X105351503Y-72434607D01*
X105292287Y-72318390D01*
X105284556Y-72307749D01*
X105171971Y-72152786D01*
X105027213Y-72008028D01*
X104861613Y-71887715D01*
X104861612Y-71887714D01*
X104861610Y-71887713D01*
X104804653Y-71858691D01*
X104679223Y-71794781D01*
X104484534Y-71731522D01*
X104309995Y-71703878D01*
X104282352Y-71699500D01*
X104077648Y-71699500D01*
X104053329Y-71703351D01*
X103875465Y-71731522D01*
X103680776Y-71794781D01*
X103498386Y-71887715D01*
X103332786Y-72008028D01*
X103188028Y-72152786D01*
X103067715Y-72318386D01*
X102974781Y-72500776D01*
X102911522Y-72695465D01*
X102879500Y-72897648D01*
X102410500Y-72897648D01*
X102378477Y-72695466D01*
X102315220Y-72500781D01*
X102315218Y-72500778D01*
X102315218Y-72500776D01*
X102281503Y-72434607D01*
X102222287Y-72318390D01*
X102214556Y-72307749D01*
X102101971Y-72152786D01*
X101957213Y-72008028D01*
X101791613Y-71887715D01*
X101791612Y-71887714D01*
X101791610Y-71887713D01*
X101734653Y-71858691D01*
X101609223Y-71794781D01*
X101414534Y-71731522D01*
X101239995Y-71703878D01*
X101212352Y-71699500D01*
X101007648Y-71699500D01*
X100983329Y-71703351D01*
X100805465Y-71731522D01*
X100610776Y-71794781D01*
X100428386Y-71887715D01*
X100262786Y-72008028D01*
X100118028Y-72152786D01*
X99997715Y-72318386D01*
X99904781Y-72500776D01*
X99841522Y-72695465D01*
X99809500Y-72897648D01*
X99340500Y-72897648D01*
X99308477Y-72695466D01*
X99245220Y-72500781D01*
X99245218Y-72500778D01*
X99245218Y-72500776D01*
X99211503Y-72434607D01*
X99152287Y-72318390D01*
X99144556Y-72307749D01*
X99031971Y-72152786D01*
X98887213Y-72008028D01*
X98721613Y-71887715D01*
X98721612Y-71887714D01*
X98721610Y-71887713D01*
X98664653Y-71858691D01*
X98539223Y-71794781D01*
X98344534Y-71731522D01*
X98169995Y-71703878D01*
X98142352Y-71699500D01*
X97937648Y-71699500D01*
X97913329Y-71703351D01*
X97735465Y-71731522D01*
X97540776Y-71794781D01*
X97358386Y-71887715D01*
X97192786Y-72008028D01*
X97048028Y-72152786D01*
X96927715Y-72318386D01*
X96834781Y-72500776D01*
X96771522Y-72695465D01*
X96739500Y-72897648D01*
X96260500Y-72897648D01*
X96228477Y-72695466D01*
X96165220Y-72500781D01*
X96165218Y-72500778D01*
X96165218Y-72500776D01*
X96131503Y-72434607D01*
X96072287Y-72318390D01*
X96064556Y-72307749D01*
X95951971Y-72152786D01*
X95807213Y-72008028D01*
X95641613Y-71887715D01*
X95641612Y-71887714D01*
X95641610Y-71887713D01*
X95584653Y-71858691D01*
X95459223Y-71794781D01*
X95264534Y-71731522D01*
X95089995Y-71703878D01*
X95062352Y-71699500D01*
X94857648Y-71699500D01*
X94833329Y-71703351D01*
X94655465Y-71731522D01*
X94460776Y-71794781D01*
X94278386Y-71887715D01*
X94112786Y-72008028D01*
X93968028Y-72152786D01*
X93847715Y-72318386D01*
X93754781Y-72500776D01*
X93691522Y-72695465D01*
X93659500Y-72897648D01*
X93060500Y-72897648D01*
X93028477Y-72695466D01*
X92965220Y-72500781D01*
X92965218Y-72500778D01*
X92965218Y-72500776D01*
X92931503Y-72434607D01*
X92872287Y-72318390D01*
X92864556Y-72307749D01*
X92751971Y-72152786D01*
X92607213Y-72008028D01*
X92441613Y-71887715D01*
X92441612Y-71887714D01*
X92441610Y-71887713D01*
X92384653Y-71858691D01*
X92259223Y-71794781D01*
X92064534Y-71731522D01*
X91889995Y-71703878D01*
X91862352Y-71699500D01*
X91657648Y-71699500D01*
X91633329Y-71703351D01*
X91455465Y-71731522D01*
X91260776Y-71794781D01*
X91078386Y-71887715D01*
X90912786Y-72008028D01*
X90768028Y-72152786D01*
X90647715Y-72318386D01*
X90554781Y-72500776D01*
X90491522Y-72695465D01*
X90459500Y-72897648D01*
X89950500Y-72897648D01*
X89918477Y-72695466D01*
X89855220Y-72500781D01*
X89855218Y-72500778D01*
X89855218Y-72500776D01*
X89821503Y-72434607D01*
X89762287Y-72318390D01*
X89754556Y-72307749D01*
X89641971Y-72152786D01*
X89497213Y-72008028D01*
X89331613Y-71887715D01*
X89331612Y-71887714D01*
X89331610Y-71887713D01*
X89274653Y-71858691D01*
X89149223Y-71794781D01*
X88954534Y-71731522D01*
X88779995Y-71703878D01*
X88752352Y-71699500D01*
X88547648Y-71699500D01*
X88523329Y-71703351D01*
X88345465Y-71731522D01*
X88150776Y-71794781D01*
X87968386Y-71887715D01*
X87802786Y-72008028D01*
X87658028Y-72152786D01*
X87537715Y-72318386D01*
X87444781Y-72500776D01*
X87381522Y-72695465D01*
X87349500Y-72897648D01*
X86810500Y-72897648D01*
X86778477Y-72695466D01*
X86715220Y-72500781D01*
X86715218Y-72500778D01*
X86715218Y-72500776D01*
X86681503Y-72434607D01*
X86622287Y-72318390D01*
X86614556Y-72307749D01*
X86501971Y-72152786D01*
X86357213Y-72008028D01*
X86191613Y-71887715D01*
X86191612Y-71887714D01*
X86191610Y-71887713D01*
X86134653Y-71858691D01*
X86009223Y-71794781D01*
X85814534Y-71731522D01*
X85639995Y-71703878D01*
X85612352Y-71699500D01*
X85407648Y-71699500D01*
X85383329Y-71703351D01*
X85205465Y-71731522D01*
X85010776Y-71794781D01*
X84828386Y-71887715D01*
X84662786Y-72008028D01*
X84518028Y-72152786D01*
X84397715Y-72318386D01*
X84304781Y-72500776D01*
X84241522Y-72695465D01*
X84209500Y-72897648D01*
X83740500Y-72897648D01*
X83708477Y-72695466D01*
X83645220Y-72500781D01*
X83645218Y-72500778D01*
X83645218Y-72500776D01*
X83611503Y-72434607D01*
X83552287Y-72318390D01*
X83544556Y-72307749D01*
X83431971Y-72152786D01*
X83287213Y-72008028D01*
X83121613Y-71887715D01*
X83121612Y-71887714D01*
X83121610Y-71887713D01*
X83064653Y-71858691D01*
X82939223Y-71794781D01*
X82744534Y-71731522D01*
X82569995Y-71703878D01*
X82542352Y-71699500D01*
X82337648Y-71699500D01*
X82313329Y-71703351D01*
X82135465Y-71731522D01*
X81940776Y-71794781D01*
X81758386Y-71887715D01*
X81592786Y-72008028D01*
X81448028Y-72152786D01*
X81327715Y-72318386D01*
X81234781Y-72500776D01*
X81171522Y-72695465D01*
X81139500Y-72897648D01*
X77400500Y-72897648D01*
X77400500Y-62737648D01*
X81139500Y-62737648D01*
X81139500Y-62942352D01*
X81143878Y-62969995D01*
X81171522Y-63144534D01*
X81234781Y-63339223D01*
X81298691Y-63464653D01*
X81299418Y-63466079D01*
X81327715Y-63521613D01*
X81448028Y-63687213D01*
X81592786Y-63831971D01*
X81747749Y-63944556D01*
X81758390Y-63952287D01*
X81874607Y-64011503D01*
X81940776Y-64045218D01*
X81940778Y-64045218D01*
X81940781Y-64045220D01*
X82045137Y-64079127D01*
X82135465Y-64108477D01*
X82236557Y-64124488D01*
X82337648Y-64140500D01*
X82337649Y-64140500D01*
X82542351Y-64140500D01*
X82542352Y-64140500D01*
X82744534Y-64108477D01*
X82939219Y-64045220D01*
X83121610Y-63952287D01*
X83214590Y-63884732D01*
X83287213Y-63831971D01*
X83287215Y-63831968D01*
X83287219Y-63831966D01*
X83431966Y-63687219D01*
X83431968Y-63687215D01*
X83431971Y-63687213D01*
X83484732Y-63614590D01*
X83552287Y-63521610D01*
X83645220Y-63339219D01*
X83708477Y-63144534D01*
X83740500Y-62942352D01*
X83740500Y-62737648D01*
X84209500Y-62737648D01*
X84209500Y-62942352D01*
X84213878Y-62969995D01*
X84241522Y-63144534D01*
X84304781Y-63339223D01*
X84368691Y-63464653D01*
X84369418Y-63466079D01*
X84397715Y-63521613D01*
X84518028Y-63687213D01*
X84662786Y-63831971D01*
X84817749Y-63944556D01*
X84828390Y-63952287D01*
X84944607Y-64011503D01*
X85010776Y-64045218D01*
X85010778Y-64045218D01*
X85010781Y-64045220D01*
X85115137Y-64079127D01*
X85205465Y-64108477D01*
X85306557Y-64124488D01*
X85407648Y-64140500D01*
X85407649Y-64140500D01*
X85612351Y-64140500D01*
X85612352Y-64140500D01*
X85814534Y-64108477D01*
X86009219Y-64045220D01*
X86191610Y-63952287D01*
X86284590Y-63884732D01*
X86357213Y-63831971D01*
X86357215Y-63831968D01*
X86357219Y-63831966D01*
X86501966Y-63687219D01*
X86501968Y-63687215D01*
X86501971Y-63687213D01*
X86554732Y-63614590D01*
X86622287Y-63521610D01*
X86715220Y-63339219D01*
X86778477Y-63144534D01*
X86810500Y-62942352D01*
X86810500Y-62737648D01*
X87349500Y-62737648D01*
X87349500Y-62942352D01*
X87353878Y-62969995D01*
X87381522Y-63144534D01*
X87444781Y-63339223D01*
X87508691Y-63464653D01*
X87509418Y-63466079D01*
X87537715Y-63521613D01*
X87658028Y-63687213D01*
X87802786Y-63831971D01*
X87957749Y-63944556D01*
X87968390Y-63952287D01*
X88084607Y-64011503D01*
X88150776Y-64045218D01*
X88150778Y-64045218D01*
X88150781Y-64045220D01*
X88255137Y-64079127D01*
X88345465Y-64108477D01*
X88446557Y-64124488D01*
X88547648Y-64140500D01*
X88547649Y-64140500D01*
X88752351Y-64140500D01*
X88752352Y-64140500D01*
X88954534Y-64108477D01*
X89149219Y-64045220D01*
X89331610Y-63952287D01*
X89424590Y-63884732D01*
X89497213Y-63831971D01*
X89497215Y-63831968D01*
X89497219Y-63831966D01*
X89641966Y-63687219D01*
X89641968Y-63687215D01*
X89641971Y-63687213D01*
X89694732Y-63614590D01*
X89762287Y-63521610D01*
X89855220Y-63339219D01*
X89918477Y-63144534D01*
X89950500Y-62942352D01*
X89950500Y-62737648D01*
X90459500Y-62737648D01*
X90459500Y-62942352D01*
X90463878Y-62969995D01*
X90491522Y-63144534D01*
X90554781Y-63339223D01*
X90618691Y-63464653D01*
X90619418Y-63466079D01*
X90647715Y-63521613D01*
X90768028Y-63687213D01*
X90912786Y-63831971D01*
X91067749Y-63944556D01*
X91078390Y-63952287D01*
X91194607Y-64011503D01*
X91260776Y-64045218D01*
X91260778Y-64045218D01*
X91260781Y-64045220D01*
X91365137Y-64079127D01*
X91455465Y-64108477D01*
X91556557Y-64124488D01*
X91657648Y-64140500D01*
X91657649Y-64140500D01*
X91862351Y-64140500D01*
X91862352Y-64140500D01*
X92064534Y-64108477D01*
X92259219Y-64045220D01*
X92441610Y-63952287D01*
X92534590Y-63884732D01*
X92607213Y-63831971D01*
X92607215Y-63831968D01*
X92607219Y-63831966D01*
X92751966Y-63687219D01*
X92751968Y-63687215D01*
X92751971Y-63687213D01*
X92804732Y-63614590D01*
X92872287Y-63521610D01*
X92965220Y-63339219D01*
X93028477Y-63144534D01*
X93060500Y-62942352D01*
X93060500Y-62737648D01*
X93659500Y-62737648D01*
X93659500Y-62942352D01*
X93663878Y-62969995D01*
X93691522Y-63144534D01*
X93754781Y-63339223D01*
X93818691Y-63464653D01*
X93819418Y-63466079D01*
X93847715Y-63521613D01*
X93968028Y-63687213D01*
X94112786Y-63831971D01*
X94267749Y-63944556D01*
X94278390Y-63952287D01*
X94394607Y-64011503D01*
X94460776Y-64045218D01*
X94460778Y-64045218D01*
X94460781Y-64045220D01*
X94565137Y-64079127D01*
X94655465Y-64108477D01*
X94756557Y-64124488D01*
X94857648Y-64140500D01*
X94857649Y-64140500D01*
X95062351Y-64140500D01*
X95062352Y-64140500D01*
X95264534Y-64108477D01*
X95459219Y-64045220D01*
X95641610Y-63952287D01*
X95734590Y-63884732D01*
X95807213Y-63831971D01*
X95807215Y-63831968D01*
X95807219Y-63831966D01*
X95951966Y-63687219D01*
X95951968Y-63687215D01*
X95951971Y-63687213D01*
X96004732Y-63614590D01*
X96072287Y-63521610D01*
X96165220Y-63339219D01*
X96228477Y-63144534D01*
X96260500Y-62942352D01*
X96260500Y-62737648D01*
X96739500Y-62737648D01*
X96739500Y-62942352D01*
X96743878Y-62969995D01*
X96771522Y-63144534D01*
X96834781Y-63339223D01*
X96898691Y-63464653D01*
X96899418Y-63466079D01*
X96927715Y-63521613D01*
X97048028Y-63687213D01*
X97192786Y-63831971D01*
X97347749Y-63944556D01*
X97358390Y-63952287D01*
X97474607Y-64011503D01*
X97540776Y-64045218D01*
X97540778Y-64045218D01*
X97540781Y-64045220D01*
X97645137Y-64079127D01*
X97735465Y-64108477D01*
X97836557Y-64124488D01*
X97937648Y-64140500D01*
X97937649Y-64140500D01*
X98142351Y-64140500D01*
X98142352Y-64140500D01*
X98344534Y-64108477D01*
X98539219Y-64045220D01*
X98721610Y-63952287D01*
X98814590Y-63884732D01*
X98887213Y-63831971D01*
X98887215Y-63831968D01*
X98887219Y-63831966D01*
X99031966Y-63687219D01*
X99031968Y-63687215D01*
X99031971Y-63687213D01*
X99084732Y-63614590D01*
X99152287Y-63521610D01*
X99245220Y-63339219D01*
X99308477Y-63144534D01*
X99340500Y-62942352D01*
X99340500Y-62737648D01*
X99809500Y-62737648D01*
X99809500Y-62942352D01*
X99813878Y-62969995D01*
X99841522Y-63144534D01*
X99904781Y-63339223D01*
X99968691Y-63464653D01*
X99969418Y-63466079D01*
X99997715Y-63521613D01*
X100118028Y-63687213D01*
X100262786Y-63831971D01*
X100417749Y-63944556D01*
X100428390Y-63952287D01*
X100544607Y-64011503D01*
X100610776Y-64045218D01*
X100610778Y-64045218D01*
X100610781Y-64045220D01*
X100715137Y-64079127D01*
X100805465Y-64108477D01*
X100906557Y-64124488D01*
X101007648Y-64140500D01*
X101007649Y-64140500D01*
X101212351Y-64140500D01*
X101212352Y-64140500D01*
X101414534Y-64108477D01*
X101609219Y-64045220D01*
X101791610Y-63952287D01*
X101884590Y-63884732D01*
X101957213Y-63831971D01*
X101957215Y-63831968D01*
X101957219Y-63831966D01*
X102101966Y-63687219D01*
X102101968Y-63687215D01*
X102101971Y-63687213D01*
X102154732Y-63614590D01*
X102222287Y-63521610D01*
X102315220Y-63339219D01*
X102378477Y-63144534D01*
X102410500Y-62942352D01*
X102410500Y-62737648D01*
X102879500Y-62737648D01*
X102879500Y-62942352D01*
X102883878Y-62969995D01*
X102911522Y-63144534D01*
X102974781Y-63339223D01*
X103038691Y-63464653D01*
X103039418Y-63466079D01*
X103067715Y-63521613D01*
X103188028Y-63687213D01*
X103332786Y-63831971D01*
X103487749Y-63944556D01*
X103498390Y-63952287D01*
X103614607Y-64011503D01*
X103680776Y-64045218D01*
X103680778Y-64045218D01*
X103680781Y-64045220D01*
X103785137Y-64079127D01*
X103875465Y-64108477D01*
X103976557Y-64124488D01*
X104077648Y-64140500D01*
X104077649Y-64140500D01*
X104282351Y-64140500D01*
X104282352Y-64140500D01*
X104484534Y-64108477D01*
X104679219Y-64045220D01*
X104861610Y-63952287D01*
X104954590Y-63884732D01*
X105027213Y-63831971D01*
X105027215Y-63831968D01*
X105027219Y-63831966D01*
X105171966Y-63687219D01*
X105171968Y-63687215D01*
X105171971Y-63687213D01*
X105224732Y-63614590D01*
X105292287Y-63521610D01*
X105385220Y-63339219D01*
X105448477Y-63144534D01*
X105480500Y-62942352D01*
X105480500Y-62737648D01*
X105939500Y-62737648D01*
X105939500Y-62942352D01*
X105943878Y-62969995D01*
X105971522Y-63144534D01*
X106034781Y-63339223D01*
X106098691Y-63464653D01*
X106099418Y-63466079D01*
X106127715Y-63521613D01*
X106248028Y-63687213D01*
X106392786Y-63831971D01*
X106547749Y-63944556D01*
X106558390Y-63952287D01*
X106674607Y-64011503D01*
X106740776Y-64045218D01*
X106740778Y-64045218D01*
X106740781Y-64045220D01*
X106845137Y-64079127D01*
X106935465Y-64108477D01*
X107036557Y-64124488D01*
X107137648Y-64140500D01*
X107137649Y-64140500D01*
X107342351Y-64140500D01*
X107342352Y-64140500D01*
X107544534Y-64108477D01*
X107739219Y-64045220D01*
X107921610Y-63952287D01*
X108014590Y-63884732D01*
X108087213Y-63831971D01*
X108087215Y-63831968D01*
X108087219Y-63831966D01*
X108231966Y-63687219D01*
X108231968Y-63687215D01*
X108231971Y-63687213D01*
X108284732Y-63614590D01*
X108352287Y-63521610D01*
X108445220Y-63339219D01*
X108508477Y-63144534D01*
X108540500Y-62942352D01*
X108540500Y-62737648D01*
X108508477Y-62535466D01*
X108445220Y-62340781D01*
X108445218Y-62340778D01*
X108445218Y-62340776D01*
X108411503Y-62274607D01*
X108352287Y-62158390D01*
X108344556Y-62147749D01*
X108231971Y-61992786D01*
X108087213Y-61848028D01*
X107921613Y-61727715D01*
X107921612Y-61727714D01*
X107921610Y-61727713D01*
X107864653Y-61698691D01*
X107739223Y-61634781D01*
X107544534Y-61571522D01*
X107369995Y-61543878D01*
X107342352Y-61539500D01*
X107137648Y-61539500D01*
X107113329Y-61543351D01*
X106935465Y-61571522D01*
X106740776Y-61634781D01*
X106558386Y-61727715D01*
X106392786Y-61848028D01*
X106248028Y-61992786D01*
X106127715Y-62158386D01*
X106034781Y-62340776D01*
X105971522Y-62535465D01*
X105939500Y-62737648D01*
X105480500Y-62737648D01*
X105448477Y-62535466D01*
X105385220Y-62340781D01*
X105385218Y-62340778D01*
X105385218Y-62340776D01*
X105351503Y-62274607D01*
X105292287Y-62158390D01*
X105284556Y-62147749D01*
X105171971Y-61992786D01*
X105027213Y-61848028D01*
X104861613Y-61727715D01*
X104861612Y-61727714D01*
X104861610Y-61727713D01*
X104804653Y-61698691D01*
X104679223Y-61634781D01*
X104484534Y-61571522D01*
X104309995Y-61543878D01*
X104282352Y-61539500D01*
X104077648Y-61539500D01*
X104053329Y-61543351D01*
X103875465Y-61571522D01*
X103680776Y-61634781D01*
X103498386Y-61727715D01*
X103332786Y-61848028D01*
X103188028Y-61992786D01*
X103067715Y-62158386D01*
X102974781Y-62340776D01*
X102911522Y-62535465D01*
X102879500Y-62737648D01*
X102410500Y-62737648D01*
X102378477Y-62535466D01*
X102315220Y-62340781D01*
X102315218Y-62340778D01*
X102315218Y-62340776D01*
X102281503Y-62274607D01*
X102222287Y-62158390D01*
X102214556Y-62147749D01*
X102101971Y-61992786D01*
X101957213Y-61848028D01*
X101791613Y-61727715D01*
X101791612Y-61727714D01*
X101791610Y-61727713D01*
X101734653Y-61698691D01*
X101609223Y-61634781D01*
X101414534Y-61571522D01*
X101239995Y-61543878D01*
X101212352Y-61539500D01*
X101007648Y-61539500D01*
X100983329Y-61543351D01*
X100805465Y-61571522D01*
X100610776Y-61634781D01*
X100428386Y-61727715D01*
X100262786Y-61848028D01*
X100118028Y-61992786D01*
X99997715Y-62158386D01*
X99904781Y-62340776D01*
X99841522Y-62535465D01*
X99809500Y-62737648D01*
X99340500Y-62737648D01*
X99308477Y-62535466D01*
X99245220Y-62340781D01*
X99245218Y-62340778D01*
X99245218Y-62340776D01*
X99211503Y-62274607D01*
X99152287Y-62158390D01*
X99144556Y-62147749D01*
X99031971Y-61992786D01*
X98887213Y-61848028D01*
X98721613Y-61727715D01*
X98721612Y-61727714D01*
X98721610Y-61727713D01*
X98664653Y-61698691D01*
X98539223Y-61634781D01*
X98344534Y-61571522D01*
X98169995Y-61543878D01*
X98142352Y-61539500D01*
X97937648Y-61539500D01*
X97913329Y-61543351D01*
X97735465Y-61571522D01*
X97540776Y-61634781D01*
X97358386Y-61727715D01*
X97192786Y-61848028D01*
X97048028Y-61992786D01*
X96927715Y-62158386D01*
X96834781Y-62340776D01*
X96771522Y-62535465D01*
X96739500Y-62737648D01*
X96260500Y-62737648D01*
X96228477Y-62535466D01*
X96165220Y-62340781D01*
X96165218Y-62340778D01*
X96165218Y-62340776D01*
X96131503Y-62274607D01*
X96072287Y-62158390D01*
X96064556Y-62147749D01*
X95951971Y-61992786D01*
X95807213Y-61848028D01*
X95641613Y-61727715D01*
X95641612Y-61727714D01*
X95641610Y-61727713D01*
X95584653Y-61698691D01*
X95459223Y-61634781D01*
X95264534Y-61571522D01*
X95089995Y-61543878D01*
X95062352Y-61539500D01*
X94857648Y-61539500D01*
X94833329Y-61543351D01*
X94655465Y-61571522D01*
X94460776Y-61634781D01*
X94278386Y-61727715D01*
X94112786Y-61848028D01*
X93968028Y-61992786D01*
X93847715Y-62158386D01*
X93754781Y-62340776D01*
X93691522Y-62535465D01*
X93659500Y-62737648D01*
X93060500Y-62737648D01*
X93028477Y-62535466D01*
X92965220Y-62340781D01*
X92965218Y-62340778D01*
X92965218Y-62340776D01*
X92931503Y-62274607D01*
X92872287Y-62158390D01*
X92864556Y-62147749D01*
X92751971Y-61992786D01*
X92607213Y-61848028D01*
X92441613Y-61727715D01*
X92441612Y-61727714D01*
X92441610Y-61727713D01*
X92384653Y-61698691D01*
X92259223Y-61634781D01*
X92064534Y-61571522D01*
X91889995Y-61543878D01*
X91862352Y-61539500D01*
X91657648Y-61539500D01*
X91633329Y-61543351D01*
X91455465Y-61571522D01*
X91260776Y-61634781D01*
X91078386Y-61727715D01*
X90912786Y-61848028D01*
X90768028Y-61992786D01*
X90647715Y-62158386D01*
X90554781Y-62340776D01*
X90491522Y-62535465D01*
X90459500Y-62737648D01*
X89950500Y-62737648D01*
X89918477Y-62535466D01*
X89855220Y-62340781D01*
X89855218Y-62340778D01*
X89855218Y-62340776D01*
X89821503Y-62274607D01*
X89762287Y-62158390D01*
X89754556Y-62147749D01*
X89641971Y-61992786D01*
X89497213Y-61848028D01*
X89331613Y-61727715D01*
X89331612Y-61727714D01*
X89331610Y-61727713D01*
X89274653Y-61698691D01*
X89149223Y-61634781D01*
X88954534Y-61571522D01*
X88779995Y-61543878D01*
X88752352Y-61539500D01*
X88547648Y-61539500D01*
X88523329Y-61543351D01*
X88345465Y-61571522D01*
X88150776Y-61634781D01*
X87968386Y-61727715D01*
X87802786Y-61848028D01*
X87658028Y-61992786D01*
X87537715Y-62158386D01*
X87444781Y-62340776D01*
X87381522Y-62535465D01*
X87349500Y-62737648D01*
X86810500Y-62737648D01*
X86778477Y-62535466D01*
X86715220Y-62340781D01*
X86715218Y-62340778D01*
X86715218Y-62340776D01*
X86681503Y-62274607D01*
X86622287Y-62158390D01*
X86614556Y-62147749D01*
X86501971Y-61992786D01*
X86357213Y-61848028D01*
X86191613Y-61727715D01*
X86191612Y-61727714D01*
X86191610Y-61727713D01*
X86134653Y-61698691D01*
X86009223Y-61634781D01*
X85814534Y-61571522D01*
X85639995Y-61543878D01*
X85612352Y-61539500D01*
X85407648Y-61539500D01*
X85383329Y-61543351D01*
X85205465Y-61571522D01*
X85010776Y-61634781D01*
X84828386Y-61727715D01*
X84662786Y-61848028D01*
X84518028Y-61992786D01*
X84397715Y-62158386D01*
X84304781Y-62340776D01*
X84241522Y-62535465D01*
X84209500Y-62737648D01*
X83740500Y-62737648D01*
X83708477Y-62535466D01*
X83645220Y-62340781D01*
X83645218Y-62340778D01*
X83645218Y-62340776D01*
X83611503Y-62274607D01*
X83552287Y-62158390D01*
X83544556Y-62147749D01*
X83431971Y-61992786D01*
X83287213Y-61848028D01*
X83121613Y-61727715D01*
X83121612Y-61727714D01*
X83121610Y-61727713D01*
X83064653Y-61698691D01*
X82939223Y-61634781D01*
X82744534Y-61571522D01*
X82569995Y-61543878D01*
X82542352Y-61539500D01*
X82337648Y-61539500D01*
X82313329Y-61543351D01*
X82135465Y-61571522D01*
X81940776Y-61634781D01*
X81758386Y-61727715D01*
X81592786Y-61848028D01*
X81448028Y-61992786D01*
X81327715Y-62158386D01*
X81234781Y-62340776D01*
X81171522Y-62535465D01*
X81139500Y-62737648D01*
X77400500Y-62737648D01*
X77400500Y-47217648D01*
X98649500Y-47217648D01*
X98649500Y-47422351D01*
X98681522Y-47624534D01*
X98744781Y-47819223D01*
X98837715Y-48001613D01*
X98958028Y-48167213D01*
X99102786Y-48311971D01*
X99244483Y-48414918D01*
X99268390Y-48432287D01*
X99384607Y-48491503D01*
X99450776Y-48525218D01*
X99450778Y-48525218D01*
X99450781Y-48525220D01*
X99555137Y-48559127D01*
X99645465Y-48588477D01*
X99746557Y-48604488D01*
X99847648Y-48620500D01*
X99847649Y-48620500D01*
X100052351Y-48620500D01*
X100052352Y-48620500D01*
X100254534Y-48588477D01*
X100449219Y-48525220D01*
X100631610Y-48432287D01*
X100724590Y-48364732D01*
X100797213Y-48311971D01*
X100797215Y-48311968D01*
X100797219Y-48311966D01*
X100941966Y-48167219D01*
X100941968Y-48167215D01*
X100941971Y-48167213D01*
X100994732Y-48094590D01*
X101062287Y-48001610D01*
X101155220Y-47819219D01*
X101218477Y-47624534D01*
X101250500Y-47422352D01*
X101250500Y-47217648D01*
X101236305Y-47128028D01*
X101218477Y-47015465D01*
X101185137Y-46912857D01*
X101155220Y-46820781D01*
X101155218Y-46820778D01*
X101155218Y-46820776D01*
X101111542Y-46735058D01*
X101062287Y-46638390D01*
X101044672Y-46614145D01*
X100941971Y-46472786D01*
X100797213Y-46328028D01*
X100631613Y-46207715D01*
X100631612Y-46207714D01*
X100631610Y-46207713D01*
X100574653Y-46178691D01*
X100449223Y-46114781D01*
X100254534Y-46051522D01*
X100079995Y-46023878D01*
X100052352Y-46019500D01*
X99847648Y-46019500D01*
X99823329Y-46023351D01*
X99645465Y-46051522D01*
X99450776Y-46114781D01*
X99268386Y-46207715D01*
X99102786Y-46328028D01*
X98958028Y-46472786D01*
X98837715Y-46638386D01*
X98744781Y-46820776D01*
X98681522Y-47015465D01*
X98649500Y-47217648D01*
X77400500Y-47217648D01*
X77400500Y-41997648D01*
X86979500Y-41997648D01*
X86979500Y-42202351D01*
X87011522Y-42404534D01*
X87074781Y-42599223D01*
X87167715Y-42781613D01*
X87288028Y-42947213D01*
X87432786Y-43091971D01*
X87587749Y-43204556D01*
X87598390Y-43212287D01*
X87714607Y-43271503D01*
X87780776Y-43305218D01*
X87780778Y-43305218D01*
X87780781Y-43305220D01*
X87855695Y-43329561D01*
X87975465Y-43368477D01*
X88076557Y-43384488D01*
X88177648Y-43400500D01*
X88177649Y-43400500D01*
X88382351Y-43400500D01*
X88382352Y-43400500D01*
X88584534Y-43368477D01*
X88779219Y-43305220D01*
X88961610Y-43212287D01*
X89054590Y-43144732D01*
X89127213Y-43091971D01*
X89127215Y-43091968D01*
X89127219Y-43091966D01*
X89271966Y-42947219D01*
X89271968Y-42947215D01*
X89271971Y-42947213D01*
X89324732Y-42874590D01*
X89392287Y-42781610D01*
X89485220Y-42599219D01*
X89548477Y-42404534D01*
X89580500Y-42202352D01*
X89580500Y-41997648D01*
X97139500Y-41997648D01*
X97139500Y-42202351D01*
X97171522Y-42404534D01*
X97234781Y-42599223D01*
X97327715Y-42781613D01*
X97448028Y-42947213D01*
X97592786Y-43091971D01*
X97747749Y-43204556D01*
X97758390Y-43212287D01*
X97874607Y-43271503D01*
X97940776Y-43305218D01*
X97940778Y-43305218D01*
X97940781Y-43305220D01*
X98015695Y-43329561D01*
X98135465Y-43368477D01*
X98236557Y-43384488D01*
X98337648Y-43400500D01*
X98337649Y-43400500D01*
X98542351Y-43400500D01*
X98542352Y-43400500D01*
X98744534Y-43368477D01*
X98939219Y-43305220D01*
X99121610Y-43212287D01*
X99214590Y-43144732D01*
X99287213Y-43091971D01*
X99287215Y-43091968D01*
X99287219Y-43091966D01*
X99431966Y-42947219D01*
X99431968Y-42947215D01*
X99431971Y-42947213D01*
X99484732Y-42874590D01*
X99552287Y-42781610D01*
X99645220Y-42599219D01*
X99708477Y-42404534D01*
X99740500Y-42202352D01*
X99740500Y-41997648D01*
X99722520Y-41884127D01*
X99708477Y-41795465D01*
X99648528Y-41610962D01*
X99645220Y-41600781D01*
X99645218Y-41600778D01*
X99645218Y-41600776D01*
X99566721Y-41446718D01*
X99552287Y-41418390D01*
X99552285Y-41418387D01*
X99552284Y-41418385D01*
X99518682Y-41372135D01*
X100867000Y-41372135D01*
X100867000Y-43467870D01*
X100867001Y-43467876D01*
X100873408Y-43527483D01*
X100923702Y-43662328D01*
X100923706Y-43662335D01*
X101009952Y-43777544D01*
X101009955Y-43777547D01*
X101125164Y-43863793D01*
X101125171Y-43863797D01*
X101260017Y-43914091D01*
X101260016Y-43914091D01*
X101266944Y-43914835D01*
X101319627Y-43920500D01*
X103320372Y-43920499D01*
X103379983Y-43914091D01*
X103514831Y-43863796D01*
X103630046Y-43777546D01*
X103716296Y-43662331D01*
X103726690Y-43634460D01*
X103768560Y-43578527D01*
X103834023Y-43554108D01*
X103902297Y-43568958D01*
X103915746Y-43577465D01*
X104098462Y-43710217D01*
X104302242Y-43814048D01*
X104302244Y-43814049D01*
X104519751Y-43884721D01*
X104519752Y-43884721D01*
X104519755Y-43884722D01*
X104745646Y-43920500D01*
X104745647Y-43920500D01*
X104974353Y-43920500D01*
X104974354Y-43920500D01*
X105200245Y-43884722D01*
X105200248Y-43884721D01*
X105200249Y-43884721D01*
X105417755Y-43814049D01*
X105417755Y-43814048D01*
X105417758Y-43814048D01*
X105621538Y-43710217D01*
X105806566Y-43575786D01*
X105968286Y-43414066D01*
X106029683Y-43329559D01*
X106085012Y-43286896D01*
X106154625Y-43280917D01*
X106216420Y-43313523D01*
X106230314Y-43329556D01*
X106291714Y-43414066D01*
X106453434Y-43575786D01*
X106638462Y-43710217D01*
X106842242Y-43814048D01*
X106842244Y-43814049D01*
X107059751Y-43884721D01*
X107059752Y-43884721D01*
X107059755Y-43884722D01*
X107285646Y-43920500D01*
X107285647Y-43920500D01*
X107514353Y-43920500D01*
X107514354Y-43920500D01*
X107740245Y-43884722D01*
X107740248Y-43884721D01*
X107740249Y-43884721D01*
X107957755Y-43814049D01*
X107957755Y-43814048D01*
X107957758Y-43814048D01*
X108161538Y-43710217D01*
X108346566Y-43575786D01*
X108508286Y-43414066D01*
X108642717Y-43229038D01*
X108746548Y-43025258D01*
X108771906Y-42947213D01*
X108817221Y-42807749D01*
X108817221Y-42807748D01*
X108817222Y-42807745D01*
X108853000Y-42581854D01*
X108853000Y-42258146D01*
X108817222Y-42032255D01*
X108817221Y-42032251D01*
X108817221Y-42032250D01*
X108746549Y-41814744D01*
X108680954Y-41686007D01*
X108642717Y-41610962D01*
X108508286Y-41425934D01*
X108346566Y-41264214D01*
X108161538Y-41129783D01*
X108118853Y-41108034D01*
X107957755Y-41025950D01*
X107740248Y-40955278D01*
X107554812Y-40925908D01*
X107514354Y-40919500D01*
X107285646Y-40919500D01*
X107245188Y-40925908D01*
X107059753Y-40955278D01*
X107059750Y-40955278D01*
X106842244Y-41025950D01*
X106638461Y-41129783D01*
X106572550Y-41177671D01*
X106453434Y-41264214D01*
X106453432Y-41264216D01*
X106453431Y-41264216D01*
X106291715Y-41425932D01*
X106230318Y-41510438D01*
X106174987Y-41553103D01*
X106105374Y-41559082D01*
X106043579Y-41526476D01*
X106029682Y-41510438D01*
X105983386Y-41446718D01*
X105968286Y-41425934D01*
X105806566Y-41264214D01*
X105621538Y-41129783D01*
X105578853Y-41108034D01*
X105417755Y-41025950D01*
X105200248Y-40955278D01*
X105014812Y-40925908D01*
X104974354Y-40919500D01*
X104745646Y-40919500D01*
X104705188Y-40925908D01*
X104519753Y-40955278D01*
X104519750Y-40955278D01*
X104302244Y-41025950D01*
X104098461Y-41129783D01*
X103915759Y-41262525D01*
X103849952Y-41286005D01*
X103781898Y-41270180D01*
X103733203Y-41220074D01*
X103726690Y-41205538D01*
X103716296Y-41177669D01*
X103716293Y-41177664D01*
X103630047Y-41062455D01*
X103630044Y-41062452D01*
X103514835Y-40976206D01*
X103514828Y-40976202D01*
X103379982Y-40925908D01*
X103379983Y-40925908D01*
X103320383Y-40919501D01*
X103320381Y-40919500D01*
X103320373Y-40919500D01*
X103320364Y-40919500D01*
X101319629Y-40919500D01*
X101319623Y-40919501D01*
X101260016Y-40925908D01*
X101125171Y-40976202D01*
X101125164Y-40976206D01*
X101009955Y-41062452D01*
X101009952Y-41062455D01*
X100923706Y-41177664D01*
X100923702Y-41177671D01*
X100873408Y-41312517D01*
X100867001Y-41372116D01*
X100867000Y-41372135D01*
X99518682Y-41372135D01*
X99431971Y-41252786D01*
X99287213Y-41108028D01*
X99121613Y-40987715D01*
X99121612Y-40987714D01*
X99121610Y-40987713D01*
X99013722Y-40932741D01*
X98939223Y-40894781D01*
X98744534Y-40831522D01*
X98569995Y-40803878D01*
X98542352Y-40799500D01*
X98337648Y-40799500D01*
X98313329Y-40803351D01*
X98135465Y-40831522D01*
X97940776Y-40894781D01*
X97758386Y-40987715D01*
X97592786Y-41108028D01*
X97448028Y-41252786D01*
X97327715Y-41418386D01*
X97234781Y-41600776D01*
X97171522Y-41795465D01*
X97139500Y-41997648D01*
X89580500Y-41997648D01*
X89562520Y-41884127D01*
X89548477Y-41795465D01*
X89488528Y-41610962D01*
X89485220Y-41600781D01*
X89485218Y-41600778D01*
X89485218Y-41600776D01*
X89432891Y-41498080D01*
X89392287Y-41418390D01*
X89358676Y-41372128D01*
X89271971Y-41252786D01*
X89127213Y-41108028D01*
X88961613Y-40987715D01*
X88961612Y-40987714D01*
X88961610Y-40987713D01*
X88853722Y-40932741D01*
X88779223Y-40894781D01*
X88584534Y-40831522D01*
X88409995Y-40803878D01*
X88382352Y-40799500D01*
X88177648Y-40799500D01*
X88153329Y-40803351D01*
X87975465Y-40831522D01*
X87780776Y-40894781D01*
X87598386Y-40987715D01*
X87432786Y-41108028D01*
X87288028Y-41252786D01*
X87167715Y-41418386D01*
X87074781Y-41600776D01*
X87011522Y-41795465D01*
X86979500Y-41997648D01*
X77400500Y-41997648D01*
X77400500Y-40822572D01*
X81510979Y-40822572D01*
X81546328Y-40846192D01*
X81728306Y-40921569D01*
X81728318Y-40921572D01*
X81921504Y-40959999D01*
X81921508Y-40960000D01*
X82118492Y-40960000D01*
X82118495Y-40959999D01*
X82311681Y-40921572D01*
X82311693Y-40921569D01*
X82493676Y-40846190D01*
X82493680Y-40846187D01*
X82529019Y-40822573D01*
X82529020Y-40822572D01*
X82020001Y-40313553D01*
X82020000Y-40313553D01*
X81510979Y-40822572D01*
X77400500Y-40822572D01*
X77400500Y-38142135D01*
X81019500Y-38142135D01*
X81019500Y-39237870D01*
X81019501Y-39237876D01*
X81025908Y-39297483D01*
X81076202Y-39432328D01*
X81076203Y-39432330D01*
X81085372Y-39444578D01*
X81109788Y-39510043D01*
X81100665Y-39566340D01*
X81058432Y-39668300D01*
X81058427Y-39668317D01*
X81020000Y-39861504D01*
X81020000Y-40058495D01*
X81058427Y-40251681D01*
X81058430Y-40251693D01*
X81133808Y-40433673D01*
X81133809Y-40433675D01*
X81157426Y-40469019D01*
X81695000Y-39931445D01*
X81695000Y-40002787D01*
X81717149Y-40085445D01*
X81759936Y-40159554D01*
X81820446Y-40220064D01*
X81894555Y-40262851D01*
X81977213Y-40285000D01*
X82062787Y-40285000D01*
X82145445Y-40262851D01*
X82219554Y-40220064D01*
X82280064Y-40159554D01*
X82322851Y-40085445D01*
X82345000Y-40002787D01*
X82345000Y-39931447D01*
X82882572Y-40469020D01*
X82882573Y-40469019D01*
X82906187Y-40433680D01*
X82906190Y-40433676D01*
X82981569Y-40251693D01*
X82981572Y-40251681D01*
X83019999Y-40058495D01*
X83020000Y-40058492D01*
X83020000Y-39861508D01*
X83019999Y-39861504D01*
X82981573Y-39668318D01*
X82981570Y-39668309D01*
X82939333Y-39566339D01*
X82931864Y-39496870D01*
X82954629Y-39444576D01*
X82963796Y-39432331D01*
X83014091Y-39297483D01*
X83020500Y-39237873D01*
X83020499Y-38142128D01*
X83014091Y-38082517D01*
X83008288Y-38066959D01*
X82963797Y-37947671D01*
X82963793Y-37947664D01*
X82877547Y-37832455D01*
X82877544Y-37832452D01*
X82762335Y-37746206D01*
X82762328Y-37746202D01*
X82627482Y-37695908D01*
X82627483Y-37695908D01*
X82567883Y-37689501D01*
X82567881Y-37689500D01*
X82567873Y-37689500D01*
X82567864Y-37689500D01*
X81472129Y-37689500D01*
X81472123Y-37689501D01*
X81412516Y-37695908D01*
X81277671Y-37746202D01*
X81277664Y-37746206D01*
X81162455Y-37832452D01*
X81162452Y-37832455D01*
X81076206Y-37947664D01*
X81076202Y-37947671D01*
X81025908Y-38082517D01*
X81019501Y-38142116D01*
X81019501Y-38142123D01*
X81019500Y-38142135D01*
X77400500Y-38142135D01*
X77400500Y-33524500D01*
X77420185Y-33457461D01*
X77472989Y-33411706D01*
X77524500Y-33400500D01*
X110283113Y-33400500D01*
X110350152Y-33420185D01*
G37*
%TD.AperFunction*%
%TA.AperFunction,Conductor*%
G36*
X119287121Y-56477011D02*
G01*
X119318407Y-56526932D01*
X119345641Y-56609119D01*
X119345643Y-56609124D01*
X119437684Y-56758345D01*
X119561654Y-56882315D01*
X119710875Y-56974356D01*
X119710880Y-56974358D01*
X119877302Y-57029505D01*
X119877309Y-57029506D01*
X119980019Y-57039999D01*
X120171780Y-57039999D01*
X120238820Y-57059683D01*
X120284575Y-57112487D01*
X120295399Y-57173728D01*
X120294077Y-57190524D01*
X120973554Y-57870000D01*
X120967339Y-57870000D01*
X120865606Y-57897259D01*
X120774394Y-57949920D01*
X120699920Y-58024394D01*
X120647259Y-58115606D01*
X120620000Y-58217339D01*
X120620000Y-58223553D01*
X119940524Y-57544077D01*
X119940523Y-57544077D01*
X119908143Y-57588644D01*
X119880765Y-57642378D01*
X119832790Y-57693174D01*
X119764969Y-57709969D01*
X119698834Y-57687431D01*
X119659795Y-57642378D01*
X119632284Y-57588385D01*
X119511971Y-57422786D01*
X119367213Y-57278028D01*
X119201613Y-57157715D01*
X119201612Y-57157714D01*
X119201610Y-57157713D01*
X119144653Y-57128691D01*
X119019223Y-57064781D01*
X118842936Y-57007502D01*
X118785261Y-56968064D01*
X118758063Y-56903705D01*
X118769978Y-56834859D01*
X118808371Y-56789252D01*
X118887215Y-56731969D01*
X118887215Y-56731968D01*
X118887219Y-56731966D01*
X119031966Y-56587219D01*
X119100383Y-56493050D01*
X119155712Y-56450385D01*
X119225325Y-56444406D01*
X119287121Y-56477011D01*
G37*
%TD.AperFunction*%
%TD*%
M02*
