%TF.GenerationSoftware,KiCad,Pcbnew,9.0.2*%
%TF.CreationDate,2025-07-18T12:05:27+02:00*%
%TF.ProjectId,Ligther,4c696774-6865-4722-9e6b-696361645f70,rev?*%
%TF.SameCoordinates,Original*%
%TF.FileFunction,Legend,Top*%
%TF.FilePolarity,Positive*%
%FSLAX46Y46*%
G04 Gerber Fmt 4.6, Leading zero omitted, Abs format (unit mm)*
G04 Created by KiCad (PCBNEW 9.0.2) date 2025-07-18 12:05:27*
%MOMM*%
%LPD*%
G01*
G04 APERTURE LIST*
%ADD10C,0.100000*%
%ADD11C,0.150000*%
%ADD12C,0.254000*%
%ADD13C,0.125000*%
%ADD14C,0.120000*%
G04 APERTURE END LIST*
D10*
X122100000Y-43510000D02*
G75*
G02*
X120100000Y-43510000I-1000000J0D01*
G01*
X120100000Y-43510000D02*
G75*
G02*
X122100000Y-43510000I1000000J0D01*
G01*
X120050000Y-38970000D02*
X122290000Y-38970000D01*
X122290000Y-40950000D01*
X120050000Y-40950000D01*
X120050000Y-38970000D01*
X77721027Y-34105752D02*
X78101979Y-34105752D01*
X77863884Y-34772419D02*
X77863884Y-33915276D01*
X77863884Y-33915276D02*
X77911503Y-33820038D01*
X77911503Y-33820038D02*
X78006741Y-33772419D01*
X78006741Y-33772419D02*
X78101979Y-33772419D01*
X78435313Y-34772419D02*
X78435313Y-34105752D01*
X78435313Y-34296228D02*
X78482932Y-34200990D01*
X78482932Y-34200990D02*
X78530551Y-34153371D01*
X78530551Y-34153371D02*
X78625789Y-34105752D01*
X78625789Y-34105752D02*
X78721027Y-34105752D01*
X79197218Y-34772419D02*
X79101980Y-34724800D01*
X79101980Y-34724800D02*
X79054361Y-34677180D01*
X79054361Y-34677180D02*
X79006742Y-34581942D01*
X79006742Y-34581942D02*
X79006742Y-34296228D01*
X79006742Y-34296228D02*
X79054361Y-34200990D01*
X79054361Y-34200990D02*
X79101980Y-34153371D01*
X79101980Y-34153371D02*
X79197218Y-34105752D01*
X79197218Y-34105752D02*
X79340075Y-34105752D01*
X79340075Y-34105752D02*
X79435313Y-34153371D01*
X79435313Y-34153371D02*
X79482932Y-34200990D01*
X79482932Y-34200990D02*
X79530551Y-34296228D01*
X79530551Y-34296228D02*
X79530551Y-34581942D01*
X79530551Y-34581942D02*
X79482932Y-34677180D01*
X79482932Y-34677180D02*
X79435313Y-34724800D01*
X79435313Y-34724800D02*
X79340075Y-34772419D01*
X79340075Y-34772419D02*
X79197218Y-34772419D01*
X79959123Y-34105752D02*
X79959123Y-34772419D01*
X79959123Y-34200990D02*
X80006742Y-34153371D01*
X80006742Y-34153371D02*
X80101980Y-34105752D01*
X80101980Y-34105752D02*
X80244837Y-34105752D01*
X80244837Y-34105752D02*
X80340075Y-34153371D01*
X80340075Y-34153371D02*
X80387694Y-34248609D01*
X80387694Y-34248609D02*
X80387694Y-34772419D01*
X80721028Y-34105752D02*
X81101980Y-34105752D01*
X80863885Y-33772419D02*
X80863885Y-34629561D01*
X80863885Y-34629561D02*
X80911504Y-34724800D01*
X80911504Y-34724800D02*
X81006742Y-34772419D01*
X81006742Y-34772419D02*
X81101980Y-34772419D01*
X120863884Y-39271466D02*
X121625789Y-39271466D01*
X120253884Y-45091466D02*
X121015789Y-45091466D01*
X120634836Y-45472419D02*
X120634836Y-44710514D01*
X121920550Y-44472419D02*
X121730074Y-44472419D01*
X121730074Y-44472419D02*
X121634836Y-44520038D01*
X121634836Y-44520038D02*
X121587217Y-44567657D01*
X121587217Y-44567657D02*
X121491979Y-44710514D01*
X121491979Y-44710514D02*
X121444360Y-44900990D01*
X121444360Y-44900990D02*
X121444360Y-45281942D01*
X121444360Y-45281942D02*
X121491979Y-45377180D01*
X121491979Y-45377180D02*
X121539598Y-45424800D01*
X121539598Y-45424800D02*
X121634836Y-45472419D01*
X121634836Y-45472419D02*
X121825312Y-45472419D01*
X121825312Y-45472419D02*
X121920550Y-45424800D01*
X121920550Y-45424800D02*
X121968169Y-45377180D01*
X121968169Y-45377180D02*
X122015788Y-45281942D01*
X122015788Y-45281942D02*
X122015788Y-45043847D01*
X122015788Y-45043847D02*
X121968169Y-44948609D01*
X121968169Y-44948609D02*
X121920550Y-44900990D01*
X121920550Y-44900990D02*
X121825312Y-44853371D01*
X121825312Y-44853371D02*
X121634836Y-44853371D01*
X121634836Y-44853371D02*
X121539598Y-44900990D01*
X121539598Y-44900990D02*
X121491979Y-44948609D01*
X121491979Y-44948609D02*
X121444360Y-45043847D01*
D11*
X103627142Y-39234819D02*
X103293809Y-38758628D01*
X103055714Y-39234819D02*
X103055714Y-38234819D01*
X103055714Y-38234819D02*
X103436666Y-38234819D01*
X103436666Y-38234819D02*
X103531904Y-38282438D01*
X103531904Y-38282438D02*
X103579523Y-38330057D01*
X103579523Y-38330057D02*
X103627142Y-38425295D01*
X103627142Y-38425295D02*
X103627142Y-38568152D01*
X103627142Y-38568152D02*
X103579523Y-38663390D01*
X103579523Y-38663390D02*
X103531904Y-38711009D01*
X103531904Y-38711009D02*
X103436666Y-38758628D01*
X103436666Y-38758628D02*
X103055714Y-38758628D01*
X104579523Y-39234819D02*
X104008095Y-39234819D01*
X104293809Y-39234819D02*
X104293809Y-38234819D01*
X104293809Y-38234819D02*
X104198571Y-38377676D01*
X104198571Y-38377676D02*
X104103333Y-38472914D01*
X104103333Y-38472914D02*
X104008095Y-38520533D01*
X104912857Y-38234819D02*
X105579523Y-38234819D01*
X105579523Y-38234819D02*
X105150952Y-39234819D01*
X81444819Y-44359523D02*
X82159104Y-44359523D01*
X82159104Y-44359523D02*
X82301961Y-44407142D01*
X82301961Y-44407142D02*
X82397200Y-44502380D01*
X82397200Y-44502380D02*
X82444819Y-44645237D01*
X82444819Y-44645237D02*
X82444819Y-44740475D01*
X82444819Y-43883332D02*
X81444819Y-43883332D01*
X81444819Y-43883332D02*
X81444819Y-43502380D01*
X81444819Y-43502380D02*
X81492438Y-43407142D01*
X81492438Y-43407142D02*
X81540057Y-43359523D01*
X81540057Y-43359523D02*
X81635295Y-43311904D01*
X81635295Y-43311904D02*
X81778152Y-43311904D01*
X81778152Y-43311904D02*
X81873390Y-43359523D01*
X81873390Y-43359523D02*
X81921009Y-43407142D01*
X81921009Y-43407142D02*
X81968628Y-43502380D01*
X81968628Y-43502380D02*
X81968628Y-43883332D01*
X82444819Y-42359523D02*
X82444819Y-42930951D01*
X82444819Y-42645237D02*
X81444819Y-42645237D01*
X81444819Y-42645237D02*
X81587676Y-42740475D01*
X81587676Y-42740475D02*
X81682914Y-42835713D01*
X81682914Y-42835713D02*
X81730533Y-42930951D01*
X81540057Y-41978570D02*
X81492438Y-41930951D01*
X81492438Y-41930951D02*
X81444819Y-41835713D01*
X81444819Y-41835713D02*
X81444819Y-41597618D01*
X81444819Y-41597618D02*
X81492438Y-41502380D01*
X81492438Y-41502380D02*
X81540057Y-41454761D01*
X81540057Y-41454761D02*
X81635295Y-41407142D01*
X81635295Y-41407142D02*
X81730533Y-41407142D01*
X81730533Y-41407142D02*
X81873390Y-41454761D01*
X81873390Y-41454761D02*
X82444819Y-42026189D01*
X82444819Y-42026189D02*
X82444819Y-41407142D01*
X90576667Y-36027200D02*
X90719524Y-36074819D01*
X90719524Y-36074819D02*
X90957619Y-36074819D01*
X90957619Y-36074819D02*
X91052857Y-36027200D01*
X91052857Y-36027200D02*
X91100476Y-35979580D01*
X91100476Y-35979580D02*
X91148095Y-35884342D01*
X91148095Y-35884342D02*
X91148095Y-35789104D01*
X91148095Y-35789104D02*
X91100476Y-35693866D01*
X91100476Y-35693866D02*
X91052857Y-35646247D01*
X91052857Y-35646247D02*
X90957619Y-35598628D01*
X90957619Y-35598628D02*
X90767143Y-35551009D01*
X90767143Y-35551009D02*
X90671905Y-35503390D01*
X90671905Y-35503390D02*
X90624286Y-35455771D01*
X90624286Y-35455771D02*
X90576667Y-35360533D01*
X90576667Y-35360533D02*
X90576667Y-35265295D01*
X90576667Y-35265295D02*
X90624286Y-35170057D01*
X90624286Y-35170057D02*
X90671905Y-35122438D01*
X90671905Y-35122438D02*
X90767143Y-35074819D01*
X90767143Y-35074819D02*
X91005238Y-35074819D01*
X91005238Y-35074819D02*
X91148095Y-35122438D01*
X91481429Y-35074819D02*
X91719524Y-36074819D01*
X91719524Y-36074819D02*
X91910000Y-35360533D01*
X91910000Y-35360533D02*
X92100476Y-36074819D01*
X92100476Y-36074819D02*
X92338572Y-35074819D01*
X93243333Y-36074819D02*
X92671905Y-36074819D01*
X92957619Y-36074819D02*
X92957619Y-35074819D01*
X92957619Y-35074819D02*
X92862381Y-35217676D01*
X92862381Y-35217676D02*
X92767143Y-35312914D01*
X92767143Y-35312914D02*
X92671905Y-35360533D01*
X82343333Y-66144819D02*
X82010000Y-65668628D01*
X81771905Y-66144819D02*
X81771905Y-65144819D01*
X81771905Y-65144819D02*
X82152857Y-65144819D01*
X82152857Y-65144819D02*
X82248095Y-65192438D01*
X82248095Y-65192438D02*
X82295714Y-65240057D01*
X82295714Y-65240057D02*
X82343333Y-65335295D01*
X82343333Y-65335295D02*
X82343333Y-65478152D01*
X82343333Y-65478152D02*
X82295714Y-65573390D01*
X82295714Y-65573390D02*
X82248095Y-65621009D01*
X82248095Y-65621009D02*
X82152857Y-65668628D01*
X82152857Y-65668628D02*
X81771905Y-65668628D01*
X82676667Y-65144819D02*
X83343333Y-65144819D01*
X83343333Y-65144819D02*
X82914762Y-66144819D01*
D12*
X99092618Y-60604318D02*
X99092618Y-59334318D01*
X99092618Y-59334318D02*
X99394999Y-59334318D01*
X99394999Y-59334318D02*
X99576428Y-59394794D01*
X99576428Y-59394794D02*
X99697380Y-59515746D01*
X99697380Y-59515746D02*
X99757857Y-59636699D01*
X99757857Y-59636699D02*
X99818333Y-59878603D01*
X99818333Y-59878603D02*
X99818333Y-60060032D01*
X99818333Y-60060032D02*
X99757857Y-60301937D01*
X99757857Y-60301937D02*
X99697380Y-60422889D01*
X99697380Y-60422889D02*
X99576428Y-60543842D01*
X99576428Y-60543842D02*
X99394999Y-60604318D01*
X99394999Y-60604318D02*
X99092618Y-60604318D01*
X101027857Y-60604318D02*
X100302142Y-60604318D01*
X100664999Y-60604318D02*
X100664999Y-59334318D01*
X100664999Y-59334318D02*
X100544047Y-59515746D01*
X100544047Y-59515746D02*
X100423095Y-59636699D01*
X100423095Y-59636699D02*
X100302142Y-59697175D01*
D11*
X98484819Y-66932857D02*
X98008628Y-67266190D01*
X98484819Y-67504285D02*
X97484819Y-67504285D01*
X97484819Y-67504285D02*
X97484819Y-67123333D01*
X97484819Y-67123333D02*
X97532438Y-67028095D01*
X97532438Y-67028095D02*
X97580057Y-66980476D01*
X97580057Y-66980476D02*
X97675295Y-66932857D01*
X97675295Y-66932857D02*
X97818152Y-66932857D01*
X97818152Y-66932857D02*
X97913390Y-66980476D01*
X97913390Y-66980476D02*
X97961009Y-67028095D01*
X97961009Y-67028095D02*
X98008628Y-67123333D01*
X98008628Y-67123333D02*
X98008628Y-67504285D01*
X98484819Y-65980476D02*
X98484819Y-66551904D01*
X98484819Y-66266190D02*
X97484819Y-66266190D01*
X97484819Y-66266190D02*
X97627676Y-66361428D01*
X97627676Y-66361428D02*
X97722914Y-66456666D01*
X97722914Y-66456666D02*
X97770533Y-66551904D01*
X97484819Y-65647142D02*
X97484819Y-65028095D01*
X97484819Y-65028095D02*
X97865771Y-65361428D01*
X97865771Y-65361428D02*
X97865771Y-65218571D01*
X97865771Y-65218571D02*
X97913390Y-65123333D01*
X97913390Y-65123333D02*
X97961009Y-65075714D01*
X97961009Y-65075714D02*
X98056247Y-65028095D01*
X98056247Y-65028095D02*
X98294342Y-65028095D01*
X98294342Y-65028095D02*
X98389580Y-65075714D01*
X98389580Y-65075714D02*
X98437200Y-65123333D01*
X98437200Y-65123333D02*
X98484819Y-65218571D01*
X98484819Y-65218571D02*
X98484819Y-65504285D01*
X98484819Y-65504285D02*
X98437200Y-65599523D01*
X98437200Y-65599523D02*
X98389580Y-65647142D01*
X94374819Y-70323333D02*
X95089104Y-70323333D01*
X95089104Y-70323333D02*
X95231961Y-70370952D01*
X95231961Y-70370952D02*
X95327200Y-70466190D01*
X95327200Y-70466190D02*
X95374819Y-70609047D01*
X95374819Y-70609047D02*
X95374819Y-70704285D01*
X95374819Y-69847142D02*
X94374819Y-69847142D01*
X94374819Y-69847142D02*
X94374819Y-69466190D01*
X94374819Y-69466190D02*
X94422438Y-69370952D01*
X94422438Y-69370952D02*
X94470057Y-69323333D01*
X94470057Y-69323333D02*
X94565295Y-69275714D01*
X94565295Y-69275714D02*
X94708152Y-69275714D01*
X94708152Y-69275714D02*
X94803390Y-69323333D01*
X94803390Y-69323333D02*
X94851009Y-69370952D01*
X94851009Y-69370952D02*
X94898628Y-69466190D01*
X94898628Y-69466190D02*
X94898628Y-69847142D01*
X94374819Y-68418571D02*
X94374819Y-68609047D01*
X94374819Y-68609047D02*
X94422438Y-68704285D01*
X94422438Y-68704285D02*
X94470057Y-68751904D01*
X94470057Y-68751904D02*
X94612914Y-68847142D01*
X94612914Y-68847142D02*
X94803390Y-68894761D01*
X94803390Y-68894761D02*
X95184342Y-68894761D01*
X95184342Y-68894761D02*
X95279580Y-68847142D01*
X95279580Y-68847142D02*
X95327200Y-68799523D01*
X95327200Y-68799523D02*
X95374819Y-68704285D01*
X95374819Y-68704285D02*
X95374819Y-68513809D01*
X95374819Y-68513809D02*
X95327200Y-68418571D01*
X95327200Y-68418571D02*
X95279580Y-68370952D01*
X95279580Y-68370952D02*
X95184342Y-68323333D01*
X95184342Y-68323333D02*
X94946247Y-68323333D01*
X94946247Y-68323333D02*
X94851009Y-68370952D01*
X94851009Y-68370952D02*
X94803390Y-68418571D01*
X94803390Y-68418571D02*
X94755771Y-68513809D01*
X94755771Y-68513809D02*
X94755771Y-68704285D01*
X94755771Y-68704285D02*
X94803390Y-68799523D01*
X94803390Y-68799523D02*
X94851009Y-68847142D01*
X94851009Y-68847142D02*
X94946247Y-68894761D01*
X104614819Y-66872857D02*
X104138628Y-67206190D01*
X104614819Y-67444285D02*
X103614819Y-67444285D01*
X103614819Y-67444285D02*
X103614819Y-67063333D01*
X103614819Y-67063333D02*
X103662438Y-66968095D01*
X103662438Y-66968095D02*
X103710057Y-66920476D01*
X103710057Y-66920476D02*
X103805295Y-66872857D01*
X103805295Y-66872857D02*
X103948152Y-66872857D01*
X103948152Y-66872857D02*
X104043390Y-66920476D01*
X104043390Y-66920476D02*
X104091009Y-66968095D01*
X104091009Y-66968095D02*
X104138628Y-67063333D01*
X104138628Y-67063333D02*
X104138628Y-67444285D01*
X104614819Y-65920476D02*
X104614819Y-66491904D01*
X104614819Y-66206190D02*
X103614819Y-66206190D01*
X103614819Y-66206190D02*
X103757676Y-66301428D01*
X103757676Y-66301428D02*
X103852914Y-66396666D01*
X103852914Y-66396666D02*
X103900533Y-66491904D01*
X103614819Y-65015714D02*
X103614819Y-65491904D01*
X103614819Y-65491904D02*
X104091009Y-65539523D01*
X104091009Y-65539523D02*
X104043390Y-65491904D01*
X104043390Y-65491904D02*
X103995771Y-65396666D01*
X103995771Y-65396666D02*
X103995771Y-65158571D01*
X103995771Y-65158571D02*
X104043390Y-65063333D01*
X104043390Y-65063333D02*
X104091009Y-65015714D01*
X104091009Y-65015714D02*
X104186247Y-64968095D01*
X104186247Y-64968095D02*
X104424342Y-64968095D01*
X104424342Y-64968095D02*
X104519580Y-65015714D01*
X104519580Y-65015714D02*
X104567200Y-65063333D01*
X104567200Y-65063333D02*
X104614819Y-65158571D01*
X104614819Y-65158571D02*
X104614819Y-65396666D01*
X104614819Y-65396666D02*
X104567200Y-65491904D01*
X104567200Y-65491904D02*
X104519580Y-65539523D01*
X113490476Y-63424819D02*
X113490476Y-64139104D01*
X113490476Y-64139104D02*
X113442857Y-64281961D01*
X113442857Y-64281961D02*
X113347619Y-64377200D01*
X113347619Y-64377200D02*
X113204762Y-64424819D01*
X113204762Y-64424819D02*
X113109524Y-64424819D01*
X113966667Y-64424819D02*
X113966667Y-63424819D01*
X113966667Y-63424819D02*
X114347619Y-63424819D01*
X114347619Y-63424819D02*
X114442857Y-63472438D01*
X114442857Y-63472438D02*
X114490476Y-63520057D01*
X114490476Y-63520057D02*
X114538095Y-63615295D01*
X114538095Y-63615295D02*
X114538095Y-63758152D01*
X114538095Y-63758152D02*
X114490476Y-63853390D01*
X114490476Y-63853390D02*
X114442857Y-63901009D01*
X114442857Y-63901009D02*
X114347619Y-63948628D01*
X114347619Y-63948628D02*
X113966667Y-63948628D01*
X115490476Y-64424819D02*
X114919048Y-64424819D01*
X115204762Y-64424819D02*
X115204762Y-63424819D01*
X115204762Y-63424819D02*
X115109524Y-63567676D01*
X115109524Y-63567676D02*
X115014286Y-63662914D01*
X115014286Y-63662914D02*
X114919048Y-63710533D01*
X115823810Y-63424819D02*
X116442857Y-63424819D01*
X116442857Y-63424819D02*
X116109524Y-63805771D01*
X116109524Y-63805771D02*
X116252381Y-63805771D01*
X116252381Y-63805771D02*
X116347619Y-63853390D01*
X116347619Y-63853390D02*
X116395238Y-63901009D01*
X116395238Y-63901009D02*
X116442857Y-63996247D01*
X116442857Y-63996247D02*
X116442857Y-64234342D01*
X116442857Y-64234342D02*
X116395238Y-64329580D01*
X116395238Y-64329580D02*
X116347619Y-64377200D01*
X116347619Y-64377200D02*
X116252381Y-64424819D01*
X116252381Y-64424819D02*
X115966667Y-64424819D01*
X115966667Y-64424819D02*
X115871429Y-64377200D01*
X115871429Y-64377200D02*
X115823810Y-64329580D01*
X111276666Y-57634819D02*
X111276666Y-58349104D01*
X111276666Y-58349104D02*
X111229047Y-58491961D01*
X111229047Y-58491961D02*
X111133809Y-58587200D01*
X111133809Y-58587200D02*
X110990952Y-58634819D01*
X110990952Y-58634819D02*
X110895714Y-58634819D01*
X111752857Y-58634819D02*
X111752857Y-57634819D01*
X111752857Y-57634819D02*
X112133809Y-57634819D01*
X112133809Y-57634819D02*
X112229047Y-57682438D01*
X112229047Y-57682438D02*
X112276666Y-57730057D01*
X112276666Y-57730057D02*
X112324285Y-57825295D01*
X112324285Y-57825295D02*
X112324285Y-57968152D01*
X112324285Y-57968152D02*
X112276666Y-58063390D01*
X112276666Y-58063390D02*
X112229047Y-58111009D01*
X112229047Y-58111009D02*
X112133809Y-58158628D01*
X112133809Y-58158628D02*
X111752857Y-58158628D01*
X113276666Y-58634819D02*
X112705238Y-58634819D01*
X112990952Y-58634819D02*
X112990952Y-57634819D01*
X112990952Y-57634819D02*
X112895714Y-57777676D01*
X112895714Y-57777676D02*
X112800476Y-57872914D01*
X112800476Y-57872914D02*
X112705238Y-57920533D01*
X108604819Y-77499523D02*
X109319104Y-77499523D01*
X109319104Y-77499523D02*
X109461961Y-77547142D01*
X109461961Y-77547142D02*
X109557200Y-77642380D01*
X109557200Y-77642380D02*
X109604819Y-77785237D01*
X109604819Y-77785237D02*
X109604819Y-77880475D01*
X109604819Y-77023332D02*
X108604819Y-77023332D01*
X108604819Y-77023332D02*
X108604819Y-76642380D01*
X108604819Y-76642380D02*
X108652438Y-76547142D01*
X108652438Y-76547142D02*
X108700057Y-76499523D01*
X108700057Y-76499523D02*
X108795295Y-76451904D01*
X108795295Y-76451904D02*
X108938152Y-76451904D01*
X108938152Y-76451904D02*
X109033390Y-76499523D01*
X109033390Y-76499523D02*
X109081009Y-76547142D01*
X109081009Y-76547142D02*
X109128628Y-76642380D01*
X109128628Y-76642380D02*
X109128628Y-77023332D01*
X109604819Y-75499523D02*
X109604819Y-76070951D01*
X109604819Y-75785237D02*
X108604819Y-75785237D01*
X108604819Y-75785237D02*
X108747676Y-75880475D01*
X108747676Y-75880475D02*
X108842914Y-75975713D01*
X108842914Y-75975713D02*
X108890533Y-76070951D01*
X108604819Y-74880475D02*
X108604819Y-74785237D01*
X108604819Y-74785237D02*
X108652438Y-74689999D01*
X108652438Y-74689999D02*
X108700057Y-74642380D01*
X108700057Y-74642380D02*
X108795295Y-74594761D01*
X108795295Y-74594761D02*
X108985771Y-74547142D01*
X108985771Y-74547142D02*
X109223866Y-74547142D01*
X109223866Y-74547142D02*
X109414342Y-74594761D01*
X109414342Y-74594761D02*
X109509580Y-74642380D01*
X109509580Y-74642380D02*
X109557200Y-74689999D01*
X109557200Y-74689999D02*
X109604819Y-74785237D01*
X109604819Y-74785237D02*
X109604819Y-74880475D01*
X109604819Y-74880475D02*
X109557200Y-74975713D01*
X109557200Y-74975713D02*
X109509580Y-75023332D01*
X109509580Y-75023332D02*
X109414342Y-75070951D01*
X109414342Y-75070951D02*
X109223866Y-75118570D01*
X109223866Y-75118570D02*
X108985771Y-75118570D01*
X108985771Y-75118570D02*
X108795295Y-75070951D01*
X108795295Y-75070951D02*
X108700057Y-75023332D01*
X108700057Y-75023332D02*
X108652438Y-74975713D01*
X108652438Y-74975713D02*
X108604819Y-74880475D01*
X109570476Y-67464819D02*
X109570476Y-68179104D01*
X109570476Y-68179104D02*
X109522857Y-68321961D01*
X109522857Y-68321961D02*
X109427619Y-68417200D01*
X109427619Y-68417200D02*
X109284762Y-68464819D01*
X109284762Y-68464819D02*
X109189524Y-68464819D01*
X110046667Y-68464819D02*
X110046667Y-67464819D01*
X110046667Y-67464819D02*
X110427619Y-67464819D01*
X110427619Y-67464819D02*
X110522857Y-67512438D01*
X110522857Y-67512438D02*
X110570476Y-67560057D01*
X110570476Y-67560057D02*
X110618095Y-67655295D01*
X110618095Y-67655295D02*
X110618095Y-67798152D01*
X110618095Y-67798152D02*
X110570476Y-67893390D01*
X110570476Y-67893390D02*
X110522857Y-67941009D01*
X110522857Y-67941009D02*
X110427619Y-67988628D01*
X110427619Y-67988628D02*
X110046667Y-67988628D01*
X111570476Y-68464819D02*
X110999048Y-68464819D01*
X111284762Y-68464819D02*
X111284762Y-67464819D01*
X111284762Y-67464819D02*
X111189524Y-67607676D01*
X111189524Y-67607676D02*
X111094286Y-67702914D01*
X111094286Y-67702914D02*
X110999048Y-67750533D01*
X112427619Y-67798152D02*
X112427619Y-68464819D01*
X112189524Y-67417200D02*
X111951429Y-68131485D01*
X111951429Y-68131485D02*
X112570476Y-68131485D01*
D13*
X92176119Y-66822857D02*
X91699928Y-67156190D01*
X92176119Y-67394285D02*
X91176119Y-67394285D01*
X91176119Y-67394285D02*
X91176119Y-67013333D01*
X91176119Y-67013333D02*
X91223738Y-66918095D01*
X91223738Y-66918095D02*
X91271357Y-66870476D01*
X91271357Y-66870476D02*
X91366595Y-66822857D01*
X91366595Y-66822857D02*
X91509452Y-66822857D01*
X91509452Y-66822857D02*
X91604690Y-66870476D01*
X91604690Y-66870476D02*
X91652309Y-66918095D01*
X91652309Y-66918095D02*
X91699928Y-67013333D01*
X91699928Y-67013333D02*
X91699928Y-67394285D01*
X92176119Y-65870476D02*
X92176119Y-66441904D01*
X92176119Y-66156190D02*
X91176119Y-66156190D01*
X91176119Y-66156190D02*
X91318976Y-66251428D01*
X91318976Y-66251428D02*
X91414214Y-66346666D01*
X91414214Y-66346666D02*
X91461833Y-66441904D01*
X92176119Y-64918095D02*
X92176119Y-65489523D01*
X92176119Y-65203809D02*
X91176119Y-65203809D01*
X91176119Y-65203809D02*
X91318976Y-65299047D01*
X91318976Y-65299047D02*
X91414214Y-65394285D01*
X91414214Y-65394285D02*
X91461833Y-65489523D01*
D12*
X104032618Y-60624318D02*
X104032618Y-59354318D01*
X104032618Y-59354318D02*
X104334999Y-59354318D01*
X104334999Y-59354318D02*
X104516428Y-59414794D01*
X104516428Y-59414794D02*
X104637380Y-59535746D01*
X104637380Y-59535746D02*
X104697857Y-59656699D01*
X104697857Y-59656699D02*
X104758333Y-59898603D01*
X104758333Y-59898603D02*
X104758333Y-60080032D01*
X104758333Y-60080032D02*
X104697857Y-60321937D01*
X104697857Y-60321937D02*
X104637380Y-60442889D01*
X104637380Y-60442889D02*
X104516428Y-60563842D01*
X104516428Y-60563842D02*
X104334999Y-60624318D01*
X104334999Y-60624318D02*
X104032618Y-60624318D01*
X105242142Y-59475270D02*
X105302618Y-59414794D01*
X105302618Y-59414794D02*
X105423571Y-59354318D01*
X105423571Y-59354318D02*
X105725952Y-59354318D01*
X105725952Y-59354318D02*
X105846904Y-59414794D01*
X105846904Y-59414794D02*
X105907380Y-59475270D01*
X105907380Y-59475270D02*
X105967857Y-59596222D01*
X105967857Y-59596222D02*
X105967857Y-59717175D01*
X105967857Y-59717175D02*
X105907380Y-59898603D01*
X105907380Y-59898603D02*
X105181666Y-60624318D01*
X105181666Y-60624318D02*
X105967857Y-60624318D01*
D11*
X88463333Y-66134819D02*
X88130000Y-65658628D01*
X87891905Y-66134819D02*
X87891905Y-65134819D01*
X87891905Y-65134819D02*
X88272857Y-65134819D01*
X88272857Y-65134819D02*
X88368095Y-65182438D01*
X88368095Y-65182438D02*
X88415714Y-65230057D01*
X88415714Y-65230057D02*
X88463333Y-65325295D01*
X88463333Y-65325295D02*
X88463333Y-65468152D01*
X88463333Y-65468152D02*
X88415714Y-65563390D01*
X88415714Y-65563390D02*
X88368095Y-65611009D01*
X88368095Y-65611009D02*
X88272857Y-65658628D01*
X88272857Y-65658628D02*
X87891905Y-65658628D01*
X88939524Y-66134819D02*
X89130000Y-66134819D01*
X89130000Y-66134819D02*
X89225238Y-66087200D01*
X89225238Y-66087200D02*
X89272857Y-66039580D01*
X89272857Y-66039580D02*
X89368095Y-65896723D01*
X89368095Y-65896723D02*
X89415714Y-65706247D01*
X89415714Y-65706247D02*
X89415714Y-65325295D01*
X89415714Y-65325295D02*
X89368095Y-65230057D01*
X89368095Y-65230057D02*
X89320476Y-65182438D01*
X89320476Y-65182438D02*
X89225238Y-65134819D01*
X89225238Y-65134819D02*
X89034762Y-65134819D01*
X89034762Y-65134819D02*
X88939524Y-65182438D01*
X88939524Y-65182438D02*
X88891905Y-65230057D01*
X88891905Y-65230057D02*
X88844286Y-65325295D01*
X88844286Y-65325295D02*
X88844286Y-65563390D01*
X88844286Y-65563390D02*
X88891905Y-65658628D01*
X88891905Y-65658628D02*
X88939524Y-65706247D01*
X88939524Y-65706247D02*
X89034762Y-65753866D01*
X89034762Y-65753866D02*
X89225238Y-65753866D01*
X89225238Y-65753866D02*
X89320476Y-65706247D01*
X89320476Y-65706247D02*
X89368095Y-65658628D01*
X89368095Y-65658628D02*
X89415714Y-65563390D01*
X95414819Y-66942857D02*
X94938628Y-67276190D01*
X95414819Y-67514285D02*
X94414819Y-67514285D01*
X94414819Y-67514285D02*
X94414819Y-67133333D01*
X94414819Y-67133333D02*
X94462438Y-67038095D01*
X94462438Y-67038095D02*
X94510057Y-66990476D01*
X94510057Y-66990476D02*
X94605295Y-66942857D01*
X94605295Y-66942857D02*
X94748152Y-66942857D01*
X94748152Y-66942857D02*
X94843390Y-66990476D01*
X94843390Y-66990476D02*
X94891009Y-67038095D01*
X94891009Y-67038095D02*
X94938628Y-67133333D01*
X94938628Y-67133333D02*
X94938628Y-67514285D01*
X95414819Y-65990476D02*
X95414819Y-66561904D01*
X95414819Y-66276190D02*
X94414819Y-66276190D01*
X94414819Y-66276190D02*
X94557676Y-66371428D01*
X94557676Y-66371428D02*
X94652914Y-66466666D01*
X94652914Y-66466666D02*
X94700533Y-66561904D01*
X94510057Y-65609523D02*
X94462438Y-65561904D01*
X94462438Y-65561904D02*
X94414819Y-65466666D01*
X94414819Y-65466666D02*
X94414819Y-65228571D01*
X94414819Y-65228571D02*
X94462438Y-65133333D01*
X94462438Y-65133333D02*
X94510057Y-65085714D01*
X94510057Y-65085714D02*
X94605295Y-65038095D01*
X94605295Y-65038095D02*
X94700533Y-65038095D01*
X94700533Y-65038095D02*
X94843390Y-65085714D01*
X94843390Y-65085714D02*
X95414819Y-65657142D01*
X95414819Y-65657142D02*
X95414819Y-65038095D01*
X100564819Y-70343333D02*
X101279104Y-70343333D01*
X101279104Y-70343333D02*
X101421961Y-70390952D01*
X101421961Y-70390952D02*
X101517200Y-70486190D01*
X101517200Y-70486190D02*
X101564819Y-70629047D01*
X101564819Y-70629047D02*
X101564819Y-70724285D01*
X101564819Y-69867142D02*
X100564819Y-69867142D01*
X100564819Y-69867142D02*
X100564819Y-69486190D01*
X100564819Y-69486190D02*
X100612438Y-69390952D01*
X100612438Y-69390952D02*
X100660057Y-69343333D01*
X100660057Y-69343333D02*
X100755295Y-69295714D01*
X100755295Y-69295714D02*
X100898152Y-69295714D01*
X100898152Y-69295714D02*
X100993390Y-69343333D01*
X100993390Y-69343333D02*
X101041009Y-69390952D01*
X101041009Y-69390952D02*
X101088628Y-69486190D01*
X101088628Y-69486190D02*
X101088628Y-69867142D01*
X100993390Y-68724285D02*
X100945771Y-68819523D01*
X100945771Y-68819523D02*
X100898152Y-68867142D01*
X100898152Y-68867142D02*
X100802914Y-68914761D01*
X100802914Y-68914761D02*
X100755295Y-68914761D01*
X100755295Y-68914761D02*
X100660057Y-68867142D01*
X100660057Y-68867142D02*
X100612438Y-68819523D01*
X100612438Y-68819523D02*
X100564819Y-68724285D01*
X100564819Y-68724285D02*
X100564819Y-68533809D01*
X100564819Y-68533809D02*
X100612438Y-68438571D01*
X100612438Y-68438571D02*
X100660057Y-68390952D01*
X100660057Y-68390952D02*
X100755295Y-68343333D01*
X100755295Y-68343333D02*
X100802914Y-68343333D01*
X100802914Y-68343333D02*
X100898152Y-68390952D01*
X100898152Y-68390952D02*
X100945771Y-68438571D01*
X100945771Y-68438571D02*
X100993390Y-68533809D01*
X100993390Y-68533809D02*
X100993390Y-68724285D01*
X100993390Y-68724285D02*
X101041009Y-68819523D01*
X101041009Y-68819523D02*
X101088628Y-68867142D01*
X101088628Y-68867142D02*
X101183866Y-68914761D01*
X101183866Y-68914761D02*
X101374342Y-68914761D01*
X101374342Y-68914761D02*
X101469580Y-68867142D01*
X101469580Y-68867142D02*
X101517200Y-68819523D01*
X101517200Y-68819523D02*
X101564819Y-68724285D01*
X101564819Y-68724285D02*
X101564819Y-68533809D01*
X101564819Y-68533809D02*
X101517200Y-68438571D01*
X101517200Y-68438571D02*
X101469580Y-68390952D01*
X101469580Y-68390952D02*
X101374342Y-68343333D01*
X101374342Y-68343333D02*
X101183866Y-68343333D01*
X101183866Y-68343333D02*
X101088628Y-68390952D01*
X101088628Y-68390952D02*
X101041009Y-68438571D01*
X101041009Y-68438571D02*
X100993390Y-68533809D01*
X103634819Y-70343333D02*
X104349104Y-70343333D01*
X104349104Y-70343333D02*
X104491961Y-70390952D01*
X104491961Y-70390952D02*
X104587200Y-70486190D01*
X104587200Y-70486190D02*
X104634819Y-70629047D01*
X104634819Y-70629047D02*
X104634819Y-70724285D01*
X104634819Y-69867142D02*
X103634819Y-69867142D01*
X103634819Y-69867142D02*
X103634819Y-69486190D01*
X103634819Y-69486190D02*
X103682438Y-69390952D01*
X103682438Y-69390952D02*
X103730057Y-69343333D01*
X103730057Y-69343333D02*
X103825295Y-69295714D01*
X103825295Y-69295714D02*
X103968152Y-69295714D01*
X103968152Y-69295714D02*
X104063390Y-69343333D01*
X104063390Y-69343333D02*
X104111009Y-69390952D01*
X104111009Y-69390952D02*
X104158628Y-69486190D01*
X104158628Y-69486190D02*
X104158628Y-69867142D01*
X104634819Y-68819523D02*
X104634819Y-68629047D01*
X104634819Y-68629047D02*
X104587200Y-68533809D01*
X104587200Y-68533809D02*
X104539580Y-68486190D01*
X104539580Y-68486190D02*
X104396723Y-68390952D01*
X104396723Y-68390952D02*
X104206247Y-68343333D01*
X104206247Y-68343333D02*
X103825295Y-68343333D01*
X103825295Y-68343333D02*
X103730057Y-68390952D01*
X103730057Y-68390952D02*
X103682438Y-68438571D01*
X103682438Y-68438571D02*
X103634819Y-68533809D01*
X103634819Y-68533809D02*
X103634819Y-68724285D01*
X103634819Y-68724285D02*
X103682438Y-68819523D01*
X103682438Y-68819523D02*
X103730057Y-68867142D01*
X103730057Y-68867142D02*
X103825295Y-68914761D01*
X103825295Y-68914761D02*
X104063390Y-68914761D01*
X104063390Y-68914761D02*
X104158628Y-68867142D01*
X104158628Y-68867142D02*
X104206247Y-68819523D01*
X104206247Y-68819523D02*
X104253866Y-68724285D01*
X104253866Y-68724285D02*
X104253866Y-68533809D01*
X104253866Y-68533809D02*
X104206247Y-68438571D01*
X104206247Y-68438571D02*
X104158628Y-68390952D01*
X104158628Y-68390952D02*
X104063390Y-68343333D01*
X97494819Y-70343333D02*
X98209104Y-70343333D01*
X98209104Y-70343333D02*
X98351961Y-70390952D01*
X98351961Y-70390952D02*
X98447200Y-70486190D01*
X98447200Y-70486190D02*
X98494819Y-70629047D01*
X98494819Y-70629047D02*
X98494819Y-70724285D01*
X98494819Y-69867142D02*
X97494819Y-69867142D01*
X97494819Y-69867142D02*
X97494819Y-69486190D01*
X97494819Y-69486190D02*
X97542438Y-69390952D01*
X97542438Y-69390952D02*
X97590057Y-69343333D01*
X97590057Y-69343333D02*
X97685295Y-69295714D01*
X97685295Y-69295714D02*
X97828152Y-69295714D01*
X97828152Y-69295714D02*
X97923390Y-69343333D01*
X97923390Y-69343333D02*
X97971009Y-69390952D01*
X97971009Y-69390952D02*
X98018628Y-69486190D01*
X98018628Y-69486190D02*
X98018628Y-69867142D01*
X97494819Y-68962380D02*
X97494819Y-68295714D01*
X97494819Y-68295714D02*
X98494819Y-68724285D01*
X80084819Y-77063333D02*
X80799104Y-77063333D01*
X80799104Y-77063333D02*
X80941961Y-77110952D01*
X80941961Y-77110952D02*
X81037200Y-77206190D01*
X81037200Y-77206190D02*
X81084819Y-77349047D01*
X81084819Y-77349047D02*
X81084819Y-77444285D01*
X81084819Y-76587142D02*
X80084819Y-76587142D01*
X80084819Y-76587142D02*
X80084819Y-76206190D01*
X80084819Y-76206190D02*
X80132438Y-76110952D01*
X80132438Y-76110952D02*
X80180057Y-76063333D01*
X80180057Y-76063333D02*
X80275295Y-76015714D01*
X80275295Y-76015714D02*
X80418152Y-76015714D01*
X80418152Y-76015714D02*
X80513390Y-76063333D01*
X80513390Y-76063333D02*
X80561009Y-76110952D01*
X80561009Y-76110952D02*
X80608628Y-76206190D01*
X80608628Y-76206190D02*
X80608628Y-76587142D01*
X80180057Y-75634761D02*
X80132438Y-75587142D01*
X80132438Y-75587142D02*
X80084819Y-75491904D01*
X80084819Y-75491904D02*
X80084819Y-75253809D01*
X80084819Y-75253809D02*
X80132438Y-75158571D01*
X80132438Y-75158571D02*
X80180057Y-75110952D01*
X80180057Y-75110952D02*
X80275295Y-75063333D01*
X80275295Y-75063333D02*
X80370533Y-75063333D01*
X80370533Y-75063333D02*
X80513390Y-75110952D01*
X80513390Y-75110952D02*
X81084819Y-75682380D01*
X81084819Y-75682380D02*
X81084819Y-75063333D01*
X107624819Y-66852857D02*
X107148628Y-67186190D01*
X107624819Y-67424285D02*
X106624819Y-67424285D01*
X106624819Y-67424285D02*
X106624819Y-67043333D01*
X106624819Y-67043333D02*
X106672438Y-66948095D01*
X106672438Y-66948095D02*
X106720057Y-66900476D01*
X106720057Y-66900476D02*
X106815295Y-66852857D01*
X106815295Y-66852857D02*
X106958152Y-66852857D01*
X106958152Y-66852857D02*
X107053390Y-66900476D01*
X107053390Y-66900476D02*
X107101009Y-66948095D01*
X107101009Y-66948095D02*
X107148628Y-67043333D01*
X107148628Y-67043333D02*
X107148628Y-67424285D01*
X107624819Y-65900476D02*
X107624819Y-66471904D01*
X107624819Y-66186190D02*
X106624819Y-66186190D01*
X106624819Y-66186190D02*
X106767676Y-66281428D01*
X106767676Y-66281428D02*
X106862914Y-66376666D01*
X106862914Y-66376666D02*
X106910533Y-66471904D01*
X106624819Y-65043333D02*
X106624819Y-65233809D01*
X106624819Y-65233809D02*
X106672438Y-65329047D01*
X106672438Y-65329047D02*
X106720057Y-65376666D01*
X106720057Y-65376666D02*
X106862914Y-65471904D01*
X106862914Y-65471904D02*
X107053390Y-65519523D01*
X107053390Y-65519523D02*
X107434342Y-65519523D01*
X107434342Y-65519523D02*
X107529580Y-65471904D01*
X107529580Y-65471904D02*
X107577200Y-65424285D01*
X107577200Y-65424285D02*
X107624819Y-65329047D01*
X107624819Y-65329047D02*
X107624819Y-65138571D01*
X107624819Y-65138571D02*
X107577200Y-65043333D01*
X107577200Y-65043333D02*
X107529580Y-64995714D01*
X107529580Y-64995714D02*
X107434342Y-64948095D01*
X107434342Y-64948095D02*
X107196247Y-64948095D01*
X107196247Y-64948095D02*
X107101009Y-64995714D01*
X107101009Y-64995714D02*
X107053390Y-65043333D01*
X107053390Y-65043333D02*
X107005771Y-65138571D01*
X107005771Y-65138571D02*
X107005771Y-65329047D01*
X107005771Y-65329047D02*
X107053390Y-65424285D01*
X107053390Y-65424285D02*
X107101009Y-65471904D01*
X107101009Y-65471904D02*
X107196247Y-65519523D01*
X83854819Y-43289523D02*
X84569104Y-43289523D01*
X84569104Y-43289523D02*
X84711961Y-43337142D01*
X84711961Y-43337142D02*
X84807200Y-43432380D01*
X84807200Y-43432380D02*
X84854819Y-43575237D01*
X84854819Y-43575237D02*
X84854819Y-43670475D01*
X84854819Y-42813332D02*
X83854819Y-42813332D01*
X83854819Y-42813332D02*
X83854819Y-42432380D01*
X83854819Y-42432380D02*
X83902438Y-42337142D01*
X83902438Y-42337142D02*
X83950057Y-42289523D01*
X83950057Y-42289523D02*
X84045295Y-42241904D01*
X84045295Y-42241904D02*
X84188152Y-42241904D01*
X84188152Y-42241904D02*
X84283390Y-42289523D01*
X84283390Y-42289523D02*
X84331009Y-42337142D01*
X84331009Y-42337142D02*
X84378628Y-42432380D01*
X84378628Y-42432380D02*
X84378628Y-42813332D01*
X84854819Y-41289523D02*
X84854819Y-41860951D01*
X84854819Y-41575237D02*
X83854819Y-41575237D01*
X83854819Y-41575237D02*
X83997676Y-41670475D01*
X83997676Y-41670475D02*
X84092914Y-41765713D01*
X84092914Y-41765713D02*
X84140533Y-41860951D01*
X84854819Y-40337142D02*
X84854819Y-40908570D01*
X84854819Y-40622856D02*
X83854819Y-40622856D01*
X83854819Y-40622856D02*
X83997676Y-40718094D01*
X83997676Y-40718094D02*
X84092914Y-40813332D01*
X84092914Y-40813332D02*
X84140533Y-40908570D01*
X88084819Y-70303333D02*
X88799104Y-70303333D01*
X88799104Y-70303333D02*
X88941961Y-70350952D01*
X88941961Y-70350952D02*
X89037200Y-70446190D01*
X89037200Y-70446190D02*
X89084819Y-70589047D01*
X89084819Y-70589047D02*
X89084819Y-70684285D01*
X89084819Y-69827142D02*
X88084819Y-69827142D01*
X88084819Y-69827142D02*
X88084819Y-69446190D01*
X88084819Y-69446190D02*
X88132438Y-69350952D01*
X88132438Y-69350952D02*
X88180057Y-69303333D01*
X88180057Y-69303333D02*
X88275295Y-69255714D01*
X88275295Y-69255714D02*
X88418152Y-69255714D01*
X88418152Y-69255714D02*
X88513390Y-69303333D01*
X88513390Y-69303333D02*
X88561009Y-69350952D01*
X88561009Y-69350952D02*
X88608628Y-69446190D01*
X88608628Y-69446190D02*
X88608628Y-69827142D01*
X88418152Y-68398571D02*
X89084819Y-68398571D01*
X88037200Y-68636666D02*
X88751485Y-68874761D01*
X88751485Y-68874761D02*
X88751485Y-68255714D01*
X91154819Y-70313333D02*
X91869104Y-70313333D01*
X91869104Y-70313333D02*
X92011961Y-70360952D01*
X92011961Y-70360952D02*
X92107200Y-70456190D01*
X92107200Y-70456190D02*
X92154819Y-70599047D01*
X92154819Y-70599047D02*
X92154819Y-70694285D01*
X92154819Y-69837142D02*
X91154819Y-69837142D01*
X91154819Y-69837142D02*
X91154819Y-69456190D01*
X91154819Y-69456190D02*
X91202438Y-69360952D01*
X91202438Y-69360952D02*
X91250057Y-69313333D01*
X91250057Y-69313333D02*
X91345295Y-69265714D01*
X91345295Y-69265714D02*
X91488152Y-69265714D01*
X91488152Y-69265714D02*
X91583390Y-69313333D01*
X91583390Y-69313333D02*
X91631009Y-69360952D01*
X91631009Y-69360952D02*
X91678628Y-69456190D01*
X91678628Y-69456190D02*
X91678628Y-69837142D01*
X91154819Y-68360952D02*
X91154819Y-68837142D01*
X91154819Y-68837142D02*
X91631009Y-68884761D01*
X91631009Y-68884761D02*
X91583390Y-68837142D01*
X91583390Y-68837142D02*
X91535771Y-68741904D01*
X91535771Y-68741904D02*
X91535771Y-68503809D01*
X91535771Y-68503809D02*
X91583390Y-68408571D01*
X91583390Y-68408571D02*
X91631009Y-68360952D01*
X91631009Y-68360952D02*
X91726247Y-68313333D01*
X91726247Y-68313333D02*
X91964342Y-68313333D01*
X91964342Y-68313333D02*
X92059580Y-68360952D01*
X92059580Y-68360952D02*
X92107200Y-68408571D01*
X92107200Y-68408571D02*
X92154819Y-68503809D01*
X92154819Y-68503809D02*
X92154819Y-68741904D01*
X92154819Y-68741904D02*
X92107200Y-68837142D01*
X92107200Y-68837142D02*
X92059580Y-68884761D01*
X85373333Y-66134819D02*
X85040000Y-65658628D01*
X84801905Y-66134819D02*
X84801905Y-65134819D01*
X84801905Y-65134819D02*
X85182857Y-65134819D01*
X85182857Y-65134819D02*
X85278095Y-65182438D01*
X85278095Y-65182438D02*
X85325714Y-65230057D01*
X85325714Y-65230057D02*
X85373333Y-65325295D01*
X85373333Y-65325295D02*
X85373333Y-65468152D01*
X85373333Y-65468152D02*
X85325714Y-65563390D01*
X85325714Y-65563390D02*
X85278095Y-65611009D01*
X85278095Y-65611009D02*
X85182857Y-65658628D01*
X85182857Y-65658628D02*
X84801905Y-65658628D01*
X85944762Y-65563390D02*
X85849524Y-65515771D01*
X85849524Y-65515771D02*
X85801905Y-65468152D01*
X85801905Y-65468152D02*
X85754286Y-65372914D01*
X85754286Y-65372914D02*
X85754286Y-65325295D01*
X85754286Y-65325295D02*
X85801905Y-65230057D01*
X85801905Y-65230057D02*
X85849524Y-65182438D01*
X85849524Y-65182438D02*
X85944762Y-65134819D01*
X85944762Y-65134819D02*
X86135238Y-65134819D01*
X86135238Y-65134819D02*
X86230476Y-65182438D01*
X86230476Y-65182438D02*
X86278095Y-65230057D01*
X86278095Y-65230057D02*
X86325714Y-65325295D01*
X86325714Y-65325295D02*
X86325714Y-65372914D01*
X86325714Y-65372914D02*
X86278095Y-65468152D01*
X86278095Y-65468152D02*
X86230476Y-65515771D01*
X86230476Y-65515771D02*
X86135238Y-65563390D01*
X86135238Y-65563390D02*
X85944762Y-65563390D01*
X85944762Y-65563390D02*
X85849524Y-65611009D01*
X85849524Y-65611009D02*
X85801905Y-65658628D01*
X85801905Y-65658628D02*
X85754286Y-65753866D01*
X85754286Y-65753866D02*
X85754286Y-65944342D01*
X85754286Y-65944342D02*
X85801905Y-66039580D01*
X85801905Y-66039580D02*
X85849524Y-66087200D01*
X85849524Y-66087200D02*
X85944762Y-66134819D01*
X85944762Y-66134819D02*
X86135238Y-66134819D01*
X86135238Y-66134819D02*
X86230476Y-66087200D01*
X86230476Y-66087200D02*
X86278095Y-66039580D01*
X86278095Y-66039580D02*
X86325714Y-65944342D01*
X86325714Y-65944342D02*
X86325714Y-65753866D01*
X86325714Y-65753866D02*
X86278095Y-65658628D01*
X86278095Y-65658628D02*
X86230476Y-65611009D01*
X86230476Y-65611009D02*
X86135238Y-65563390D01*
X94218095Y-50754819D02*
X94218095Y-51564342D01*
X94218095Y-51564342D02*
X94265714Y-51659580D01*
X94265714Y-51659580D02*
X94313333Y-51707200D01*
X94313333Y-51707200D02*
X94408571Y-51754819D01*
X94408571Y-51754819D02*
X94599047Y-51754819D01*
X94599047Y-51754819D02*
X94694285Y-51707200D01*
X94694285Y-51707200D02*
X94741904Y-51659580D01*
X94741904Y-51659580D02*
X94789523Y-51564342D01*
X94789523Y-51564342D02*
X94789523Y-50754819D01*
X95218095Y-50850057D02*
X95265714Y-50802438D01*
X95265714Y-50802438D02*
X95360952Y-50754819D01*
X95360952Y-50754819D02*
X95599047Y-50754819D01*
X95599047Y-50754819D02*
X95694285Y-50802438D01*
X95694285Y-50802438D02*
X95741904Y-50850057D01*
X95741904Y-50850057D02*
X95789523Y-50945295D01*
X95789523Y-50945295D02*
X95789523Y-51040533D01*
X95789523Y-51040533D02*
X95741904Y-51183390D01*
X95741904Y-51183390D02*
X95170476Y-51754819D01*
X95170476Y-51754819D02*
X95789523Y-51754819D01*
X101494819Y-66872857D02*
X101018628Y-67206190D01*
X101494819Y-67444285D02*
X100494819Y-67444285D01*
X100494819Y-67444285D02*
X100494819Y-67063333D01*
X100494819Y-67063333D02*
X100542438Y-66968095D01*
X100542438Y-66968095D02*
X100590057Y-66920476D01*
X100590057Y-66920476D02*
X100685295Y-66872857D01*
X100685295Y-66872857D02*
X100828152Y-66872857D01*
X100828152Y-66872857D02*
X100923390Y-66920476D01*
X100923390Y-66920476D02*
X100971009Y-66968095D01*
X100971009Y-66968095D02*
X101018628Y-67063333D01*
X101018628Y-67063333D02*
X101018628Y-67444285D01*
X101494819Y-65920476D02*
X101494819Y-66491904D01*
X101494819Y-66206190D02*
X100494819Y-66206190D01*
X100494819Y-66206190D02*
X100637676Y-66301428D01*
X100637676Y-66301428D02*
X100732914Y-66396666D01*
X100732914Y-66396666D02*
X100780533Y-66491904D01*
X100828152Y-65063333D02*
X101494819Y-65063333D01*
X100447200Y-65301428D02*
X101161485Y-65539523D01*
X101161485Y-65539523D02*
X101161485Y-64920476D01*
X84964819Y-70323333D02*
X85679104Y-70323333D01*
X85679104Y-70323333D02*
X85821961Y-70370952D01*
X85821961Y-70370952D02*
X85917200Y-70466190D01*
X85917200Y-70466190D02*
X85964819Y-70609047D01*
X85964819Y-70609047D02*
X85964819Y-70704285D01*
X85964819Y-69847142D02*
X84964819Y-69847142D01*
X84964819Y-69847142D02*
X84964819Y-69466190D01*
X84964819Y-69466190D02*
X85012438Y-69370952D01*
X85012438Y-69370952D02*
X85060057Y-69323333D01*
X85060057Y-69323333D02*
X85155295Y-69275714D01*
X85155295Y-69275714D02*
X85298152Y-69275714D01*
X85298152Y-69275714D02*
X85393390Y-69323333D01*
X85393390Y-69323333D02*
X85441009Y-69370952D01*
X85441009Y-69370952D02*
X85488628Y-69466190D01*
X85488628Y-69466190D02*
X85488628Y-69847142D01*
X84964819Y-68942380D02*
X84964819Y-68323333D01*
X84964819Y-68323333D02*
X85345771Y-68656666D01*
X85345771Y-68656666D02*
X85345771Y-68513809D01*
X85345771Y-68513809D02*
X85393390Y-68418571D01*
X85393390Y-68418571D02*
X85441009Y-68370952D01*
X85441009Y-68370952D02*
X85536247Y-68323333D01*
X85536247Y-68323333D02*
X85774342Y-68323333D01*
X85774342Y-68323333D02*
X85869580Y-68370952D01*
X85869580Y-68370952D02*
X85917200Y-68418571D01*
X85917200Y-68418571D02*
X85964819Y-68513809D01*
X85964819Y-68513809D02*
X85964819Y-68799523D01*
X85964819Y-68799523D02*
X85917200Y-68894761D01*
X85917200Y-68894761D02*
X85869580Y-68942380D01*
D12*
X93562618Y-60704318D02*
X93562618Y-59434318D01*
X93562618Y-59434318D02*
X93864999Y-59434318D01*
X93864999Y-59434318D02*
X94046428Y-59494794D01*
X94046428Y-59494794D02*
X94167380Y-59615746D01*
X94167380Y-59615746D02*
X94227857Y-59736699D01*
X94227857Y-59736699D02*
X94288333Y-59978603D01*
X94288333Y-59978603D02*
X94288333Y-60160032D01*
X94288333Y-60160032D02*
X94227857Y-60401937D01*
X94227857Y-60401937D02*
X94167380Y-60522889D01*
X94167380Y-60522889D02*
X94046428Y-60643842D01*
X94046428Y-60643842D02*
X93864999Y-60704318D01*
X93864999Y-60704318D02*
X93562618Y-60704318D01*
X94711666Y-59434318D02*
X95497857Y-59434318D01*
X95497857Y-59434318D02*
X95074523Y-59918127D01*
X95074523Y-59918127D02*
X95255952Y-59918127D01*
X95255952Y-59918127D02*
X95376904Y-59978603D01*
X95376904Y-59978603D02*
X95437380Y-60039080D01*
X95437380Y-60039080D02*
X95497857Y-60160032D01*
X95497857Y-60160032D02*
X95497857Y-60462413D01*
X95497857Y-60462413D02*
X95437380Y-60583365D01*
X95437380Y-60583365D02*
X95376904Y-60643842D01*
X95376904Y-60643842D02*
X95255952Y-60704318D01*
X95255952Y-60704318D02*
X94893095Y-60704318D01*
X94893095Y-60704318D02*
X94772142Y-60643842D01*
X94772142Y-60643842D02*
X94711666Y-60583365D01*
D14*
%TO.C,R17*%
X108380000Y-38750000D02*
X107610000Y-38750000D01*
X100300000Y-38750000D02*
X101070000Y-38750000D01*
X107610000Y-40120000D02*
X101070000Y-40120000D01*
X101070000Y-37380000D01*
X107610000Y-37380000D01*
X107610000Y-40120000D01*
%TO.C,JP12*%
X82765000Y-41140000D02*
X81275000Y-41140000D01*
X82765000Y-40277923D02*
X82765000Y-41140000D01*
X81210000Y-37510000D02*
X81210000Y-41140000D01*
X81210000Y-37510000D02*
X81210000Y-38023292D01*
X81210000Y-37510000D02*
X81275000Y-37510000D01*
X82020000Y-37510000D02*
X82830000Y-37510000D01*
X82830000Y-37510000D02*
X82830000Y-38690000D01*
%TO.C,SW1*%
X87840000Y-35620000D02*
X88610000Y-35620000D01*
X95920000Y-35620000D02*
X95150000Y-35620000D01*
X88610000Y-34250000D02*
X95150000Y-34250000D01*
X95150000Y-36990000D01*
X88610000Y-36990000D01*
X88610000Y-34250000D01*
%TO.C,R7*%
X81070000Y-71190000D02*
X83810000Y-71190000D01*
X83810000Y-64650000D01*
X81070000Y-64650000D01*
X81070000Y-71190000D01*
X82440000Y-71960000D02*
X82440000Y-71190000D01*
X82440000Y-63880000D02*
X82440000Y-64650000D01*
D10*
%TO.C,D1*%
X102164000Y-57536000D02*
X102127000Y-57573000D01*
X101698000Y-57573000D01*
X102163000Y-57108000D01*
X102164000Y-57108000D01*
X102164000Y-57536000D01*
G36*
X102164000Y-57536000D02*
G01*
X102127000Y-57573000D01*
X101698000Y-57573000D01*
X102163000Y-57108000D01*
X102164000Y-57108000D01*
X102164000Y-57536000D01*
G37*
%TO.C,R13*%
D14*
X96670000Y-71190000D02*
X99410000Y-71190000D01*
X99410000Y-64650000D01*
X96670000Y-64650000D01*
X96670000Y-71190000D01*
X98040000Y-71960000D02*
X98040000Y-71190000D01*
X98040000Y-63880000D02*
X98040000Y-64650000D01*
%TO.C,JP6*%
X94110000Y-78160000D02*
X94110000Y-76980000D01*
X94175000Y-74530000D02*
X95665000Y-74530000D01*
X94175000Y-75392077D02*
X94175000Y-74530000D01*
X94920000Y-78160000D02*
X94110000Y-78160000D01*
X95730000Y-78160000D02*
X95665000Y-78160000D01*
X95730000Y-78160000D02*
X95730000Y-74530000D01*
X95730000Y-78160000D02*
X95730000Y-77646708D01*
%TO.C,R15*%
X102810000Y-71190000D02*
X105550000Y-71190000D01*
X105550000Y-64650000D01*
X102810000Y-64650000D01*
X102810000Y-71190000D01*
X104180000Y-71960000D02*
X104180000Y-71190000D01*
X104180000Y-63880000D02*
X104180000Y-64650000D01*
%TO.C,JP13*%
X112850000Y-63195000D02*
X112850000Y-64685000D01*
X111987923Y-63195000D02*
X112850000Y-63195000D01*
X109220000Y-64750000D02*
X112850000Y-64750000D01*
X109220000Y-64750000D02*
X109733292Y-64750000D01*
X109220000Y-64750000D02*
X109220000Y-64685000D01*
X109220000Y-63940000D02*
X109220000Y-63130000D01*
X109220000Y-63130000D02*
X110400000Y-63130000D01*
%TO.C,JP1*%
X113525000Y-57440000D02*
X114705000Y-57440000D01*
X113525000Y-58250000D02*
X113525000Y-57440000D01*
X113525000Y-59060000D02*
X113525000Y-58995000D01*
X113525000Y-59060000D02*
X114038292Y-59060000D01*
X113525000Y-59060000D02*
X117155000Y-59060000D01*
X116292923Y-57505000D02*
X117155000Y-57505000D01*
X117155000Y-57505000D02*
X117155000Y-58995000D01*
%TO.C,JP10*%
X106390000Y-78160000D02*
X106390000Y-76980000D01*
X106455000Y-74530000D02*
X107945000Y-74530000D01*
X106455000Y-75392077D02*
X106455000Y-74530000D01*
X107200000Y-78160000D02*
X106390000Y-78160000D01*
X108010000Y-78160000D02*
X107945000Y-78160000D01*
X108010000Y-78160000D02*
X108010000Y-74530000D01*
X108010000Y-78160000D02*
X108010000Y-77646708D01*
%TO.C,JP14*%
X109220000Y-65490000D02*
X110400000Y-65490000D01*
X109220000Y-66300000D02*
X109220000Y-65490000D01*
X109220000Y-67110000D02*
X109220000Y-67045000D01*
X109220000Y-67110000D02*
X109733292Y-67110000D01*
X109220000Y-67110000D02*
X112850000Y-67110000D01*
X111987923Y-65555000D02*
X112850000Y-65555000D01*
X112850000Y-65555000D02*
X112850000Y-67045000D01*
%TO.C,R11*%
X90390000Y-71190000D02*
X93130000Y-71190000D01*
X93130000Y-64650000D01*
X90390000Y-64650000D01*
X90390000Y-71190000D01*
X91760000Y-71960000D02*
X91760000Y-71190000D01*
X91760000Y-63880000D02*
X91760000Y-64650000D01*
D10*
%TO.C,D2*%
X107544000Y-57536000D02*
X107507000Y-57573000D01*
X107078000Y-57573000D01*
X107543000Y-57108000D01*
X107544000Y-57108000D01*
X107544000Y-57536000D01*
G36*
X107544000Y-57536000D02*
G01*
X107507000Y-57573000D01*
X107078000Y-57573000D01*
X107543000Y-57108000D01*
X107544000Y-57108000D01*
X107544000Y-57536000D01*
G37*
%TO.C,R9*%
D14*
X87280000Y-71190000D02*
X90020000Y-71190000D01*
X90020000Y-64650000D01*
X87280000Y-64650000D01*
X87280000Y-71190000D01*
X88650000Y-71960000D02*
X88650000Y-71190000D01*
X88650000Y-63880000D02*
X88650000Y-64650000D01*
%TO.C,R12*%
X93590000Y-71190000D02*
X96330000Y-71190000D01*
X96330000Y-64650000D01*
X93590000Y-64650000D01*
X93590000Y-71190000D01*
X94960000Y-71960000D02*
X94960000Y-71190000D01*
X94960000Y-63880000D02*
X94960000Y-64650000D01*
%TO.C,JP8*%
X100260000Y-78160000D02*
X100260000Y-76980000D01*
X100325000Y-74530000D02*
X101815000Y-74530000D01*
X100325000Y-75392077D02*
X100325000Y-74530000D01*
X101070000Y-78160000D02*
X100260000Y-78160000D01*
X101880000Y-78160000D02*
X101815000Y-78160000D01*
X101880000Y-78160000D02*
X101880000Y-74530000D01*
X101880000Y-78160000D02*
X101880000Y-77646708D01*
%TO.C,JP9*%
X103370000Y-78160000D02*
X103370000Y-76980000D01*
X103435000Y-74530000D02*
X104925000Y-74530000D01*
X103435000Y-75392077D02*
X103435000Y-74530000D01*
X104180000Y-78160000D02*
X103370000Y-78160000D01*
X104990000Y-78160000D02*
X104925000Y-78160000D01*
X104990000Y-78160000D02*
X104990000Y-74530000D01*
X104990000Y-78160000D02*
X104990000Y-77646708D01*
%TO.C,JP7*%
X97170000Y-78160000D02*
X97170000Y-76980000D01*
X97235000Y-74530000D02*
X98725000Y-74530000D01*
X97235000Y-75392077D02*
X97235000Y-74530000D01*
X97980000Y-78160000D02*
X97170000Y-78160000D01*
X98790000Y-78160000D02*
X98725000Y-78160000D01*
X98790000Y-78160000D02*
X98790000Y-74530000D01*
X98790000Y-78160000D02*
X98790000Y-77646708D01*
%TO.C,JP2*%
X81650000Y-78160000D02*
X81650000Y-76980000D01*
X81715000Y-74530000D02*
X83205000Y-74530000D01*
X81715000Y-75392077D02*
X81715000Y-74530000D01*
X82460000Y-78160000D02*
X81650000Y-78160000D01*
X83270000Y-78160000D02*
X83205000Y-78160000D01*
X83270000Y-78160000D02*
X83270000Y-74530000D01*
X83270000Y-78160000D02*
X83270000Y-77646708D01*
%TO.C,R16*%
X105870000Y-71190000D02*
X108610000Y-71190000D01*
X108610000Y-64650000D01*
X105870000Y-64650000D01*
X105870000Y-71190000D01*
X107240000Y-71960000D02*
X107240000Y-71190000D01*
X107240000Y-63880000D02*
X107240000Y-64650000D01*
%TO.C,JP11*%
X83695000Y-36270000D02*
X85185000Y-36270000D01*
X83695000Y-37132077D02*
X83695000Y-36270000D01*
X85250000Y-39900000D02*
X85250000Y-36270000D01*
X85250000Y-39900000D02*
X85250000Y-39386708D01*
X85250000Y-39900000D02*
X85185000Y-39900000D01*
X84440000Y-39900000D02*
X83630000Y-39900000D01*
X83630000Y-39900000D02*
X83630000Y-38720000D01*
%TO.C,JP4*%
X87820000Y-78160000D02*
X87820000Y-76980000D01*
X87885000Y-74530000D02*
X89375000Y-74530000D01*
X87885000Y-75392077D02*
X87885000Y-74530000D01*
X88630000Y-78160000D02*
X87820000Y-78160000D01*
X89440000Y-78160000D02*
X89375000Y-78160000D01*
X89440000Y-78160000D02*
X89440000Y-74530000D01*
X89440000Y-78160000D02*
X89440000Y-77646708D01*
%TO.C,JP5*%
X90890000Y-78160000D02*
X90890000Y-76980000D01*
X90955000Y-74530000D02*
X92445000Y-74530000D01*
X90955000Y-75392077D02*
X90955000Y-74530000D01*
X91700000Y-78160000D02*
X90890000Y-78160000D01*
X92510000Y-78160000D02*
X92445000Y-78160000D01*
X92510000Y-78160000D02*
X92510000Y-74530000D01*
X92510000Y-78160000D02*
X92510000Y-77646708D01*
%TO.C,R8*%
X84140000Y-71190000D02*
X86880000Y-71190000D01*
X86880000Y-64650000D01*
X84140000Y-64650000D01*
X84140000Y-71190000D01*
X85510000Y-71960000D02*
X85510000Y-71190000D01*
X85510000Y-63880000D02*
X85510000Y-64650000D01*
%TO.C,U2*%
X94980000Y-47340000D02*
X94205000Y-47340000D01*
X94980000Y-47340000D02*
X95755000Y-47340000D01*
X94980000Y-50460000D02*
X94205000Y-50460000D01*
X94980000Y-50460000D02*
X95755000Y-50460000D01*
X96582500Y-50740000D02*
X96102500Y-50740000D01*
X96342500Y-50410000D01*
X96582500Y-50740000D01*
G36*
X96582500Y-50740000D02*
G01*
X96102500Y-50740000D01*
X96342500Y-50410000D01*
X96582500Y-50740000D01*
G37*
%TO.C,R14*%
X99740000Y-71190000D02*
X102480000Y-71190000D01*
X102480000Y-64650000D01*
X99740000Y-64650000D01*
X99740000Y-71190000D01*
X101110000Y-71960000D02*
X101110000Y-71190000D01*
X101110000Y-63880000D02*
X101110000Y-64650000D01*
%TO.C,JP3*%
X84690000Y-78160000D02*
X84690000Y-76980000D01*
X84755000Y-74530000D02*
X86245000Y-74530000D01*
X84755000Y-75392077D02*
X84755000Y-74530000D01*
X85500000Y-78160000D02*
X84690000Y-78160000D01*
X86310000Y-78160000D02*
X86245000Y-78160000D01*
X86310000Y-78160000D02*
X86310000Y-74530000D01*
X86310000Y-78160000D02*
X86310000Y-77646708D01*
D10*
%TO.C,D3*%
X96764000Y-57536000D02*
X96727000Y-57573000D01*
X96298000Y-57573000D01*
X96763000Y-57108000D01*
X96764000Y-57108000D01*
X96764000Y-57536000D01*
G36*
X96764000Y-57536000D02*
G01*
X96727000Y-57573000D01*
X96298000Y-57573000D01*
X96763000Y-57108000D01*
X96764000Y-57108000D01*
X96764000Y-57536000D01*
G37*
%TD*%
M02*
