%TF.GenerationSoftware,KiCad,Pcbnew,9.0.2*%
%TF.CreationDate,2025-07-18T12:05:27+02:00*%
%TF.ProjectId,Ligther,4c696774-6865-4722-9e6b-696361645f70,rev?*%
%TF.SameCoordinates,Original*%
%TF.FileFunction,Paste,Top*%
%TF.FilePolarity,Positive*%
%FSLAX46Y46*%
G04 Gerber Fmt 4.6, Leading zero omitted, Abs format (unit mm)*
G04 Created by KiCad (PCBNEW 9.0.2) date 2025-07-18 12:05:27*
%MOMM*%
%LPD*%
G01*
G04 APERTURE LIST*
G04 Aperture macros list*
%AMRoundRect*
0 Rectangle with rounded corners*
0 $1 Rounding radius*
0 $2 $3 $4 $5 $6 $7 $8 $9 X,Y pos of 4 corners*
0 Add a 4 corners polygon primitive as box body*
4,1,4,$2,$3,$4,$5,$6,$7,$8,$9,$2,$3,0*
0 Add four circle primitives for the rounded corners*
1,1,$1+$1,$2,$3*
1,1,$1+$1,$4,$5*
1,1,$1+$1,$6,$7*
1,1,$1+$1,$8,$9*
0 Add four rect primitives between the rounded corners*
20,1,$1+$1,$2,$3,$4,$5,0*
20,1,$1+$1,$4,$5,$6,$7,0*
20,1,$1+$1,$6,$7,$8,$9,0*
20,1,$1+$1,$8,$9,$2,$3,0*%
G04 Aperture macros list end*
%ADD10R,0.800000X1.250000*%
%ADD11R,0.400000X0.950000*%
%ADD12RoundRect,0.150000X0.650000X0.150000X-0.650000X0.150000X-0.650000X-0.150000X0.650000X-0.150000X0*%
G04 APERTURE END LIST*
%TO.C,D1*%
G36*
X98800000Y-56175000D02*
G01*
X101200000Y-56175000D01*
X101200000Y-56725000D01*
X98800000Y-56725000D01*
X98800000Y-56175000D01*
G37*
G36*
X98800000Y-56825000D02*
G01*
X99300000Y-56825000D01*
X99300000Y-57525000D01*
X98800000Y-57525000D01*
X98800000Y-56825000D01*
G37*
G36*
X99800000Y-56825000D02*
G01*
X100200000Y-56825000D01*
X100200000Y-57525000D01*
X99800000Y-57525000D01*
X99800000Y-56825000D01*
G37*
G36*
X100700000Y-56825000D02*
G01*
X101200000Y-56825000D01*
X101200000Y-57525000D01*
X100700000Y-57525000D01*
X100700000Y-56825000D01*
G37*
%TO.C,D2*%
G36*
X104180000Y-56175000D02*
G01*
X106580000Y-56175000D01*
X106580000Y-56725000D01*
X104180000Y-56725000D01*
X104180000Y-56175000D01*
G37*
G36*
X104180000Y-56825000D02*
G01*
X104680000Y-56825000D01*
X104680000Y-57525000D01*
X104180000Y-57525000D01*
X104180000Y-56825000D01*
G37*
G36*
X105180000Y-56825000D02*
G01*
X105580000Y-56825000D01*
X105580000Y-57525000D01*
X105180000Y-57525000D01*
X105180000Y-56825000D01*
G37*
G36*
X106080000Y-56825000D02*
G01*
X106580000Y-56825000D01*
X106580000Y-57525000D01*
X106080000Y-57525000D01*
X106080000Y-56825000D01*
G37*
%TO.C,D3*%
G36*
X93400000Y-56175000D02*
G01*
X95800000Y-56175000D01*
X95800000Y-56725000D01*
X93400000Y-56725000D01*
X93400000Y-56175000D01*
G37*
G36*
X93400000Y-56825000D02*
G01*
X93900000Y-56825000D01*
X93900000Y-57525000D01*
X93400000Y-57525000D01*
X93400000Y-56825000D01*
G37*
G36*
X94400000Y-56825000D02*
G01*
X94800000Y-56825000D01*
X94800000Y-57525000D01*
X94400000Y-57525000D01*
X94400000Y-56825000D01*
G37*
G36*
X95300000Y-56825000D02*
G01*
X95800000Y-56825000D01*
X95800000Y-57525000D01*
X95300000Y-57525000D01*
X95300000Y-56825000D01*
G37*
%TD*%
D10*
%TO.C,D1*%
X99050000Y-55000000D03*
D11*
X100000000Y-54850000D03*
D10*
X100950000Y-55000000D03*
%TD*%
%TO.C,D2*%
X104430000Y-55000000D03*
D11*
X105380000Y-54850000D03*
D10*
X106330000Y-55000000D03*
%TD*%
D12*
%TO.C,U2*%
X96130000Y-49850000D03*
X96130000Y-48900000D03*
X96130000Y-47950000D03*
X93830000Y-47950000D03*
X93830000Y-48900000D03*
X93830000Y-49850000D03*
%TD*%
D10*
%TO.C,D3*%
X93650000Y-55000000D03*
D11*
X94600000Y-54850000D03*
D10*
X95550000Y-55000000D03*
%TD*%
M02*
