%TF.GenerationSoftware,KiCad,Pcbnew,9.0.2*%
%TF.CreationDate,2025-07-18T12:05:27+02:00*%
%TF.ProjectId,Ligther,4c696774-6865-4722-9e6b-696361645f70,rev?*%
%TF.SameCoordinates,Original*%
%TF.FileFunction,Legend,Bot*%
%TF.FilePolarity,Positive*%
%FSLAX46Y46*%
G04 Gerber Fmt 4.6, Leading zero omitted, Abs format (unit mm)*
G04 Created by KiCad (PCBNEW 9.0.2) date 2025-07-18 12:05:27*
%MOMM*%
%LPD*%
G01*
G04 APERTURE LIST*
%ADD10C,0.150000*%
%ADD11C,0.120000*%
G04 APERTURE END LIST*
D10*
X92096666Y-39174819D02*
X92429999Y-38698628D01*
X92668094Y-39174819D02*
X92668094Y-38174819D01*
X92668094Y-38174819D02*
X92287142Y-38174819D01*
X92287142Y-38174819D02*
X92191904Y-38222438D01*
X92191904Y-38222438D02*
X92144285Y-38270057D01*
X92144285Y-38270057D02*
X92096666Y-38365295D01*
X92096666Y-38365295D02*
X92096666Y-38508152D01*
X92096666Y-38508152D02*
X92144285Y-38603390D01*
X92144285Y-38603390D02*
X92191904Y-38651009D01*
X92191904Y-38651009D02*
X92287142Y-38698628D01*
X92287142Y-38698628D02*
X92668094Y-38698628D01*
X91144285Y-39174819D02*
X91715713Y-39174819D01*
X91429999Y-39174819D02*
X91429999Y-38174819D01*
X91429999Y-38174819D02*
X91525237Y-38317676D01*
X91525237Y-38317676D02*
X91620475Y-38412914D01*
X91620475Y-38412914D02*
X91715713Y-38460533D01*
X105485238Y-40630057D02*
X105580476Y-40582438D01*
X105580476Y-40582438D02*
X105675714Y-40487200D01*
X105675714Y-40487200D02*
X105818571Y-40344342D01*
X105818571Y-40344342D02*
X105913809Y-40296723D01*
X105913809Y-40296723D02*
X106009047Y-40296723D01*
X105961428Y-40534819D02*
X106056666Y-40487200D01*
X106056666Y-40487200D02*
X106151904Y-40391961D01*
X106151904Y-40391961D02*
X106199523Y-40201485D01*
X106199523Y-40201485D02*
X106199523Y-39868152D01*
X106199523Y-39868152D02*
X106151904Y-39677676D01*
X106151904Y-39677676D02*
X106056666Y-39582438D01*
X106056666Y-39582438D02*
X105961428Y-39534819D01*
X105961428Y-39534819D02*
X105770952Y-39534819D01*
X105770952Y-39534819D02*
X105675714Y-39582438D01*
X105675714Y-39582438D02*
X105580476Y-39677676D01*
X105580476Y-39677676D02*
X105532857Y-39868152D01*
X105532857Y-39868152D02*
X105532857Y-40201485D01*
X105532857Y-40201485D02*
X105580476Y-40391961D01*
X105580476Y-40391961D02*
X105675714Y-40487200D01*
X105675714Y-40487200D02*
X105770952Y-40534819D01*
X105770952Y-40534819D02*
X105961428Y-40534819D01*
X104580476Y-40534819D02*
X105151904Y-40534819D01*
X104866190Y-40534819D02*
X104866190Y-39534819D01*
X104866190Y-39534819D02*
X104961428Y-39677676D01*
X104961428Y-39677676D02*
X105056666Y-39772914D01*
X105056666Y-39772914D02*
X105151904Y-39820533D01*
X115476666Y-61624819D02*
X115809999Y-61148628D01*
X116048094Y-61624819D02*
X116048094Y-60624819D01*
X116048094Y-60624819D02*
X115667142Y-60624819D01*
X115667142Y-60624819D02*
X115571904Y-60672438D01*
X115571904Y-60672438D02*
X115524285Y-60720057D01*
X115524285Y-60720057D02*
X115476666Y-60815295D01*
X115476666Y-60815295D02*
X115476666Y-60958152D01*
X115476666Y-60958152D02*
X115524285Y-61053390D01*
X115524285Y-61053390D02*
X115571904Y-61101009D01*
X115571904Y-61101009D02*
X115667142Y-61148628D01*
X115667142Y-61148628D02*
X116048094Y-61148628D01*
X115095713Y-60720057D02*
X115048094Y-60672438D01*
X115048094Y-60672438D02*
X114952856Y-60624819D01*
X114952856Y-60624819D02*
X114714761Y-60624819D01*
X114714761Y-60624819D02*
X114619523Y-60672438D01*
X114619523Y-60672438D02*
X114571904Y-60720057D01*
X114571904Y-60720057D02*
X114524285Y-60815295D01*
X114524285Y-60815295D02*
X114524285Y-60910533D01*
X114524285Y-60910533D02*
X114571904Y-61053390D01*
X114571904Y-61053390D02*
X115143332Y-61624819D01*
X115143332Y-61624819D02*
X114524285Y-61624819D01*
X105206666Y-50844819D02*
X105539999Y-50368628D01*
X105778094Y-50844819D02*
X105778094Y-49844819D01*
X105778094Y-49844819D02*
X105397142Y-49844819D01*
X105397142Y-49844819D02*
X105301904Y-49892438D01*
X105301904Y-49892438D02*
X105254285Y-49940057D01*
X105254285Y-49940057D02*
X105206666Y-50035295D01*
X105206666Y-50035295D02*
X105206666Y-50178152D01*
X105206666Y-50178152D02*
X105254285Y-50273390D01*
X105254285Y-50273390D02*
X105301904Y-50321009D01*
X105301904Y-50321009D02*
X105397142Y-50368628D01*
X105397142Y-50368628D02*
X105778094Y-50368628D01*
X104349523Y-49844819D02*
X104539999Y-49844819D01*
X104539999Y-49844819D02*
X104635237Y-49892438D01*
X104635237Y-49892438D02*
X104682856Y-49940057D01*
X104682856Y-49940057D02*
X104778094Y-50082914D01*
X104778094Y-50082914D02*
X104825713Y-50273390D01*
X104825713Y-50273390D02*
X104825713Y-50654342D01*
X104825713Y-50654342D02*
X104778094Y-50749580D01*
X104778094Y-50749580D02*
X104730475Y-50797200D01*
X104730475Y-50797200D02*
X104635237Y-50844819D01*
X104635237Y-50844819D02*
X104444761Y-50844819D01*
X104444761Y-50844819D02*
X104349523Y-50797200D01*
X104349523Y-50797200D02*
X104301904Y-50749580D01*
X104301904Y-50749580D02*
X104254285Y-50654342D01*
X104254285Y-50654342D02*
X104254285Y-50416247D01*
X104254285Y-50416247D02*
X104301904Y-50321009D01*
X104301904Y-50321009D02*
X104349523Y-50273390D01*
X104349523Y-50273390D02*
X104444761Y-50225771D01*
X104444761Y-50225771D02*
X104635237Y-50225771D01*
X104635237Y-50225771D02*
X104730475Y-50273390D01*
X104730475Y-50273390D02*
X104778094Y-50321009D01*
X104778094Y-50321009D02*
X104825713Y-50416247D01*
X118854819Y-51188095D02*
X119664342Y-51188095D01*
X119664342Y-51188095D02*
X119759580Y-51235714D01*
X119759580Y-51235714D02*
X119807200Y-51283333D01*
X119807200Y-51283333D02*
X119854819Y-51378571D01*
X119854819Y-51378571D02*
X119854819Y-51569047D01*
X119854819Y-51569047D02*
X119807200Y-51664285D01*
X119807200Y-51664285D02*
X119759580Y-51711904D01*
X119759580Y-51711904D02*
X119664342Y-51759523D01*
X119664342Y-51759523D02*
X118854819Y-51759523D01*
X119854819Y-52759523D02*
X119854819Y-52188095D01*
X119854819Y-52473809D02*
X118854819Y-52473809D01*
X118854819Y-52473809D02*
X118997676Y-52378571D01*
X118997676Y-52378571D02*
X119092914Y-52283333D01*
X119092914Y-52283333D02*
X119140533Y-52188095D01*
X104526666Y-36064819D02*
X104859999Y-35588628D01*
X105098094Y-36064819D02*
X105098094Y-35064819D01*
X105098094Y-35064819D02*
X104717142Y-35064819D01*
X104717142Y-35064819D02*
X104621904Y-35112438D01*
X104621904Y-35112438D02*
X104574285Y-35160057D01*
X104574285Y-35160057D02*
X104526666Y-35255295D01*
X104526666Y-35255295D02*
X104526666Y-35398152D01*
X104526666Y-35398152D02*
X104574285Y-35493390D01*
X104574285Y-35493390D02*
X104621904Y-35541009D01*
X104621904Y-35541009D02*
X104717142Y-35588628D01*
X104717142Y-35588628D02*
X105098094Y-35588628D01*
X104193332Y-35064819D02*
X103574285Y-35064819D01*
X103574285Y-35064819D02*
X103907618Y-35445771D01*
X103907618Y-35445771D02*
X103764761Y-35445771D01*
X103764761Y-35445771D02*
X103669523Y-35493390D01*
X103669523Y-35493390D02*
X103621904Y-35541009D01*
X103621904Y-35541009D02*
X103574285Y-35636247D01*
X103574285Y-35636247D02*
X103574285Y-35874342D01*
X103574285Y-35874342D02*
X103621904Y-35969580D01*
X103621904Y-35969580D02*
X103669523Y-36017200D01*
X103669523Y-36017200D02*
X103764761Y-36064819D01*
X103764761Y-36064819D02*
X104050475Y-36064819D01*
X104050475Y-36064819D02*
X104145713Y-36017200D01*
X104145713Y-36017200D02*
X104193332Y-35969580D01*
X113585238Y-45470057D02*
X113680476Y-45422438D01*
X113680476Y-45422438D02*
X113775714Y-45327200D01*
X113775714Y-45327200D02*
X113918571Y-45184342D01*
X113918571Y-45184342D02*
X114013809Y-45136723D01*
X114013809Y-45136723D02*
X114109047Y-45136723D01*
X114061428Y-45374819D02*
X114156666Y-45327200D01*
X114156666Y-45327200D02*
X114251904Y-45231961D01*
X114251904Y-45231961D02*
X114299523Y-45041485D01*
X114299523Y-45041485D02*
X114299523Y-44708152D01*
X114299523Y-44708152D02*
X114251904Y-44517676D01*
X114251904Y-44517676D02*
X114156666Y-44422438D01*
X114156666Y-44422438D02*
X114061428Y-44374819D01*
X114061428Y-44374819D02*
X113870952Y-44374819D01*
X113870952Y-44374819D02*
X113775714Y-44422438D01*
X113775714Y-44422438D02*
X113680476Y-44517676D01*
X113680476Y-44517676D02*
X113632857Y-44708152D01*
X113632857Y-44708152D02*
X113632857Y-45041485D01*
X113632857Y-45041485D02*
X113680476Y-45231961D01*
X113680476Y-45231961D02*
X113775714Y-45327200D01*
X113775714Y-45327200D02*
X113870952Y-45374819D01*
X113870952Y-45374819D02*
X114061428Y-45374819D01*
X113299523Y-44374819D02*
X112680476Y-44374819D01*
X112680476Y-44374819D02*
X113013809Y-44755771D01*
X113013809Y-44755771D02*
X112870952Y-44755771D01*
X112870952Y-44755771D02*
X112775714Y-44803390D01*
X112775714Y-44803390D02*
X112728095Y-44851009D01*
X112728095Y-44851009D02*
X112680476Y-44946247D01*
X112680476Y-44946247D02*
X112680476Y-45184342D01*
X112680476Y-45184342D02*
X112728095Y-45279580D01*
X112728095Y-45279580D02*
X112775714Y-45327200D01*
X112775714Y-45327200D02*
X112870952Y-45374819D01*
X112870952Y-45374819D02*
X113156666Y-45374819D01*
X113156666Y-45374819D02*
X113251904Y-45327200D01*
X113251904Y-45327200D02*
X113299523Y-45279580D01*
X117546666Y-61099580D02*
X117594285Y-61147200D01*
X117594285Y-61147200D02*
X117737142Y-61194819D01*
X117737142Y-61194819D02*
X117832380Y-61194819D01*
X117832380Y-61194819D02*
X117975237Y-61147200D01*
X117975237Y-61147200D02*
X118070475Y-61051961D01*
X118070475Y-61051961D02*
X118118094Y-60956723D01*
X118118094Y-60956723D02*
X118165713Y-60766247D01*
X118165713Y-60766247D02*
X118165713Y-60623390D01*
X118165713Y-60623390D02*
X118118094Y-60432914D01*
X118118094Y-60432914D02*
X118070475Y-60337676D01*
X118070475Y-60337676D02*
X117975237Y-60242438D01*
X117975237Y-60242438D02*
X117832380Y-60194819D01*
X117832380Y-60194819D02*
X117737142Y-60194819D01*
X117737142Y-60194819D02*
X117594285Y-60242438D01*
X117594285Y-60242438D02*
X117546666Y-60290057D01*
X116594285Y-61194819D02*
X117165713Y-61194819D01*
X116879999Y-61194819D02*
X116879999Y-60194819D01*
X116879999Y-60194819D02*
X116975237Y-60337676D01*
X116975237Y-60337676D02*
X117070475Y-60432914D01*
X117070475Y-60432914D02*
X117165713Y-60480533D01*
X118539580Y-42853333D02*
X118587200Y-42805714D01*
X118587200Y-42805714D02*
X118634819Y-42662857D01*
X118634819Y-42662857D02*
X118634819Y-42567619D01*
X118634819Y-42567619D02*
X118587200Y-42424762D01*
X118587200Y-42424762D02*
X118491961Y-42329524D01*
X118491961Y-42329524D02*
X118396723Y-42281905D01*
X118396723Y-42281905D02*
X118206247Y-42234286D01*
X118206247Y-42234286D02*
X118063390Y-42234286D01*
X118063390Y-42234286D02*
X117872914Y-42281905D01*
X117872914Y-42281905D02*
X117777676Y-42329524D01*
X117777676Y-42329524D02*
X117682438Y-42424762D01*
X117682438Y-42424762D02*
X117634819Y-42567619D01*
X117634819Y-42567619D02*
X117634819Y-42662857D01*
X117634819Y-42662857D02*
X117682438Y-42805714D01*
X117682438Y-42805714D02*
X117730057Y-42853333D01*
X117730057Y-43234286D02*
X117682438Y-43281905D01*
X117682438Y-43281905D02*
X117634819Y-43377143D01*
X117634819Y-43377143D02*
X117634819Y-43615238D01*
X117634819Y-43615238D02*
X117682438Y-43710476D01*
X117682438Y-43710476D02*
X117730057Y-43758095D01*
X117730057Y-43758095D02*
X117825295Y-43805714D01*
X117825295Y-43805714D02*
X117920533Y-43805714D01*
X117920533Y-43805714D02*
X118063390Y-43758095D01*
X118063390Y-43758095D02*
X118634819Y-43186667D01*
X118634819Y-43186667D02*
X118634819Y-43805714D01*
X93526666Y-42554819D02*
X93859999Y-42078628D01*
X94098094Y-42554819D02*
X94098094Y-41554819D01*
X94098094Y-41554819D02*
X93717142Y-41554819D01*
X93717142Y-41554819D02*
X93621904Y-41602438D01*
X93621904Y-41602438D02*
X93574285Y-41650057D01*
X93574285Y-41650057D02*
X93526666Y-41745295D01*
X93526666Y-41745295D02*
X93526666Y-41888152D01*
X93526666Y-41888152D02*
X93574285Y-41983390D01*
X93574285Y-41983390D02*
X93621904Y-42031009D01*
X93621904Y-42031009D02*
X93717142Y-42078628D01*
X93717142Y-42078628D02*
X94098094Y-42078628D01*
X92621904Y-41554819D02*
X93098094Y-41554819D01*
X93098094Y-41554819D02*
X93145713Y-42031009D01*
X93145713Y-42031009D02*
X93098094Y-41983390D01*
X93098094Y-41983390D02*
X93002856Y-41935771D01*
X93002856Y-41935771D02*
X92764761Y-41935771D01*
X92764761Y-41935771D02*
X92669523Y-41983390D01*
X92669523Y-41983390D02*
X92621904Y-42031009D01*
X92621904Y-42031009D02*
X92574285Y-42126247D01*
X92574285Y-42126247D02*
X92574285Y-42364342D01*
X92574285Y-42364342D02*
X92621904Y-42459580D01*
X92621904Y-42459580D02*
X92669523Y-42507200D01*
X92669523Y-42507200D02*
X92764761Y-42554819D01*
X92764761Y-42554819D02*
X93002856Y-42554819D01*
X93002856Y-42554819D02*
X93098094Y-42507200D01*
X93098094Y-42507200D02*
X93145713Y-42459580D01*
X122410057Y-36624761D02*
X122362438Y-36529523D01*
X122362438Y-36529523D02*
X122267200Y-36434285D01*
X122267200Y-36434285D02*
X122124342Y-36291428D01*
X122124342Y-36291428D02*
X122076723Y-36196190D01*
X122076723Y-36196190D02*
X122076723Y-36100952D01*
X122314819Y-36148571D02*
X122267200Y-36053333D01*
X122267200Y-36053333D02*
X122171961Y-35958095D01*
X122171961Y-35958095D02*
X121981485Y-35910476D01*
X121981485Y-35910476D02*
X121648152Y-35910476D01*
X121648152Y-35910476D02*
X121457676Y-35958095D01*
X121457676Y-35958095D02*
X121362438Y-36053333D01*
X121362438Y-36053333D02*
X121314819Y-36148571D01*
X121314819Y-36148571D02*
X121314819Y-36339047D01*
X121314819Y-36339047D02*
X121362438Y-36434285D01*
X121362438Y-36434285D02*
X121457676Y-36529523D01*
X121457676Y-36529523D02*
X121648152Y-36577142D01*
X121648152Y-36577142D02*
X121981485Y-36577142D01*
X121981485Y-36577142D02*
X122171961Y-36529523D01*
X122171961Y-36529523D02*
X122267200Y-36434285D01*
X122267200Y-36434285D02*
X122314819Y-36339047D01*
X122314819Y-36339047D02*
X122314819Y-36148571D01*
X121410057Y-36958095D02*
X121362438Y-37005714D01*
X121362438Y-37005714D02*
X121314819Y-37100952D01*
X121314819Y-37100952D02*
X121314819Y-37339047D01*
X121314819Y-37339047D02*
X121362438Y-37434285D01*
X121362438Y-37434285D02*
X121410057Y-37481904D01*
X121410057Y-37481904D02*
X121505295Y-37529523D01*
X121505295Y-37529523D02*
X121600533Y-37529523D01*
X121600533Y-37529523D02*
X121743390Y-37481904D01*
X121743390Y-37481904D02*
X122314819Y-36910476D01*
X122314819Y-36910476D02*
X122314819Y-37529523D01*
X105206666Y-47734819D02*
X105539999Y-47258628D01*
X105778094Y-47734819D02*
X105778094Y-46734819D01*
X105778094Y-46734819D02*
X105397142Y-46734819D01*
X105397142Y-46734819D02*
X105301904Y-46782438D01*
X105301904Y-46782438D02*
X105254285Y-46830057D01*
X105254285Y-46830057D02*
X105206666Y-46925295D01*
X105206666Y-46925295D02*
X105206666Y-47068152D01*
X105206666Y-47068152D02*
X105254285Y-47163390D01*
X105254285Y-47163390D02*
X105301904Y-47211009D01*
X105301904Y-47211009D02*
X105397142Y-47258628D01*
X105397142Y-47258628D02*
X105778094Y-47258628D01*
X104349523Y-47068152D02*
X104349523Y-47734819D01*
X104587618Y-46687200D02*
X104825713Y-47401485D01*
X104825713Y-47401485D02*
X104206666Y-47401485D01*
D11*
%TO.C,R1*%
X87900000Y-38710000D02*
X88670000Y-38710000D01*
X95980000Y-38710000D02*
X95210000Y-38710000D01*
X88670000Y-40080000D02*
X95210000Y-40080000D01*
X95210000Y-37340000D01*
X88670000Y-37340000D01*
X88670000Y-40080000D01*
%TO.C,Q1*%
X99750000Y-41060000D02*
X109970000Y-41060000D01*
X99750000Y-44300000D02*
X109970000Y-44300000D01*
X99750000Y-45680000D02*
X99750000Y-41060000D01*
X99750000Y-45680000D02*
X109970000Y-45680000D01*
X103010000Y-45680000D02*
X103010000Y-44300000D01*
X106710000Y-45680000D02*
X106710000Y-44300000D01*
X109970000Y-45680000D02*
X109970000Y-41060000D01*
%TO.C,R2*%
X119340000Y-61160000D02*
X118570000Y-61160000D01*
X111260000Y-61160000D02*
X112030000Y-61160000D01*
X112030000Y-62530000D02*
X118570000Y-62530000D01*
X118570000Y-59790000D01*
X112030000Y-59790000D01*
X112030000Y-62530000D01*
%TO.C,R6*%
X101000000Y-50370000D02*
X101770000Y-50370000D01*
X109080000Y-50370000D02*
X108310000Y-50370000D01*
X101770000Y-51740000D02*
X108310000Y-51740000D01*
X108310000Y-49000000D01*
X101770000Y-49000000D01*
X101770000Y-51740000D01*
%TO.C,U1*%
X111630000Y-49280000D02*
X121910000Y-49280000D01*
X111630000Y-54580000D02*
X111630000Y-49280000D01*
X121910000Y-49280000D02*
X121910000Y-50930000D01*
X121910000Y-52930000D02*
X121910000Y-54580000D01*
X121910000Y-54580000D02*
X111630000Y-54580000D01*
X121910000Y-52930000D02*
G75*
G02*
X121910000Y-50930000I0J1000000D01*
G01*
%TO.C,R3*%
X100320000Y-35610000D02*
X101090000Y-35610000D01*
X108400000Y-35610000D02*
X107630000Y-35610000D01*
X107630000Y-34240000D02*
X101090000Y-34240000D01*
X101090000Y-36980000D01*
X107630000Y-36980000D01*
X107630000Y-34240000D01*
%TO.C,Q3*%
X111690000Y-39510000D02*
X115290000Y-39510000D01*
X113490000Y-43960000D02*
G75*
G02*
X111651522Y-39521522I0J2600000D01*
G01*
X115328478Y-39521522D02*
G75*
G02*
X113490000Y-43960001I-1838478J-1838478D01*
G01*
%TO.C,C1*%
X117950000Y-57100000D02*
X121590000Y-57100000D01*
X117950000Y-57400000D02*
X117950000Y-57100000D01*
X117950000Y-59440000D02*
X117950000Y-59140000D01*
X117950000Y-59440000D02*
X121590000Y-59440000D01*
X121590000Y-57400000D02*
X121590000Y-57100000D01*
X121590000Y-59440000D02*
X121590000Y-59140000D01*
%TO.C,C2*%
X117050000Y-45330000D02*
X117050000Y-40790000D01*
X117106000Y-40790000D02*
X117050000Y-40790000D01*
X117106000Y-45330000D02*
X117050000Y-45330000D01*
X119190000Y-45330000D02*
X119190000Y-40790000D01*
%TO.C,R5*%
X89320000Y-42100000D02*
X90090000Y-42100000D01*
X97400000Y-42100000D02*
X96630000Y-42100000D01*
X90090000Y-43470000D02*
X96630000Y-43470000D01*
X96630000Y-40730000D01*
X90090000Y-40730000D01*
X90090000Y-43470000D01*
%TO.C,Q2*%
X110890000Y-34210000D02*
X121110000Y-34210000D01*
X110890000Y-37450000D02*
X121110000Y-37450000D01*
X110890000Y-38830000D02*
X110890000Y-34210000D01*
X110890000Y-38830000D02*
X121110000Y-38830000D01*
X114150000Y-38830000D02*
X114150000Y-37450000D01*
X117850000Y-38830000D02*
X117850000Y-37450000D01*
X121110000Y-38830000D02*
X121110000Y-34210000D01*
%TO.C,R4*%
X100990000Y-47320000D02*
X101760000Y-47320000D01*
X109070000Y-47320000D02*
X108300000Y-47320000D01*
X101760000Y-48690000D02*
X108300000Y-48690000D01*
X108300000Y-45950000D01*
X101760000Y-45950000D01*
X101760000Y-48690000D01*
%TD*%
M02*
